<?xml version="1.0" standalone="no"?>
<!DOCTYPE svg PUBLIC "-//W3C//DTD SVG 1.1//EN" "http://www.w3.org/Graphics/SVG/1.1/DTD/svg11.dtd" >
<svg>
<metadata>
Created by FontForge 20120731 at Mon Sep  9 10:48:15 2019
 By ffonts
Copyright \(c\) 2019 by Khurasan. All rights reserved.
</metadata>
<defs>
<font id="GreatFighter" horiz-adv-x="306" >
  <font-face 
    font-family="Great Fighter"
    font-weight="400"
    font-stretch="normal"
    units-per-em="1000"
    panose-1="0 0 0 0 0 0 0 0 0 0"
    ascent="800"
    descent="-200"
    x-height="598"
    cap-height="741"
    bbox="-118 -102.077 5935 796.641"
    underline-thickness="50"
    underline-position="-50"
    unicode-range="U+000D-F6C0"
  />
<missing-glyph 
 />
    <glyph glyph-name="F_i" unicode="Fi" horiz-adv-x="845" 
d="M849 609c4 1 4 -1 4 -2c14 0 29 0 36 -9c9 3 16 -8 25 -8c7 -2 18 1 23 -2c2 0 2 -3 3 -3c14 -10 22 -12 30 -28c-1 -5 -1 -11 -1 -16c-8 -7 -14 -17 -26 -17c0 -11 -7 -18 -17 -23c-2 -4 0 -6 -2 -8c-11 -5 -19 -11 -23 -22c-5 2 -3 -6 -10 -5c-20 -44 -58 -78 -74 -120
c-10 -8 -16 -17 -19 -31h-6c-2 -22 -18 -28 -17 -51c-1 0 -3 -1 -4 -1c-19 -56 -40 -106 -52 -165h-5c-12 -23 -30 -43 -44 -68c-10 5 -24 29 -30 36c-4 10 -11 23 -16 32c6 4 -3 7 5 8c-12 15 -15 29 -12 56c-2 1 -6 0 -6 2c-1 13 1 44 6 60c1 3 -1 3 -3 3c0 4 6 3 6 7
c-5 18 15 24 12 45c9 1 5 15 14 17c6 23 23 34 27 57c1 4 7 5 7 13c12 2 6 22 19 24c1 10 10 12 11 22c12 1 4 24 19 24v11c10 0 3 13 17 15c22 57 67 96 103 147zM-5 54c8 -2 8 -11 14 -16c-17 32 -17 98 0 138c-4 10 7 35 21 44c0 3 -2 3 -5 3c10 15 13 35 25 48
c9 39 39 62 51 100c4 3 8 6 11 10c-19 17 -73 25 -99 37c7 8 9 13 14 23c41 1 90 15 131 16c63 68 113 153 182 211c-74 10 -173 -28 -210 21c30 28 91 37 136 48c43 1 89 2 140 1c9 5 18 11 23 18c25 -5 46 2 71 -16c124 -6 450 4 583 -7c-5 -3 -6 -8 -13 -8
c0 -6 8 -7 8 -12c-5 -5 -12 -8 -6 -19c-18 3 -30 -1 -31 -14c-30 -5 -63 -17 -96 -12c-3 0 0 -5 -4 -5c-8 5 -8 -3 -14 4c-9 2 -4 -5 -11 -4c0 2 -1 3 -3 4c-71 -11 -273 0 -348 -8c-8 -4 -11 -12 -23 -12c-7 -12 -26 -14 -28 -30c-7 1 -8 -2 -14 -2c11 -6 -9 -8 -17 -14
c-14 -8 -25 -18 -29 -28c-20 -6 -27 -22 -34 -38c-8 1 -5 -3 -9 -4c-13 -21 -35 -35 -49 -56c104 -2 207 0 322 0c-2 -6 4 -5 5 -7c12 4 23 -2 36 1c-7 -5 -21 -6 -36 -5c1 -4 2 -8 9 -7c-14 -3 -31 1 -41 -14c-5 0 -8 1 -7 5c-7 -6 -23 -6 -37 -7c-1 -2 -1 -5 2 -5
c-7 -3 -37 -1 -44 -11c-22 1 -63 0 -87 -7v4c-17 -12 -49 0 -62 -11c-7 -1 -9 2 -11 3c-11 -8 -35 0 -42 -8c-3 0 -4 2 -4 4c-15 -9 -43 0 -58 -11v4c-10 -9 -19 -17 -20 -32c-12 -3 -12 -15 -19 -23c-2 -3 -12 -6 -14 -10c-1 -4 5 -14 -6 -11c0 -2 4 -1 4 -4
c-22 -32 -35 -61 -46 -103c-5 0 -9 -1 -11 -2c9 -20 -19 -39 -16 -48c-16 -15 -19 -42 -33 -54c-1 -18 5 -40 -11 -47c3 -25 -9 -53 -46 -54c-1 -4 -11 -1 -9 -8c-8 -2 -17 -3 -21 -8c-30 12 -53 29 -64 55z" />
    <glyph glyph-name="h_t" unicode="ht" horiz-adv-x="879" 
d="M456 376c6 -2 4 -9 -4 -7c-1 5 7 2 4 7zM417 247c5 -3 2 -10 0 -12c-7 0 0 9 0 12zM411 234h6c0 -5 -3 -10 -4 -13c-5 2 1 6 -2 13zM413 220c-2 -1 3 -9 -5 -7c-2 6 0 7 5 7zM402 182c6 0 -1 -9 0 -14c-4 3 1 10 0 14zM377 43c3 0 3 -1 6 -1c1 -7 -7 -9 -4 -18
c-6 6 2 11 -2 19zM378 21c1 -4 2 -8 2 -11h-4c1 3 -6 12 2 11zM522 224c1 -1 1 -2 1 -3c1 -3 3 2 7 0c0 -1 -1 -1 -2 -1c-6 0 0 -7 -3 -9c4 -1 4 2 6 4c8 -7 -4 -9 -3 -15c-1 1 -2 3 -4 3c0 -3 -5 -14 5 -13c-6 -1 -8 -7 -11 -11c0 -3 8 2 6 -4c-2 -4 -6 -6 -12 -7
c1 -4 1 -7 0 -9c0 -2 4 -2 4 0c3 -7 -5 -15 -5 -20c-5 0 -6 12 0 13c-3 3 -7 3 -8 5c-9 -4 -11 -12 -17 -18c8 0 8 1 21 0c0 -7 -4 -12 -5 -21h-12c8 -4 -2 -8 1 -15c-6 4 -9 -1 -13 -1c10 -6 -1 -11 7 -16c-6 1 1 -8 -8 -5c9 -7 -6 -4 2 -15c-15 0 -9 -17 -22 -15
c2 6 2 14 9 15c-8 6 -9 -6 -12 -11c-1 1 -1 3 -4 3c-3 -6 -15 -23 -10 -31c-12 3 -8 -5 -11 -10c-4 -2 -4 2 -5 5c-5 0 -5 -11 -7 0c-7 -7 -6 -20 -19 -23c2 -9 -1 -14 -3 -20c-14 11 -4 24 -12 34c10 16 7 42 12 64c16 7 10 27 10 40c7 6 6 17 11 24c-5 2 0 -5 -6 -2
c12 15 3 40 18 51c-2 8 -3 14 0 17c0 4 -6 1 -9 2c8 22 17 43 26 65c-28 0 -67 12 -93 3c-4 0 -6 0 -6 2c-19 -8 -38 -2 -52 -12c-26 0 -50 0 -65 -11c-5 0 -4 6 2 5c-8 2 -23 0 -26 -5c-25 0 -30 -14 -40 -22c6 -14 -13 -31 -14 -50c-5 1 -6 -3 -11 0c4 -3 6 -9 6 -16
c-5 -2 -12 -2 -11 -6c4 -5 5 1 9 1c2 -8 -13 -9 -9 -15c-2 -4 -17 2 -11 -7c-12 3 -17 -1 -19 -7c-12 1 -12 -6 -21 -6c-2 -18 -19 -24 -22 -41c-12 -1 -10 -4 -13 -9c-3 0 -3 2 -3 3c-6 -3 -9 -8 -11 -16c-13 -1 -16 -9 -29 -10c-3 16 -4 23 2 32c0 19 16 32 8 57
c7 0 4 8 10 8c3 27 16 44 18 69c-1 3 -4 2 -5 4c-17 -4 -26 6 -40 12c19 16 57 20 73 40c-1 5 -2 9 -1 13c0 1 -4 0 -7 0c1 3 2 4 1 8h7c0 11 -6 18 7 17c0 29 12 60 28 83c-2 29 21 42 27 65h5c-6 10 9 15 8 25c13 3 15 11 16 22c8 -2 3 7 10 6c2 19 22 26 25 45
c16 12 27 27 40 41c49 2 94 -22 118 -52c-3 -13 -6 -25 -20 -29c-8 -17 -15 -35 -29 -47c1 -7 1 -13 -8 -13c-4 -9 -4 -20 -13 -25c-8 -27 -31 -46 -41 -73c-8 -2 -11 -7 -10 -15c-12 -5 -12 -16 -12 -25c-9 -1 -7 -9 -17 -11c56 10 141 22 204 11c2 -1 2 3 2 3
c10 -2 24 -7 37 -6c6 12 9 33 16 47c-6 7 8 19 7 30c-7 -5 -6 -13 -10 -19c-6 6 7 21 9 27c-1 -2 -3 11 4 10c2 30 1 -15 3 12c11 4 8 19 15 24c0 4 -5 1 -5 7c6 -1 6 2 10 2c-1 6 -3 5 -2 9c11 7 7 25 21 31c7 27 31 43 43 66c12 3 27 9 42 5c6 -7 11 -9 21 -10
c4 -12 21 -10 25 -23c0 -1 2 -1 5 -1c2 -6 4 -13 10 -17c-2 -24 -21 -36 -25 -60c-9 -5 -10 -15 -11 -28c-9 -6 -11 -16 -11 -29c-11 -11 -12 -27 -22 -37c2 -8 -4 -9 -1 -19c-15 -9 8 26 -4 15c0 -3 1 -6 2 -10c-4 1 -4 -2 -9 -1c3 -5 1 -5 4 -11c-12 3 0 -10 -12 -7v-5
s0 -13 -3 -21c-2 -2 -7 -4 -10 -6c-2 -8 -2 -15 -11 -20c0 -4 5 3 7 -2c-4 -3 -18 -3 -10 -12h-9c0 -2 0 -3 1 -6c6 7 0 0 9 0c-4 -5 -7 -9 -6 -17c-8 3 -9 0 -15 0c6 -8 2 -4 1 -12c0 -2 6 -1 7 -2c6 -1 -3 7 5 5c1 -2 1 -4 2 -8c-8 3 -5 -1 -8 -2s-4 1 -4 2
c-2 0 -2 -4 -8 -3zM525 230h-10c0 -20 -17 -34 -6 -58c2 3 -1 9 5 7c-7 15 9 23 0 32c6 4 4 13 11 19zM563 335c0 -3 -8 -3 -1 -6c1 6 5 -2 10 0c-3 3 2 3 1 6c-3 0 -3 1 -6 1c1 -6 -1 -1 -4 -1zM457 320c0 4 4 -1 8 0c-3 2 -1 8 -5 8c3 -5 -9 -5 -3 -8zM520 261
c6 4 1 1 10 0c-2 3 1 4 1 6c-6 0 -14 0 -11 -6zM481 168c4 -2 6 6 2 7c1 -4 -6 -2 -2 -7zM404 195c1 3 4 -9 2 -11c-4 2 -2 9 -2 11zM389 123c8 -6 -2 -9 0 -15c-6 5 2 9 0 15zM499 113c2 -2 0 -6 3 -9h-6c-1 3 -1 5 -1 6c2 0 5 0 4 3zM388 106c2 4 3 -6 -3 -4
c4 -4 4 -8 -1 -11c2 7 -3 11 4 15zM386 83c3 -5 -5 -5 -1 -14c-2 -2 -5 15 1 14zM383 62c1 -4 -1 -14 -6 -15c5 3 1 12 6 15zM1058 709c4 -4 11 -4 14 0c35 -9 62 -11 93 -23c18 1 32 -3 42 -9c-4 -7 -11 -17 -6 -26c-10 -2 -4 -10 -6 -17c-20 -3 -31 -16 -43 -9
c-9 -8 -19 3 -32 0c-1 -1 -2 -3 -3 -4c-9 -1 -21 1 -24 -6c-25 -6 -50 5 -63 -7c-6 -2 -5 2 -10 1c-3 -9 -30 -10 -33 -8c-10 -7 -25 -5 -30 -10c-1 -8 4 -11 8 -14c5 -28 0 -53 -23 -57c-11 -19 -49 -64 -57 -85c-10 -5 -16 -13 -18 -24c-14 -5 -12 -25 -25 -32
c-7 -24 -20 -43 -26 -69h-6c-23 -66 -49 -130 -76 -195c3 -21 -5 -51 -2 -79c-7 2 -3 -4 -9 -3c10 -12 -8 -10 -7 -21c-10 -1 -11 6 -19 7c-4 0 3 -12 -4 -10c1 9 -5 11 -7 17c-2 -4 -14 1 -15 -6c-5 10 -19 2 -22 10c-4 1 -2 -4 -4 -5c-29 7 -35 36 -37 77
c-9 30 -4 58 3 91c2 13 11 26 14 39c2 7 0 15 2 22c1 5 8 14 11 21c2 6 2 20 11 22c-2 21 16 30 13 45c10 11 11 29 22 37c3 7 0 18 7 19c-1 1 -4 1 -3 5c12 2 12 16 18 28c3 5 10 10 11 13c6 17 36 63 40 80c11 9 27 58 35 70c-21 0 -91 -30 -118 -27c-19 2 -30 23 -50 24
c-22 20 -47 28 -59 58c15 15 95 18 114 29c44 8 87 7 129 17c1 -4 23 2 40 7c2 1 2 -1 3 -3c24 7 53 5 80 9c44 5 94 -7 127 1z" />
    <glyph glyph-name="g_h_t" unicode="tht" horiz-adv-x="1402" 
d="M982 376c6 -2 4 -9 -4 -7c-1 5 7 2 4 7zM943 247c5 -3 2 -10 0 -12c-7 0 0 9 0 12zM937 234h6c0 -5 -3 -10 -4 -13c-5 2 1 6 -2 13zM939 220c-2 -1 3 -9 -5 -7c-2 6 0 7 5 7zM928 182c6 0 -1 -9 0 -14c-4 3 1 10 0 14zM903 43c3 0 3 -1 6 -1c1 -7 -7 -9 -4 -18
c-6 6 2 11 -2 19zM904 21c1 -4 2 -8 2 -11h-4c1 3 -6 12 2 11zM1048 224c1 -1 1 -2 1 -3c1 -3 3 2 7 0c0 -1 -1 -1 -2 -1c-6 0 0 -7 -3 -9c4 -1 4 2 6 4c8 -7 -4 -9 -3 -15c-1 1 -2 3 -4 3c0 -3 -5 -14 5 -13c-6 -1 -8 -7 -11 -11c0 -3 8 2 6 -4c-2 -4 -6 -6 -12 -7
c1 -4 1 -7 0 -9c0 -2 4 -2 4 0c3 -7 -5 -15 -5 -20c-5 0 -6 12 0 13c-3 3 -7 3 -8 5c-9 -4 -11 -12 -17 -18c8 0 8 1 21 0c0 -7 -4 -12 -5 -21h-12c8 -4 -2 -8 1 -15c-6 4 -9 -1 -13 -1c10 -6 -1 -11 7 -16c-6 1 1 -8 -8 -5c9 -7 -6 -4 2 -15c-15 0 -9 -17 -22 -15
c2 6 2 14 9 15c-8 6 -9 -6 -12 -11c-1 1 -1 3 -4 3c-3 -6 -15 -23 -10 -31c-12 3 -8 -5 -11 -10c-4 -2 -4 2 -5 5c-5 0 -5 -11 -7 0c-7 -7 -6 -20 -19 -23c2 -9 -1 -14 -3 -20c-14 11 -4 24 -12 34c10 16 7 42 12 64c16 7 10 27 10 40c7 6 6 17 11 24c-5 2 0 -5 -6 -2
c12 15 3 40 18 51c-2 8 -3 14 0 17c0 4 -6 1 -9 2c8 22 17 43 26 65c-28 0 -67 12 -93 3c-4 0 -6 0 -6 2c-19 -8 -38 -2 -52 -12c-26 0 -50 0 -65 -11c-5 0 -4 6 2 5c-8 2 -23 0 -26 -5c-25 0 -30 -14 -40 -22c6 -14 -13 -31 -14 -50c-5 1 -6 -3 -11 0c4 -3 6 -9 6 -16
c-5 -2 -12 -2 -11 -6c4 -5 5 1 9 1c2 -8 -13 -9 -9 -15c-2 -4 -17 2 -11 -7c-12 3 -17 -1 -19 -7c-12 1 -12 -6 -21 -6c-2 -18 -19 -24 -22 -41c-12 -1 -10 -4 -13 -9c-3 0 -3 2 -3 3c-6 -3 -9 -8 -11 -16c-13 -1 -16 -9 -29 -10c-3 16 -4 23 2 32c0 19 16 32 8 57
c7 0 4 8 10 8c3 27 16 44 18 69c-1 3 -4 2 -5 4c-17 -4 -26 6 -40 12c19 16 57 20 73 40c-1 5 -2 9 -1 13c0 1 -4 0 -7 0c1 3 2 4 1 8h7c0 11 -6 18 7 17c0 29 12 60 28 83c-2 29 21 42 27 65h5c-6 10 9 15 8 25c13 3 15 11 16 22c8 -2 3 7 10 6c2 19 22 26 25 45
c16 12 27 27 40 41c49 2 94 -22 118 -52c-3 -13 -6 -25 -20 -29c-8 -17 -15 -35 -29 -47c1 -7 1 -13 -8 -13c-4 -9 -4 -20 -13 -25c-8 -27 -31 -46 -41 -73c-8 -2 -11 -7 -10 -15c-12 -5 -12 -16 -12 -25c-9 -1 -7 -9 -17 -11c56 10 141 22 204 11c2 -1 2 3 2 3
c10 -2 24 -7 37 -6c6 12 9 33 16 47c-6 7 8 19 7 30c-7 -5 -6 -13 -10 -19c-6 6 7 21 9 27c-1 -2 -3 11 4 10c2 30 1 -15 3 12c11 4 8 19 15 24c0 4 -5 1 -5 7c6 -1 6 2 10 2c-1 6 -3 5 -2 9c11 7 7 25 21 31c7 27 31 43 43 66c12 3 27 9 42 5c6 -7 11 -9 21 -10
c4 -12 21 -10 25 -23c0 -1 2 -1 5 -1c2 -6 4 -13 10 -17c-2 -24 -21 -36 -25 -60c-9 -5 -10 -15 -11 -28c-9 -6 -11 -16 -11 -29c-11 -11 -12 -27 -22 -37c2 -8 -4 -9 -1 -19c-15 -9 8 26 -4 15c0 -3 1 -6 2 -10c-4 1 -4 -2 -9 -1c3 -5 1 -5 4 -11c-12 3 0 -10 -12 -7v-5
s0 -13 -3 -21c-2 -2 -7 -4 -10 -6c-2 -8 -2 -15 -11 -20c0 -4 5 3 7 -2c-4 -3 -18 -3 -10 -12h-9c0 -2 0 -3 1 -6c6 7 0 0 9 0c-4 -5 -7 -9 -6 -17c-8 3 -9 0 -15 0c6 -8 2 -4 1 -12c0 -2 6 -1 7 -2c6 -1 -3 7 5 5c1 -2 1 -4 2 -8c-8 3 -5 -1 -8 -2s-4 1 -4 2
c-2 0 -2 -4 -8 -3zM1051 230h-10c0 -20 -17 -34 -6 -58c2 3 -1 9 5 7c-7 15 9 23 0 32c6 4 4 13 11 19zM1089 335c0 -3 -8 -3 -1 -6c1 6 5 -2 10 0c-3 3 2 3 1 6c-3 0 -3 1 -6 1c1 -6 -1 -1 -4 -1zM983 320c0 4 4 -1 8 0c-3 2 -1 8 -5 8c3 -5 -9 -5 -3 -8zM1046 261
c6 4 1 1 10 0c-2 3 1 4 1 6c-6 0 -14 0 -11 -6zM1007 168c4 -2 6 6 2 7c1 -4 -6 -2 -2 -7zM930 195c1 3 4 -9 2 -11c-4 2 -2 9 -2 11zM915 123c8 -6 -2 -9 0 -15c-6 5 2 9 0 15zM1025 113c2 -2 0 -6 3 -9h-6c-1 3 -1 5 -1 6c2 0 5 0 4 3zM914 106c2 4 3 -6 -3 -4
c4 -4 4 -8 -1 -11c2 7 -3 11 4 15zM912 83c3 -5 -5 -5 -1 -14c-2 -2 -5 15 1 14zM909 62c1 -4 -1 -14 -6 -15c5 3 1 12 6 15zM1584 709c4 -4 11 -4 14 0c35 -9 62 -11 93 -23c18 1 32 -3 42 -9c-4 -7 -11 -17 -6 -26c-10 -2 -4 -10 -6 -17c-20 -3 -31 -16 -43 -9
c-9 -8 -19 3 -32 0c-1 -1 -2 -3 -3 -4c-9 -1 -21 1 -24 -6c-25 -6 -50 5 -63 -7c-6 -2 -5 2 -10 1c-3 -9 -30 -10 -33 -8c-10 -7 -25 -5 -30 -10c-1 -8 4 -11 8 -14c5 -28 0 -53 -23 -57c-11 -19 -49 -64 -57 -85c-10 -5 -16 -13 -18 -24c-14 -5 -12 -25 -25 -32
c-7 -24 -20 -43 -26 -69h-6c-23 -66 -49 -130 -76 -195c3 -21 -5 -51 -2 -79c-7 2 -3 -4 -9 -3c10 -12 -8 -10 -7 -21c-10 -1 -11 6 -19 7c-4 0 3 -12 -4 -10c1 9 -5 11 -7 17c-2 -4 -14 1 -15 -6c-5 10 -19 2 -22 10c-4 1 -2 -4 -4 -5c-29 7 -35 36 -37 77
c-9 30 -4 58 3 91c2 13 11 26 14 39c2 7 0 15 2 22c1 5 8 14 11 21c2 6 2 20 11 22c-2 21 16 30 13 45c10 11 11 29 22 37c3 7 0 18 7 19c-1 1 -4 1 -3 5c12 2 12 16 18 28c3 5 10 10 11 13c6 17 36 63 40 80c11 9 27 58 35 70c-21 0 -91 -30 -118 -27c-19 2 -30 23 -50 24
c-22 20 -47 28 -59 58c15 15 95 18 114 29c44 8 87 7 129 17c1 -4 23 2 40 7c2 1 2 -1 3 -3c24 7 53 5 80 9c44 5 94 -7 127 1zM110 134c6 -1 7 1 13 0c3 5 10 7 18 7c52 26 102 56 152 84c3 0 2 2 2 5c5 -1 4 2 8 2c4 10 21 10 24 21c18 6 32 13 42 26c17 5 31 16 41 28
c14 3 23 12 25 28c-1 1 -15 3 -14 -2c-24 7 -55 -12 -82 -6c-18 2 -32 6 -35 20c3 5 12 4 8 12c22 13 51 19 77 26c37 6 80 -6 101 11c8 -3 9 4 10 -5c5 2 18 4 20 -3c2 1 2 3 2 5c16 -10 34 -6 54 -7c-1 -17 21 -18 31 -20c-43 -26 -69 -71 -98 -111
c-6 -26 -20 -46 -30 -69h-8c1 -12 -8 -15 -8 -24h-8c-2 -1 -1 -5 -2 -6c1 -4 3 3 9 1c-8 -20 -27 -31 -30 -55c-8 0 -4 -11 -14 -9v-8c3 0 3 1 3 4c0 -5 -10 -13 -16 -16c0 -6 -1 -9 -8 -8v11c-3 -2 -12 -13 -6 -14c-6 -3 -15 2 -21 -3c-1 1 -1 4 -1 6c-5 -2 -10 -4 -11 -11
c-1 4 -4 6 -4 11c-9 -4 -15 -5 -23 0c-1 -4 4 -3 5 -5c0 -4 -9 2 -6 -5c-9 5 -7 12 -9 21c-2 0 -2 -2 -3 -3c-1 9 -6 10 3 17c-9 24 7 35 10 65c-21 -20 -42 -40 -68 -55c-2 -1 -2 -5 -3 -7h-8c-21 -27 -58 -40 -93 -48c-14 2 -26 7 -43 6c-3 5 -12 3 -20 4
c-9 7 -29 3 -39 10c-7 11 -14 21 -29 20c-5 8 -11 14 -22 17c-2 11 -5 20 -12 26c2 7 1 18 11 16c-4 -8 4 -10 -1 -18c8 -11 10 -27 26 -31c-1 46 -48 57 -42 115c-1 2 -3 3 -5 3c4 3 6 10 5 14c8 2 2 13 11 13c-2 13 9 13 7 22c13 4 16 19 22 27c4 4 10 6 13 9
c5 7 7 16 12 20c10 14 28 22 34 38c5 0 3 5 9 4c18 22 39 44 63 61c7 12 16 19 29 23c2 1 2 6 2 9c26 11 41 35 67 47c5 12 25 17 43 29c14 10 31 22 48 31c7 4 11 4 19 8c9 4 17 12 24 15c2 1 2 -3 2 -3c4 0 6 6 11 8c3 1 10 0 15 3c9 4 16 13 19 6c3 6 18 1 21 7
c3 2 4 -7 5 0c6 -1 9 -6 15 -2c3 -6 9 -7 17 -7c10 -11 24 -14 38 -18c12 -13 36 -25 52 -38c1 -1 -1 -4 0 -4c1 -2 4 0 5 0c9 -10 16 -26 4 -41c-21 -9 -55 -1 -81 -4c-9 -1 -22 -9 -32 -11c-2 -1 -1 2 -2 2c-6 0 -15 -4 -20 -5c-4 -1 -4 -2 -12 -4c-3 -2 -2 -5 -3 -6
c-2 -1 -7 1 -10 0c-2 -1 -5 -9 -6 -2c-5 -8 -22 -6 -27 -14c-3 -1 -2 3 -5 3c-14 -4 -23 -14 -39 -16c-3 0 -2 -2 -2 -4c-20 -4 -27 -21 -47 -25c-2 -6 -9 -6 -9 -14c-32 -15 -49 -43 -75 -64c0 -4 -2 -6 -1 -10c-24 -22 -49 -43 -63 -75c-17 -7 -13 -32 -33 -36
c0 -9 -5 -12 -7 -18c6 0 5 7 10 6c-8 -15 -23 -36 -21 -63zM9 242c-7 -7 -20 -23 -12 -33c15 24 26 52 43 75c-1 1 -1 3 -2 3c-10 -15 -26 -23 -29 -45zM351 107c-1 7 3 8 3 15h-7c1 -7 -2 -15 4 -15zM40 94c11 1 15 -3 22 1c-8 -1 -5 7 -7 12c-9 2 -14 7 -23 11
c2 -16 5 -9 8 -24zM336 107c2 -2 2 -5 5 -7c0 7 4 13 -2 13c2 -5 -5 -1 -3 -6z" />
    <glyph glyph-name="G_r" unicode="Gre" horiz-adv-x="1725" 
d="M145 129c7 -1 9 3 16 2c4 6 12 8 21 8c62 34 123 72 183 108c3 0 2 3 2 5c6 -1 5 3 10 2c5 15 25 14 29 27c21 9 38 18 50 34c21 7 38 20 50 35c17 5 28 17 30 36c-1 3 -18 5 -17 -2c-29 10 -66 -14 -99 -8c-21 3 -38 8 -42 26c4 6 14 4 10 15c26 17 61 24 93 34
c44 7 95 -8 120 15c10 -5 11 4 12 -8c6 2 22 5 24 -4c2 1 2 4 2 6c20 -12 42 -7 66 -8c-1 -22 25 -23 37 -25c-52 -34 -83 -90 -118 -142c-7 -34 -24 -60 -36 -89h-10c1 -14 -9 -19 -10 -30h-9c-3 -1 -1 -6 -3 -8c1 -5 4 4 11 2c-4 -10 -4 -36 -15 -62
c-7 -17 -25 -31 -32 -48c-11 -27 -20 -52 -22 -64c-9 0 -5 -15 -17 -12v-10c4 -1 4 1 4 4c0 -6 -12 -15 -19 -20c0 -7 -2 -11 -10 -10v15c-4 -3 -14 -17 -7 -18c-7 -4 -18 2 -25 -4c-2 1 -2 5 -2 7c-6 -2 -12 -5 -13 -14c-1 6 -5 8 -5 14c-11 -5 -18 -6 -27 0
c-2 -5 4 -3 5 -6c1 -4 -10 2 -7 -5c-10 5 -8 14 -10 26c-3 0 -3 -3 -4 -5c-1 12 -7 13 4 22c-7 18 17 72 32 118c10 29 12 54 14 69c-26 -25 -51 -50 -82 -69c-3 -2 -3 -7 -4 -10h-10c-25 -34 -70 -51 -112 -61c-17 3 -30 9 -51 8c-3 7 -14 5 -23 6c-12 7 -36 3 -47 11
c-9 15 -17 27 -35 26c-6 10 -14 18 -27 22c-3 13 -6 25 -15 33c3 9 2 23 14 21c-5 -11 5 -15 -2 -23c10 -14 12 -35 32 -39c-1 57 -58 72 -51 145c-1 2 -3 4 -6 4c5 4 8 13 6 19c10 1 3 16 14 16c-3 15 10 15 8 28c16 5 19 24 27 34c4 5 11 7 15 12c6 8 8 19 14 26
c13 16 34 27 42 48c6 0 3 6 10 5c22 28 47 56 75 78c8 14 20 24 35 29c2 2 2 7 3 11c31 15 49 45 80 60c6 15 31 23 52 37c17 13 105 64 125 76c9 5 13 5 23 10c11 4 20 15 29 19c2 1 2 -4 2 -4c5 1 8 8 13 10c4 2 13 1 19 4c11 4 19 17 23 8c3 8 20 1 23 9c4 2 6 -9 7 0
c7 -2 10 -8 18 -3c3 -8 10 -10 20 -10c12 -12 29 -16 46 -21c14 -17 43 -33 63 -49c1 -1 -1 -6 0 -6c1 -2 5 0 6 0c10 -12 19 -33 5 -52c-26 -11 -67 -1 -98 -5c-11 -1 -27 -11 -39 -14c-2 -1 -1 3 -2 3c-7 0 -18 -5 -24 -7c-5 -2 -5 -3 -13 -6c-4 -1 -3 -5 -4 -6
c-3 -1 -8 1 -12 0c-2 -1 -6 -11 -7 -2c-6 -11 -27 -8 -33 -19c-4 -2 -2 3 -6 4c-17 -6 -95 -53 -114 -56c-3 0 -2 -3 -2 -6c-25 -5 -33 -26 -57 -31c-2 -8 -11 -8 -11 -18c-39 -19 -59 -56 -90 -82c0 -5 -3 -6 -1 -12c-29 -28 -60 -55 -77 -96c-20 -8 -15 -42 -38 -47
c0 -10 -6 -14 -8 -22c7 0 5 10 12 8c-10 -19 -28 -46 -26 -82zM24 269c-9 -9 -25 -29 -15 -44c18 31 31 68 52 96c-1 2 -1 4 -3 4c-12 -18 -31 -29 -34 -56zM401 -9c-1 9 3 12 3 20h-8c1 -8 -3 -20 5 -20zM61 80c13 1 18 -5 26 2c-9 -2 -5 8 -8 13c-11 3 -17 11 -28 15
c3 -20 6 -12 10 -30zM382 -9c3 -1 3 -5 6 -7c1 7 5 15 -2 15c3 -6 -6 -1 -4 -8zM619 102c1 -4 13 4 11 -4c-6 8 -11 -17 0 -18c3 1 -3 9 5 7c1 6 -3 6 -4 11c6 -2 3 5 9 2c0 15 13 20 11 39c10 36 22 72 40 104c-6 4 5 10 3 22c13 26 17 61 38 81c5 23 24 35 28 59h5
c-1 19 22 25 16 46c6 4 8 14 14 19c-5 6 -15 -8 -20 2c0 -4 -12 -6 -12 0c-2 -7 -8 3 -7 -4c-14 6 -34 6 -35 25c27 18 61 28 93 38c-1 6 -2 9 2 11c1 8 -5 4 -3 10c13 11 8 37 34 37c3 0 1 5 5 6c31 -5 40 -34 71 -32c28 15 76 13 110 23c2 1 3 -1 3 -2c42 8 88 -4 125 -12
c11 -9 26 -15 39 -21c12 -12 23 -22 40 -27c-1 -4 1 -6 4 -5c0 -4 6 -3 4 -9c5 1 4 -2 7 -1c17 -22 42 -39 39 -75c2 -4 -5 -1 -4 -5c-1 -6 5 -2 5 -7c-8 -20 -19 -38 -33 -54c-9 -1 -15 -8 -21 -14c-27 -5 -34 -22 -54 -30c-5 -5 -9 -11 -20 -10c-1 -5 -11 -3 -12 -8h-15
c-2 0 -2 -3 -2 -4c-37 -8 -62 -27 -107 -24c-2 -6 -10 -6 -16 -6c-2 0 -1 -2 -2 -3c-19 -3 -39 -5 -52 -12c39 -42 62 -97 109 -130c2 -12 21 -21 15 -28c6 -3 17 -10 13 -17c1 -2 4 -2 6 -2c-1 -14 9 -30 -9 -36c0 -6 -2 -10 4 -14c-7 -5 -4 -11 -4 -21h-10
c-2 -6 -2 -11 -6 -16c-20 16 -40 30 -56 50c-2 5 2 -3 3 -4c1 15 -13 22 -18 38c-14 5 -15 22 -32 23c0 4 -3 5 -4 7c-4 1 -5 -1 -9 -1c-45 43 -87 87 -124 132c-7 0 -10 -1 -16 -1c-10 -25 -20 -52 -38 -70c-2 -5 5 -2 3 -6c-8 1 -4 -8 -11 -8c-6 -32 -18 -61 -23 -93
c-7 0 -4 -9 -12 -10c2 -20 -16 -24 -22 -38c-8 -2 -6 0 -13 -6c-12 3 -20 3 -29 0c3 6 1 10 3 15c-6 1 -3 -8 -9 -2c2 -8 -1 -10 -2 -16c-5 3 0 8 -4 12c-9 -5 -5 -22 -11 -28c-7 -1 -2 6 -6 6c-6 0 -2 -7 -3 -10c-6 -2 -2 4 -6 4c0 22 -6 43 3 56c-4 1 -3 8 -7 9
c-6 -1 -13 -3 -21 -2c-8 5 -11 15 -18 24c5 7 4 -4 7 -5c8 11 12 32 17 52c3 -3 4 -17 -2 -19zM940 333c13 6 26 10 43 11c19 1 29 12 47 13c12 9 28 11 39 21c35 9 52 32 80 48c-2 4 1 5 1 8c13 5 15 17 27 22c2 14 14 17 17 29c0 15 -11 31 -19 35c-6 4 -14 3 -22 5
c-1 0 -4 3 -4 3c-23 10 -73 1 -87 -2c-4 1 -3 4 -7 2c-34 -6 -57 -10 -91 -21c3 -19 -12 -32 -15 -51h-6c0 -4 0 -9 1 -13c-5 -2 -4 -10 -7 -15c-20 -16 -24 -44 -36 -65c-4 -5 -11 -6 -10 -15c-5 -1 -6 -3 -7 -4c-2 -2 -5 -3 -9 -2c-2 -14 -16 -15 -22 -26
c29 6 58 12 84 19c0 -1 0 -2 3 -2zM1094 50c3 0 5 -1 6 -2c-3 4 -1 3 -2 11h-5c1 -4 2 -7 1 -9zM1691 195c17 -12 -18 -19 -22 -31c-8 0 -14 -5 -15 -12c-35 -8 -60 -26 -93 -38c-46 -27 -92 -58 -167 -64c-6 -2 -24 -6 -27 0v-2c-21 7 -47 5 -60 20c-13 -3 -16 10 -26 14
c-6 5 -19 10 -24 19c-5 5 -7 16 -10 23c-3 4 -9 7 -10 9c-1 6 -1 14 -1 21c-7 22 -7 41 1 63c5 9 13 20 15 28c3 5 0 11 8 13c2 15 11 23 17 32c-13 14 -41 11 -45 32c3 6 7 2 5 9c27 4 54 11 77 18v9c18 10 23 32 40 43c15 38 46 64 67 97c-2 4 -23 3 -27 -2
c-20 0 -42 12 -55 28c9 14 28 15 50 21c9 1 18 6 28 6c29 6 61 6 92 9c16 4 36 5 55 10c2 0 1 -4 2 -4c33 4 68 5 103 6c18 2 31 6 46 4c34 9 89 2 118 9c-4 -7 -9 -9 -19 -10c0 -4 9 -1 11 -3c-19 -8 -32 -23 -61 -25c-3 0 -2 -2 -3 -5c-36 -6 -57 -20 -105 -17
c-12 -9 -38 -4 -57 -10c0 -5 4 -5 9 -7c2 -27 -8 -47 -34 -55c-3 -8 -9 -12 -10 -20c-3 -1 -5 0 -5 2c-7 -3 6 -2 4 -7c-14 -2 -23 -9 -25 -21c-17 -4 -21 -24 -35 -33c51 -5 95 3 151 1c0 4 7 2 6 7c8 1 10 -2 19 -2c-3 -11 2 -19 12 -21c-8 -15 -28 -16 -37 -27
c-42 -5 -78 -4 -116 -10c-23 3 -53 -8 -84 -8c-16 -18 -30 -38 -47 -53v-6c-5 0 -3 -5 -9 -5c-15 -34 -38 -63 -46 -101c0 -10 -2 -32 3 -41c85 13 136 55 219 70c11 9 33 6 42 16c19 2 36 2 46 12c8 -1 10 -1 20 -1c-1 -7 -4 -6 5 -6c0 -5 1 -10 7 -10c4 1 -7 0 -3 6z" />
    <glyph glyph-name="L_L" unicode="LL" horiz-adv-x="966" 
d="M791 732c2 -2 2 -5 2 -8c12 7 16 -13 28 -7c1 -1 2 -3 1 -6c28 -4 40 -25 52 -46c14 2 8 -19 18 -24c2 -18 -8 -22 -8 -36c-21 -10 -36 -27 -58 -35c-2 -9 9 -2 8 -6v-5c3 -6 -16 -5 -4 -8c-8 -7 -16 -3 -25 -8c5 -11 -3 -8 -10 -11c8 -9 -12 -11 -22 -14
c3 -19 -12 -19 -17 -28c0 -3 5 -1 5 -4c-7 -15 -26 -18 -39 -27c8 -4 0 -7 0 -15c-12 1 -14 -4 -22 -4c-1 -6 4 -6 6 -10c-1 -4 -9 -1 -8 -8c-2 0 -1 5 -1 8c-14 3 -8 -15 -20 -13c-5 -16 -11 -29 -22 -37v-13c-21 -11 -16 -40 -34 -53c-2 -29 -21 -38 -18 -72
c-11 -23 -11 -57 -20 -83c103 51 196 112 321 139c14 8 33 21 53 16c-6 -7 -8 -19 -18 -22c-1 -7 1 -10 4 -12c-5 -7 -9 -18 -20 -19c-1 -10 2 -13 -1 -23c-22 -5 -36 -6 -44 -23c-28 -9 -45 -28 -69 -40c-2 0 -2 -3 -2 -6c-12 -2 -23 -7 -28 -17c-19 -8 -36 -16 -45 -35
c-18 -5 -28 -17 -37 -31c-20 -2 -29 -17 -37 -32c-29 -12 -48 -36 -75 -51c-3 0 -9 -3 -8 4c-21 -10 -51 -10 -68 0c-16 -4 -40 14 -50 29c-17 4 -41 19 -48 33c-5 12 0 36 -8 48c10 29 1 69 18 92c-6 6 11 44 23 59c2 3 0 12 1 16c4 10 15 20 14 31h6c-9 11 12 15 8 33
c4 0 2 7 8 4c6 29 26 44 31 74h7c0 13 12 16 12 31c2 -1 4 3 7 2c-2 11 6 12 4 23c12 -2 -2 11 12 8c3 32 31 37 35 67c10 -3 4 12 14 9c0 7 2 5 0 12c34 25 45 75 82 96c-2 6 3 6 1 12c6 -1 6 4 12 2v9c21 12 35 62 66 37c12 3 19 -5 27 -2zM312 81c14 9 32 24 52 18
c-6 -8 -8 -22 -18 -25c-1 -8 1 -11 4 -14c-5 -8 -8 -20 -19 -21c-1 -11 2 -15 -1 -26c-22 -6 -35 -7 -43 -26c-27 -10 -44 -32 -67 -46c-2 0 -2 -3 -2 -6c-12 -3 -23 -8 -28 -20c-1 0 -2 0 -3 -1l-14 -11c-2 0 -5 -2 -6 -1c-1 0 -2 -1 -2 -2l-1 6c-21 -10 -49 -9 -65 1
c-15 -4 -39 16 -48 33c-17 5 -40 22 -47 37c-5 14 0 41 -8 55c10 33 1 78 18 104c-6 7 10 50 22 67c2 3 0 13 1 18c4 11 15 23 14 35h5c-8 13 12 17 8 37c4 0 2 8 8 5c6 33 25 50 30 84h7c0 15 12 18 12 35c2 -1 4 3 7 2c-2 13 5 14 3 26c12 -2 -1 13 12 9c3 37 30 42 34 76
c10 -3 4 14 14 10c0 8 2 6 0 14c33 28 83 143 119 167c-2 7 3 7 1 13c6 -1 6 5 12 3v10c20 13 34 70 64 42c12 3 18 -6 26 -3c2 -2 2 -5 2 -9c12 8 16 -14 27 -8c1 -1 2 -3 1 -6c28 -5 39 -29 51 -52c14 2 8 -22 18 -28c2 -20 -8 -25 -8 -40c-21 -12 -35 -31 -57 -40
c-2 -10 9 -2 8 -7v-6c3 -6 -16 -5 -4 -9c-8 -8 -15 -3 -24 -9c5 -12 -3 -9 -10 -12c8 -10 -51 -71 -60 -74c3 -22 -12 -22 -17 -32c0 -3 5 -1 5 -4c-7 -17 -25 -21 -38 -31c8 -4 0 -8 0 -17c-12 1 -14 -4 -22 -4c0 -7 4 -7 6 -12c-1 -4 -8 -1 -7 -9c-2 0 -1 6 -1 9
c-14 4 -8 -17 -20 -14c-5 -19 -11 -33 -21 -42v-15c-21 -12 -16 -45 -34 -60c-1 -33 -20 -43 -17 -82c-11 -26 -11 -64 -20 -94l-6 -57c45 24 93 45 147 59z" />
    <glyph glyph-name="l_l" unicode="ll" horiz-adv-x="797" 
d="M646 618c1 -1 1 -4 1 -6c11 5 14 -10 23 -6c1 0 2 -2 1 -4c23 -3 32 -21 43 -38c11 1 6 -15 14 -19c2 -15 -6 -18 -6 -29c-18 -9 -30 -23 -48 -29c-1 -8 7 -1 6 -6v-4c4 -4 -12 -3 -3 -6c-6 -5 -12 -2 -19 -6c4 -9 -4 -6 -9 -9c7 -8 -10 -9 -17 -12
c2 -15 -11 -15 -15 -23c0 -2 4 0 4 -3c-5 -12 -20 -14 -31 -22c6 -3 0 -6 0 -12c-10 1 -11 -3 -19 -3c-1 -5 4 -5 6 -8c-1 -4 -8 -1 -7 -7c-2 0 -1 4 -1 7c-11 3 -6 -13 -16 -11c-4 -13 -8 -24 -18 -30v-10c-17 -10 -13 -33 -28 -44c-1 -24 -16 -31 -14 -58
c-10 -19 -10 -47 -17 -68c84 41 160 91 261 114c12 6 27 16 44 12c-5 -5 -6 -15 -15 -17c-1 -7 2 -9 4 -11c-5 -5 -8 -14 -17 -14c0 -9 2 -12 0 -20c-19 -3 -30 -4 -36 -19c-23 -7 -37 -23 -56 -32c-2 0 -2 -2 -2 -5c-10 -1 -19 -5 -23 -14c-16 -6 -29 -13 -36 -29
c-15 -3 -23 -13 -31 -24c-16 -2 -23 -14 -30 -26c-24 -10 -39 -29 -61 -42c-2 0 -7 -2 -6 3c-18 -8 -42 -8 -56 0c-13 -3 -32 12 -41 24c-13 3 -33 16 -39 27c-4 9 0 29 -6 38c8 24 1 57 14 76c-4 4 10 35 19 48c2 2 0 9 1 13c3 8 13 16 11 25h6c-8 10 9 13 6 27
c3 0 2 5 6 3c5 24 22 37 26 60h5c0 11 11 14 11 25c1 0 3 3 5 2c-1 10 5 10 3 19c10 -2 -1 9 10 6c2 26 25 30 28 55c9 -2 3 10 12 8c0 5 2 4 0 9c28 21 36 61 66 79c-1 4 3 4 1 9c5 -1 5 3 10 2v7c17 10 28 50 53 30c11 3 16 -4 23 -2zM256 88c12 8 26 20 42 15
c-4 -6 -7 -18 -15 -20c0 -7 1 -9 3 -11c-3 -7 -6 -17 -14 -18c-1 -8 1 -12 -1 -21c-18 -5 -29 -6 -36 -21c-21 -8 -36 -26 -55 -38c-1 0 -1 -2 -1 -4c-10 -3 -18 -7 -22 -16c-1 0 -2 0 -2 -1l-12 -10c-2 0 -4 -1 -5 0c-1 0 -2 -1 -2 -2l-1 5c-17 -8 -40 -7 -53 1
c-11 -4 -31 13 -38 27c-15 3 -34 18 -39 30c-4 12 0 34 -6 45c7 27 0 63 15 84c-6 6 8 41 17 55c2 2 0 10 1 14c3 10 13 19 12 30h4c-8 10 9 13 6 30c3 0 2 6 6 4c5 26 21 40 25 68h5c0 12 11 15 11 28c1 -1 3 2 5 2c-1 11 4 12 3 21c9 -2 -1 10 9 7c2 30 25 34 28 62
c9 -3 3 12 12 9c0 6 1 4 0 11c27 23 67 116 96 136c-1 5 2 5 1 10c5 -1 5 5 10 3v8c16 10 28 57 52 34c10 2 15 -5 21 -2c2 -2 2 -4 2 -7c10 6 13 -12 22 -8c1 0 1 -2 1 -4c22 -4 31 -24 42 -42c11 1 6 -18 14 -23c1 -17 -7 -21 -7 -33c-17 -10 -28 -25 -46 -32
c-2 -9 7 -2 6 -6v-5c2 -5 -13 -4 -3 -7c-6 -7 -12 -3 -19 -7c4 -11 -3 -8 -9 -11c6 -8 -41 -57 -48 -60c2 -17 -10 -17 -14 -26c0 -2 4 -1 4 -3c-6 -13 -21 -17 -31 -25c6 -4 0 -7 0 -14c-10 1 -11 -3 -19 -3c0 -6 5 -6 6 -10c-1 -3 -7 -1 -6 -7c-2 0 -1 4 -1 7
c-11 3 -6 -14 -16 -11c-4 -16 -9 -27 -17 -34v-13c-17 -9 -13 -36 -28 -49c-1 -26 -16 -35 -13 -67c-10 -21 -10 -52 -17 -76l-5 -46c37 19 76 36 120 47z" />
    <glyph glyph-name="E_E" unicode="EE" horiz-adv-x="1132" 
d="M1024 630v-2c-14 -9 -41 -4 -61 -10c-17 -22 -60 -75 -80 -132c57 -6 106 4 168 2c1 4 8 2 7 8c9 0 12 -3 20 -2c-2 -14 2 -23 15 -26c-8 -18 -32 -20 -42 -34c-46 -7 -88 -6 -128 -13c-27 4 -59 -9 -95 -9c-17 -23 -32 -47 -53 -67v-8c-5 0 -3 -6 -9 -5
c-16 -44 -44 -81 -54 -126c1 -13 -2 -42 5 -53c96 16 152 69 244 89c13 10 38 6 48 18c21 5 40 3 51 17c10 -2 12 -2 24 -2c-1 -8 -7 -7 5 -7c0 -8 1 -13 8 -13c5 2 -8 0 -4 7c20 -15 -20 -23 -24 -39c-10 0 -16 -5 -18 -13c-39 -12 -67 -35 -104 -49
c-51 -34 -103 -73 -186 -80c-7 -3 -27 -8 -30 0c-1 0 -1 -1 -1 -3c-24 9 -52 6 -68 26c-14 -3 -17 11 -28 17c-7 6 -21 12 -27 23c-5 7 -8 20 -12 29c-3 5 -8 9 -9 11c-3 8 -2 19 -3 27c-7 28 -7 50 3 78c4 12 13 26 16 37c3 6 0 14 9 15c2 19 16 44 23 56c-7 8 -18 9 -28 9
c-92 -4 -215 -8 -243 -13c-28 5 -62 -9 -99 -9c-18 -25 -34 -52 -55 -73v-9c-6 0 -4 -6 -10 -5c-17 -48 -46 -88 -56 -137c1 -14 -2 -45 5 -57c100 17 159 75 255 96c13 11 39 7 50 20c21 5 41 3 53 18c10 -2 12 -2 25 -2c-1 -9 -7 -8 5 -8c0 -8 1 -14 8 -14c1 0 1 1 1 1
c0 1 -9 0 -5 7c3 -3 5 -5 5 -7c4 -12 -27 -21 -30 -35c-10 0 -17 -6 -19 -15c-40 -13 -69 -38 -108 -53c-53 -37 -107 -79 -194 -86c-7 -4 -28 -9 -31 0c-1 0 -1 -2 -1 -4c-25 10 -55 7 -71 28c-15 -3 -18 12 -29 19c-8 6 -22 13 -29 25c-5 8 -8 22 -12 31
c-3 6 -9 10 -10 12c-3 9 -2 21 -3 30c-7 30 -7 54 3 84c5 13 14 28 17 40c3 7 0 15 9 17c3 20 13 30 20 43c-15 19 -49 16 -53 43c3 8 9 3 7 13c32 5 62 14 89 25v12c21 13 26 43 46 58c19 52 55 86 80 132c-3 6 -27 3 -32 -3c-24 1 -51 16 -65 38c10 19 33 20 59 28
c11 2 21 9 32 11c35 6 72 6 107 10c20 5 43 7 65 12c2 1 1 -4 2 -4c39 5 79 7 121 9c21 2 37 8 54 4c39 13 103 3 137 13c-4 -9 -11 -13 -21 -14c0 -5 9 -1 13 -3c-23 -12 -39 -32 -72 -35c-3 0 -2 -3 -3 -6c-43 -9 -67 -28 -123 -24c-14 -12 -45 -7 -67 -13
c0 -6 5 -6 10 -8c2 -39 -9 -65 -40 -76c-3 -11 -10 -16 -11 -28c-4 -1 -6 0 -6 4c-8 -5 7 -4 4 -11c-16 -2 -25 -12 -27 -28c-22 -6 -26 -32 -42 -45c60 -7 111 4 175 2c1 4 9 2 8 8c9 1 12 -3 21 -2c-3 -12 99 -7 146 -6v1c20 12 25 40 44 53c18 48 26 35 50 77
c-3 6 -26 3 -31 -3c-23 1 -49 15 -62 35c9 18 31 19 56 26c11 2 20 9 31 10c34 6 69 6 103 10c19 4 41 6 62 11c2 1 1 -4 2 -4c33 4 67 5 103 7v-2c37 7 88 1 118 9c-4 -8 -11 -12 -20 -13c0 -5 8 -1 12 -3c-22 -11 3 -26 -29 -29c-3 0 -42 -6 -43 -8c-17 -4 -30 -9 -43 -13
z" />
    <glyph glyph-name="e_e" unicode="ee" horiz-adv-x="822" 
d="M743 492v-2c-9 -5 -29 -2 -43 -6c-14 -16 -45 -56 -60 -98c42 -3 79 3 123 2c1 3 6 1 6 6c6 0 9 -2 14 -2c-1 -9 1 -16 11 -19c-6 -12 -23 -14 -31 -25c-33 -4 -63 -3 -93 -9c-20 3 -44 -7 -70 -7c-12 -16 -23 -34 -39 -48v-6c-4 0 -2 -5 -6 -4c-12 -32 -33 -59 -39 -93
c0 -9 -2 -30 2 -39c71 13 112 51 180 66c9 7 27 4 35 14c15 2 29 1 37 12c8 -2 9 -2 18 -2c-1 -6 -5 -5 3 -5c0 -5 1 -9 7 -9c3 1 -7 0 -4 4c15 -10 -14 -17 -17 -28c-8 0 -12 -4 -14 -10c-28 -8 -48 -25 -76 -36c-37 -25 -75 -53 -136 -58c-5 -2 -19 -6 -22 0
c-1 0 -1 -1 -1 -2c-17 7 -38 4 -50 19c-10 -3 -12 8 -20 12c-5 4 -16 9 -20 17c-4 5 -5 15 -8 22c-3 3 -7 6 -7 7c-3 6 -2 15 -3 20c-5 20 -5 37 3 58c3 8 10 19 11 26c2 5 0 11 7 12c1 13 12 32 17 41c-5 5 -13 6 -21 6c-67 -3 -157 -5 -178 -9c-20 4 -45 -7 -72 -7
c-14 -18 -25 -38 -40 -53v-7c-5 0 -3 -5 -8 -4c-13 -35 -33 -65 -41 -100c1 -10 -1 -33 4 -42c73 13 116 55 187 71c9 7 28 4 36 14c16 4 30 2 39 13c8 -2 8 -2 18 -2c0 -6 -5 -5 4 -5c0 -6 1 -11 6 -11c1 0 1 1 1 1c0 1 -7 0 -4 6c3 -3 4 -4 4 -6c2 -8 -21 -15 -22 -26
c-8 0 -13 -3 -14 -10c-29 -10 -51 -28 -79 -39c-39 -27 -79 -58 -143 -63c-5 -3 -20 -7 -22 0c-1 0 -1 -2 -1 -3c-18 8 -41 5 -52 20c-11 -2 -14 10 -21 14c-6 5 -16 10 -21 19c-4 5 -7 16 -10 22c-2 5 -6 8 -6 9c-3 7 -2 15 -3 22c-5 22 -5 40 3 62c3 9 9 20 12 29
c2 5 0 11 7 13c2 14 9 22 14 31c-11 14 -36 12 -39 32c3 6 7 2 6 9c22 4 44 11 64 18v9c16 10 19 31 34 43c14 38 41 63 59 96c-2 5 -20 3 -24 -2c-17 1 -37 12 -48 28c8 14 25 15 44 21c8 1 16 7 23 8c26 4 54 4 79 7c15 4 32 5 48 9c1 1 0 -3 1 -3c29 4 58 5 89 7
c15 2 27 5 40 2c28 10 75 2 100 10c-3 -7 -8 -10 -15 -10c0 -4 6 0 9 -2c-17 -9 -29 -24 -53 -26c-2 0 -1 -2 -2 -5c-32 -6 -49 -20 -90 -17c-10 -9 -33 -5 -49 -10c0 -4 3 -4 7 -5c1 -29 -7 -48 -29 -57c-2 -7 -8 -11 -8 -20c-3 -1 -5 0 -5 3c-6 -4 5 -3 3 -7
c-11 -2 -18 -10 -20 -21c-16 -5 -19 -24 -30 -34c43 -4 81 3 128 2c0 3 6 1 6 6c7 1 9 -2 15 -1c-2 -10 73 -6 107 -5v1c14 9 18 29 32 38c14 36 20 26 37 57c-2 4 -19 2 -22 -2c-17 1 -36 11 -46 25c7 14 23 15 41 19c8 2 14 7 23 8c25 5 50 5 75 8c14 3 30 4 46 7
c1 1 0 -3 1 -3c24 3 49 4 75 5v-1c28 5 65 1 87 7c-3 -6 -8 -9 -14 -10c0 -3 5 -1 8 -2c-16 -8 2 -20 -21 -21c-3 0 -31 -4 -32 -6c-13 -3 -22 -7 -32 -10z" />
    <glyph glyph-name="noname" unicode="Great&#x20;Fighter" horiz-adv-x="5978" 
d="M158 135c4 6 13 7 20 7c58 34 114 69 170 102c4 0 2 3 2 6c5 -3 5 2 11 2c4 12 21 12 25 25c21 8 36 16 47 31c19 7 37 18 47 32c17 7 25 17 27 35c0 1 -16 3 -14 -3c-27 10 -62 -14 -93 -8c-20 4 -35 8 -39 25c4 6 12 3 9 14c24 15 58 22 86 31c42 7 90 -7 112 14
c9 -4 12 4 12 -7c4 3 19 4 22 -3c1 0 1 3 1 6c20 -11 40 -7 62 -7c0 -23 23 -23 34 -24c-47 -34 -76 -86 -108 -133c-8 -33 -24 -55 -35 -83h-9c2 -13 -8 -17 -8 -28h-10c-1 0 0 -6 -1 -8c0 -4 4 5 8 2c-3 -10 -3 -32 -13 -58c-8 -15 -23 -29 -30 -43
c-9 -26 -18 -49 -20 -60c-10 0 -6 -15 -17 -13v-9c3 0 3 2 3 4c0 -5 -10 -13 -17 -19c0 -7 -1 -10 -9 -8v14c-4 -4 -12 -16 -5 -18c-7 -3 -18 2 -24 -3c-2 1 -2 5 -2 7c-6 -2 -11 -6 -13 -13c0 6 -5 7 -5 13c-9 -6 -16 -6 -23 0c-2 -6 4 -4 4 -6c1 -3 -10 2 -6 -5
c-11 5 -9 12 -11 25c-2 0 -2 -4 -3 -6c0 12 -7 14 3 21c-5 18 17 69 31 110c8 28 10 50 12 65c-23 -23 -46 -47 -75 -65c-4 -3 -4 -6 -4 -10h-9c-23 -30 -65 -45 -105 -56c-16 3 -27 8 -48 8c-3 6 -14 4 -21 6c-10 5 -34 1 -44 11c-8 12 -15 23 -32 23c-4 8 -14 15 -25 19
c-4 14 -6 24 -14 31c3 10 1 21 11 20c-3 -10 6 -14 -1 -21c9 -13 12 -34 32 -37c-3 52 -55 67 -49 136c0 3 -3 4 -6 4c6 3 7 13 6 17c10 0 3 16 14 16c-4 14 8 14 7 25c15 5 18 24 25 32c4 3 10 6 13 10c5 7 7 20 14 25c11 16 32 24 39 44c4 0 3 6 8 6c22 26 45 50 71 74
c7 11 18 21 33 25c2 3 2 6 3 10c27 14 46 43 75 56c5 14 28 21 46 35c17 12 100 59 118 70c7 6 13 6 21 10c10 5 18 13 27 17c2 2 2 -4 2 -4c5 2 9 7 12 9c4 4 12 2 18 5c10 4 17 15 21 8c3 7 18 0 22 7c3 2 6 -7 6 0c7 -1 10 -7 17 -1c3 -7 10 -10 18 -10
c10 -12 28 -16 44 -19c12 -16 40 -31 57 -46c3 -2 0 -8 0 -8c3 -1 6 0 6 0c10 -10 18 -29 6 -45c-26 -12 -64 -3 -92 -7c-11 0 -26 -11 -36 -12c-3 -2 0 1 -3 1c-6 0 -16 -3 -21 -4c-6 -3 -6 -4 -14 -6c-3 -2 -1 -5 -3 -5c-1 -2 -7 0 -11 0c-2 -2 -6 -12 -7 -2
c-6 -11 -24 -7 -30 -18c-4 -2 -1 1 -5 4c-17 -6 -90 -49 -106 -53c-3 0 -1 -2 -1 -6c-25 -4 -32 -24 -55 -29c-1 -7 -11 -7 -11 -16c-36 -18 -54 -53 -83 -76c0 -5 -2 -7 0 -12c-27 -27 -56 -51 -73 -90c-17 -7 -14 -38 -35 -42c0 -10 -6 -14 -7 -23c7 0 5 12 11 9
c-10 -17 -26 -42 -25 -77c7 0 10 4 15 1zM17 225c16 28 29 63 49 88c-2 2 -2 3 -3 3c-11 -15 -30 -27 -32 -52c-9 -7 -23 -27 -14 -39zM89 90c-8 -1 -4 7 -8 14c-10 1 -15 8 -24 14c2 -21 6 -13 9 -29c12 1 15 -6 23 1zM370 0c2 6 5 13 -2 13c4 -6 -5 0 -3 -7c3 0 3 -4 5 -6
zM384 25h-7c2 -9 -2 -19 5 -19c-2 8 2 10 2 19zM596 105c-5 7 -12 -15 0 -16c2 1 -4 8 3 7c3 5 -1 5 -3 9c6 -1 3 6 9 2c0 14 13 20 11 35c9 35 20 69 36 98c-6 4 6 10 3 20c12 26 17 59 34 76c6 22 25 33 28 55h4c0 19 21 23 16 43c5 4 7 13 13 18c-6 6 -15 -7 -20 2
c0 -3 -10 -6 -10 0c-3 -7 -7 1 -6 -3c-15 4 -33 4 -33 24c25 15 56 25 87 33c-3 6 -3 9 1 11c0 8 -5 4 -4 9c14 11 7 35 34 35c1 0 0 5 4 5c28 -3 38 -30 66 -29c25 13 70 11 102 22c2 0 3 -2 3 -2c40 7 82 -3 116 -13c11 -7 25 -11 36 -18c12 -12 22 -21 38 -25
c-2 -3 0 -6 4 -6c0 -3 5 -1 3 -8c5 1 4 -2 7 0c14 -21 39 -37 37 -71c2 -4 -5 0 -4 -4c-1 -4 4 -1 4 -8c-7 -17 -19 -34 -32 -49c-7 0 -12 -7 -19 -14c-24 -3 -31 -20 -49 -27c-5 -4 -9 -10 -20 -8c0 -6 -9 -3 -10 -9h-15c-2 0 -2 -1 -2 -4c-34 -7 -58 -25 -99 -22
c-2 -6 -9 -6 -16 -6c-1 0 0 -1 -1 -3c-18 -1 -36 -4 -48 -11c35 -38 57 -90 101 -121c1 -11 20 -20 14 -25c6 -3 17 -10 13 -17c0 -1 4 -1 5 -1c-1 -13 10 -27 -8 -33c0 -7 -2 -11 3 -14c-5 -4 -3 -9 -3 -19h-10c-2 -7 -2 -10 -5 -16c-19 16 -38 29 -53 48c-1 5 3 -4 5 -4
c0 14 -14 19 -20 35c-12 4 -12 21 -28 21c0 4 -3 5 -3 7c-4 0 -6 -2 -10 -2c-42 41 -81 82 -115 124h-14c-11 -25 -19 -49 -35 -66c-3 -4 3 -1 1 -4c-7 0 -4 -9 -8 -9c-7 -30 -18 -57 -21 -87c-8 0 -5 -8 -14 -8c3 -20 -14 -24 -20 -37c-7 -2 -5 0 -12 -5c-12 3 -20 3 -27 0
c3 5 0 8 3 14c-6 0 -3 -7 -10 -1c3 -8 0 -10 -1 -17c-3 4 0 9 -3 12c-7 -5 -4 -21 -10 -26c-7 0 -1 5 -6 5c-4 0 -1 -5 -3 -8c-5 -3 -1 3 -5 3c0 21 -6 40 4 53c-6 1 -4 7 -7 8c-6 -1 -13 -3 -21 -1c-7 3 -11 12 -17 21c4 7 4 -4 6 -5c10 11 13 31 17 49c4 -2 4 -16 -3 -18
c3 -4 14 3 12 -4zM925 334c17 2 27 13 44 14c11 7 25 9 36 20c32 7 49 28 73 43c-1 3 2 6 2 7c12 6 13 16 25 22c3 12 14 14 15 26c0 14 -8 30 -17 34c-5 3 -13 1 -21 3l-4 4c-21 9 -68 0 -80 -3c-4 0 -3 4 -6 3c-32 -6 -54 -10 -84 -20c1 -19 -12 -32 -15 -47h-6
c0 -3 0 -9 2 -13c-6 -2 -6 -9 -7 -14c-19 -15 -22 -41 -34 -59c-3 -6 -9 -6 -9 -17c-5 0 -7 -1 -7 -3c-1 -1 -5 -4 -8 -1c-3 -13 -14 -14 -20 -24c27 6 55 11 78 17c0 0 0 -3 1 -3c13 6 26 10 42 11zM1034 60c-4 3 -2 2 -2 9h-5c2 -4 2 -6 2 -7c1 0 3 -2 5 -2zM1564 167
c-7 0 -13 -4 -14 -12c-33 -7 -56 -23 -87 -34c-42 -25 -86 -54 -156 -59c-6 -2 -21 -6 -25 0v-2c-19 5 -44 3 -57 18c-10 -4 -14 8 -23 12c-6 6 -19 10 -22 19c-5 3 -7 15 -9 22c-3 3 -9 4 -10 7v19c-7 23 -7 38 0 60c5 8 12 19 14 26c3 4 0 10 7 13c1 11 10 21 16 29
c-13 13 -37 10 -41 30c2 5 5 1 4 7c24 4 50 11 72 18v8c15 9 21 30 38 40c12 36 41 59 61 91c-1 3 -22 3 -25 -3c-18 0 -38 11 -52 27c10 13 27 13 48 20c7 0 17 5 25 5c28 7 56 7 86 8c15 3 34 6 53 9c1 0 0 -3 1 -3c30 3 63 4 96 4c17 3 29 6 43 4c30 9 82 2 109 9
c-3 -7 -8 -9 -19 -9c0 -4 10 -1 11 -4c-18 -7 -29 -19 -56 -22c-3 0 -1 -1 -3 -5c-33 -5 -53 -18 -98 -16c-11 -7 -34 -3 -53 -9c0 -5 4 -5 7 -7c3 -25 -7 -43 -30 -50c-4 -7 -8 -12 -8 -19c-4 -1 -6 0 -6 2c-5 -3 6 -2 3 -7c-12 -2 -22 -8 -24 -21c-14 -3 -18 -21 -32 -30
c49 -4 89 3 142 2c0 4 7 1 4 7c7 0 10 -2 18 -2c-4 -11 2 -18 13 -19c-10 -16 -27 -17 -35 -27c-41 -4 -73 -3 -110 -8c-19 1 -49 -7 -77 -7c-14 -19 -27 -37 -43 -51v-5c-6 0 -4 -5 -10 -5c-13 -32 -34 -59 -41 -94c0 -11 -3 -29 2 -39c79 13 127 53 204 67
c10 7 30 6 40 14c16 2 32 2 42 10c7 -1 8 -1 18 -1c-1 -6 -4 -6 6 -6c0 -3 1 -8 7 -8c4 1 -7 0 -3 5c15 -11 -18 -15 -21 -28zM1991 427c0 0 -4 -2 -4 -3c0 -7 4 -26 -3 -33c-3 -6 3 -2 3 -6c-13 -27 -13 -62 -27 -83c7 -3 0 -7 -3 -14c0 -2 1 -10 0 -14
c-7 -10 -12 -35 -17 -45c-8 -6 -9 -19 -8 -32c-1 -6 -3 -10 -1 -20c-4 -20 -6 -39 -8 -61c-7 -5 -3 -24 -14 -26c0 -7 2 -7 4 -12c-5 4 -2 -4 -4 -4c-1 -2 -3 0 -5 2c-7 -18 -18 -32 -30 -46c-5 0 -8 -2 -12 -2c-2 -1 -2 -7 -2 -10c-12 -4 -15 -11 -30 -11
c-2 -7 -8 -12 -13 -18c-2 -2 -2 3 -6 4c-3 -4 -1 -9 -8 -9c-2 5 -4 11 -4 16c0 4 2 6 2 13c2 23 5 56 10 73c-3 7 6 26 7 38c-3 3 0 17 4 22c-11 6 -7 21 -7 31c-36 -8 -73 -20 -101 -35c-7 -4 -7 -14 -14 -21c-1 -3 -8 -5 -11 -9c-3 -3 0 -11 -4 -15h-3c-3 0 -3 -7 -3 -7
c-5 -7 -20 -8 -24 -12c-25 -2 -41 19 -62 27c-1 6 -1 9 -5 7c-6 57 33 83 42 131c3 0 4 0 6 1c9 27 31 45 38 72c15 10 18 31 34 38c5 14 15 18 19 34c21 15 34 39 54 57c-2 3 2 6 0 9h7c11 22 25 39 44 50c7 26 28 39 39 59c-2 9 0 16 3 20c6 0 25 -3 27 7
c21 -20 59 -22 83 -38c1 -9 8 -9 12 -14c-4 -11 0 -34 -4 -42c6 -20 2 -48 -1 -69zM1774 264c-4 -1 -4 -7 -12 -7c3 -1 3 -4 3 -5c-17 -15 -20 -41 -30 -57c20 2 41 2 62 7c2 -4 9 -1 21 -1c2 16 -3 35 4 51c-11 33 11 64 4 98c-11 -17 -22 -34 -36 -48
c-2 -16 -14 -22 -16 -38zM2419 663c33 -7 66 1 95 -10c16 3 30 -2 39 -10c-3 -4 -10 -14 -5 -22c-11 -2 -4 -9 -5 -16c-20 -2 -29 -15 -42 -7c-8 -8 -16 1 -29 0c-1 -3 -1 -4 -4 -4c-7 -3 -17 0 -21 -7c-24 -7 -48 4 -58 -7c-5 -1 -5 3 -12 0c-1 -7 -27 -8 -30 -7
c-8 -5 -21 -3 -27 -8c-2 -8 5 -9 8 -13c5 -25 0 -49 -23 -52c-8 -18 -45 -60 -53 -80c-8 -6 -14 -14 -15 -22c-15 -6 -13 -23 -23 -30c-7 -21 -21 -41 -27 -66h-5c-21 -59 -44 -119 -70 -181c4 -20 -3 -47 -2 -73c-5 1 -1 -4 -7 -3c9 -11 -10 -9 -7 -20c-10 0 -11 5 -18 8
c-3 0 4 -13 -3 -10c1 7 -7 10 -8 15c-3 -4 -13 3 -13 -5c-6 9 -18 1 -21 9c-4 2 -3 -4 -4 -4c-28 6 -33 32 -35 71c-7 29 -3 54 4 85c1 11 10 24 13 36c2 7 0 14 2 22c1 4 7 12 10 18c3 7 3 19 10 22c-3 20 15 27 11 41c10 10 11 28 20 35c4 7 0 16 7 17c0 0 -3 0 -3 4
c14 2 14 16 18 28c3 3 10 8 10 10c7 17 34 60 37 76c12 7 18 21 25 33c-19 0 -32 -12 -57 -8c-18 2 -33 10 -51 10c-20 19 -51 28 -62 56c13 14 46 9 64 20c41 7 81 15 120 25c1 -4 21 1 38 7c1 2 1 -3 1 -4c24 7 48 11 73 15c42 6 90 -1 121 6c4 -4 11 -4 14 0zM2826 49
c-16 30 -16 92 0 131c-3 8 6 31 18 38c0 5 -1 5 -3 5c9 13 12 33 23 43c7 36 37 57 48 95c3 1 7 4 10 8c-17 16 -69 23 -92 34c6 8 7 14 13 22c38 0 83 15 121 15c60 63 108 143 171 196c-69 10 -163 -26 -195 21c25 25 84 34 126 43c38 2 83 2 129 2c10 3 17 10 23 17
c22 -5 43 1 64 -15c116 -6 420 3 545 -7c-5 -2 -5 -7 -12 -7c0 -6 7 -6 7 -12c-6 -5 -12 -7 -6 -17c-17 3 -28 0 -29 -13c-27 -6 -58 -16 -89 -12c-3 0 0 -4 -3 -4c-8 4 -8 -3 -14 3c-8 1 -5 -3 -11 -3c0 1 -1 3 -3 3c-64 -9 -253 0 -323 -7c-7 -4 -11 -11 -21 -11
c-7 -10 -25 -12 -26 -27c-7 0 -7 -3 -15 -3c11 -7 -7 -8 -14 -14c-14 -7 -24 -16 -28 -24c-19 -6 -25 -21 -32 -38c-7 3 -3 -1 -7 -3c-13 -19 -32 -32 -48 -53c99 -1 194 0 301 0c-2 -4 4 -3 5 -4c12 3 22 -3 33 0c-6 -4 -20 -6 -33 -4c0 -3 2 -7 8 -7c-13 -2 -29 1 -38 -13
c-4 0 -7 0 -6 6c-7 -8 -21 -8 -34 -8c-1 -1 -1 -5 2 -5c-7 -2 -35 0 -42 -9c-19 0 -58 0 -81 -8v3c-16 -10 -46 0 -57 -8c-6 -2 -7 1 -10 1c-10 -7 -32 0 -39 -7c-4 0 -4 3 -4 4c-15 -8 -41 0 -55 -11v4c-9 -7 -17 -14 -17 -28c-11 -4 -11 -14 -19 -24c-1 -1 -12 -4 -13 -8
c-2 -3 4 -13 -6 -10c0 -3 4 0 4 -4c-21 -29 -32 -56 -42 -97c-6 0 -10 0 -12 -1c9 -19 -16 -36 -14 -44c-15 -14 -19 -39 -30 -49c0 -19 4 -39 -10 -46c3 -22 -10 -50 -43 -50c-2 -3 -11 -1 -9 -8c-7 -2 -18 -2 -21 -7c-27 12 -48 28 -60 52c11 -2 11 -10 15 -16zM3611 579
c14 0 28 0 35 -7c7 1 14 -7 23 -7c5 -2 18 0 21 -2c1 0 1 -4 4 -4c11 -9 18 -10 25 -24v-18c-7 -6 -11 -14 -22 -14c0 -10 -7 -17 -16 -21c-3 -3 0 -6 -3 -7c-11 -7 -18 -13 -22 -23c-4 2 -3 -5 -8 -4c-20 -42 -55 -72 -69 -112c-9 -7 -16 -16 -17 -28h-7
c-1 -20 -16 -27 -16 -48c0 0 -2 -1 -4 -1c-17 -54 -37 -98 -49 -154h-3c-12 -22 -29 -40 -41 -63c-9 6 -22 27 -28 34c-5 9 -11 21 -16 29c5 4 -2 7 5 7c-10 15 -14 27 -10 54c-2 1 -5 0 -5 1c-2 13 0 41 5 56c0 3 -2 3 -4 3c0 4 6 3 6 6c-4 18 14 24 10 42c9 0 5 14 15 15
c5 23 20 33 25 54c0 5 6 5 6 12c10 2 5 21 18 23c0 10 9 11 10 20c11 1 4 22 17 22v11c11 0 4 13 17 14c19 52 63 90 94 135c4 3 4 0 4 -1zM3718 139c4 3 11 6 18 6c48 25 94 52 142 80c4 0 1 1 1 4c6 0 4 1 7 1c4 9 20 9 23 20c17 6 30 13 39 24c17 4 28 15 38 27
c14 1 22 11 24 25c0 1 -14 3 -13 -3c-22 7 -50 -10 -77 -4c-17 1 -30 4 -31 18c1 5 10 5 7 13c20 11 46 18 70 22c35 6 76 -4 94 12c10 -5 10 4 11 -6c3 1 16 4 18 -2c2 0 2 2 2 3c14 -8 31 -4 51 -4c-2 -17 19 -18 28 -20c-39 -25 -65 -66 -91 -103c-6 -23 -19 -44 -27 -64
h-8c0 -12 -7 -14 -7 -22h-9s0 -5 -3 -7c3 -4 4 4 10 2c-7 -20 -25 -29 -27 -52c-8 0 -5 -9 -14 -8v-8c3 0 3 0 3 4c0 -5 -10 -12 -15 -15c0 -6 -2 -8 -7 -8v11c-3 -2 -13 -13 -7 -13c-6 -3 -13 2 -17 -3c-3 1 -3 3 -3 5c-3 -2 -9 -4 -10 -9c0 4 -4 5 -4 9
c-8 -4 -14 -4 -21 0c-1 -4 4 -2 4 -4c0 -3 -8 2 -5 -5c-9 5 -7 11 -9 20c-1 0 -1 -2 -1 -3c-3 8 -6 10 1 15c-7 24 7 34 10 62c-20 -20 -38 -38 -63 -52c-2 0 -2 -3 -3 -6h-7c-20 -25 -55 -38 -87 -45c-14 2 -24 7 -41 6c-3 5 -10 3 -17 3c-8 7 -28 4 -39 9
c-4 11 -11 19 -24 19c-6 8 -11 14 -22 16c-3 11 -4 19 -11 25c1 5 1 15 11 14c-4 -7 3 -9 -3 -16c7 -11 10 -25 26 -28c-1 41 -45 51 -40 106c-2 1 -3 4 -5 4c3 1 5 9 5 12c7 3 3 11 11 11c-1 13 7 13 6 22c12 4 15 18 22 26c3 3 9 4 10 7c6 7 7 16 11 20c10 11 28 18 34 35
c3 0 1 4 8 3c16 21 36 41 58 56c7 12 14 18 27 21c1 3 1 7 1 10c25 10 39 31 62 43c5 13 25 16 42 27c12 9 28 21 43 29c7 3 11 3 19 7c8 3 15 13 21 14c1 2 1 -1 1 -1c6 0 7 5 11 7c3 0 10 0 16 2c7 3 14 12 18 5c1 6 15 2 17 7c4 2 6 -7 6 0c5 -1 8 -5 15 -1
c1 -6 7 -8 15 -8c10 -9 22 -12 34 -16c12 -13 35 -24 49 -36c0 0 -1 -5 0 -5c0 -1 4 0 4 0c9 -8 16 -22 3 -36c-17 -9 -50 0 -73 -3c-10 0 -21 -10 -31 -11c-1 -2 0 1 -1 1c-7 0 -14 -4 -19 -4c-4 -3 -4 -3 -11 -4c-4 -2 -1 -6 -4 -6c-1 -1 -4 0 -8 0c-2 -1 -3 -8 -6 -1
c-4 -7 -21 -6 -25 -13c-3 -1 -3 3 -4 3c-14 -4 -21 -13 -37 -16c-3 0 -3 -1 -3 -3c-18 -4 -23 -20 -43 -23c-2 -6 -7 -6 -7 -13c-31 -14 -48 -40 -70 -60c0 -3 -2 -6 -2 -9c-22 -21 -46 -40 -59 -70c-16 -7 -11 -29 -31 -35c0 -7 -5 -11 -7 -17c7 0 6 7 12 6
c-10 -13 -23 -31 -20 -58c4 -1 4 0 10 0zM3603 208c11 24 23 49 39 70c-1 2 -1 3 -1 3c-9 -14 -27 -21 -28 -42c-7 -6 -20 -21 -10 -31zM3662 104c-7 -3 -6 5 -7 10c-7 2 -13 7 -20 11c2 -16 4 -9 7 -24c10 3 13 -1 20 3zM3923 107c0 7 3 13 -3 13c3 -6 -4 0 -3 -6
c2 -2 2 -5 6 -7zM3934 128h-6c0 -7 -2 -14 4 -14c-1 7 2 7 2 14zM4584 221c0 -4 3 2 6 0c0 -3 0 -3 -2 -3c-5 0 0 -4 -1 -7c3 -1 3 3 4 4c7 -7 -3 -10 -3 -14c0 0 -1 1 -4 1c0 -1 -3 -12 6 -11c-6 -1 -7 -7 -10 -10c0 -1 7 2 4 -4c-1 -3 -4 -4 -10 -7c2 -3 2 -4 0 -7
c0 -2 3 -2 3 0c4 -8 -3 -15 -3 -21c-5 0 -5 13 0 13c-4 4 -7 4 -7 6c-10 -4 -11 -12 -17 -19c7 0 7 3 20 0c0 -4 -3 -10 -4 -17h-12c8 -4 -1 -7 0 -14c-5 3 -7 -2 -12 -2c11 -5 -1 -9 7 -16c-7 3 1 -7 -8 -3c9 -7 -6 -4 1 -14c-14 0 -7 -16 -18 -14c1 5 1 12 7 14
c-7 6 -7 -6 -11 -11c0 2 0 4 -3 4c-3 -6 -13 -21 -10 -28c-10 1 -7 -7 -10 -11c-4 -2 -4 3 -4 4c-6 0 -6 -9 -7 0c-7 -6 -7 -18 -19 -21c2 -7 0 -13 -2 -18c-13 11 -3 21 -10 32c8 15 4 38 10 59c14 6 10 25 10 38c7 4 4 15 11 21c-7 3 0 -4 -7 -3c12 15 3 39 18 49
c-3 7 -4 13 0 14c0 6 -6 3 -10 3c7 22 17 42 25 62c-26 0 -63 10 -86 3c-4 0 -6 0 -6 1c-18 -8 -35 -1 -48 -11c-25 0 -48 0 -62 -10c-3 0 -3 6 2 4c-7 2 -21 0 -24 -4c-23 0 -27 -14 -38 -21c8 -14 -10 -30 -12 -45c-5 0 -6 -4 -10 0c4 -4 5 -10 5 -17c-5 -1 -10 -1 -10 -4
c3 -5 5 1 9 1c1 -8 -13 -10 -9 -15c-2 -4 -17 1 -11 -7c-10 3 -14 0 -16 -6c-12 0 -12 -5 -19 -5c-2 -16 -20 -23 -23 -38c-11 -3 -9 -4 -11 -10c-3 0 -3 3 -3 4c-5 -4 -7 -8 -9 -16c-12 0 -16 -7 -27 -9c-4 14 -4 21 1 31c0 16 16 29 8 52c6 0 3 7 9 7c2 26 14 42 16 66
c0 2 -3 2 -3 4c-16 -4 -27 5 -38 11c18 14 52 17 68 37c-2 4 -2 7 -2 12c0 1 -3 0 -7 0c1 3 4 3 1 7h8c0 10 -5 17 5 16c0 26 12 56 28 77c-2 28 18 39 25 60h3c-5 9 9 14 7 23c14 5 15 12 15 21c10 -2 5 7 12 7c1 15 19 23 21 42c16 11 26 25 38 38c46 1 87 -20 111 -49
c-4 -13 -6 -24 -20 -27c-8 -17 -14 -34 -25 -45c0 -7 0 -11 -10 -11c-3 -7 -3 -19 -10 -24c-8 -25 -30 -42 -39 -66c-7 -3 -10 -7 -9 -17c-12 -4 -12 -14 -12 -22c-8 0 -6 -7 -16 -9c51 9 131 20 190 9c3 0 3 4 3 4c9 -3 22 -7 35 -6c4 10 7 30 14 44c-6 5 7 18 7 27
c-7 -5 -7 -12 -11 -16c-6 4 7 17 8 23c0 -2 -1 11 4 11c2 28 2 -14 3 11c11 4 8 18 14 21c0 4 -3 3 -3 7c4 -1 4 3 9 3c-2 4 -5 3 -2 7c10 7 7 24 20 29c4 24 29 39 39 62c11 3 25 8 40 4c5 -7 8 -8 19 -8c3 -11 20 -10 23 -22c0 -2 1 -2 5 -2c2 -6 3 -11 9 -14
c-2 -24 -20 -35 -23 -56c-10 -6 -10 -14 -11 -27c-7 -6 -9 -15 -9 -28c-12 -10 -12 -25 -22 -34c2 -7 -4 -7 0 -18c-14 -8 7 25 -4 14c0 -1 0 -4 3 -9c-5 1 -5 -2 -10 0c4 -6 1 -6 4 -12c-11 3 0 -8 -11 -7v-3c-2 -4 0 -12 -2 -19c-1 -2 -7 -3 -11 -6c-1 -7 -1 -15 -8 -18
c0 -4 4 1 5 -3c-4 -3 -18 -3 -8 -11h-10v-6c6 7 0 0 11 0c-5 -4 -8 -7 -6 -14c-9 1 -9 0 -15 0c6 -10 2 -6 0 -13c0 -1 6 0 7 -1c6 0 -4 7 6 4c0 -1 0 -3 2 -7c-9 3 -6 -1 -9 -1c-3 -2 -4 0 -4 1c-2 0 -2 -3 -7 -3c1 0 1 -2 1 -2zM4451 23h-3c1 4 -6 11 1 11
c2 -4 2 -7 2 -11zM4455 55c0 -7 -7 -10 -4 -19c-6 6 1 12 -2 19h6zM4449 58c3 4 0 11 6 14c0 -3 -3 -12 -6 -14zM4456 78c-1 -2 -5 14 0 14c3 -6 -4 -6 0 -14zM4456 109c3 -4 3 -8 -1 -9c1 5 -3 9 3 12c1 6 4 -5 -2 -3zM4459 114c-4 6 3 10 0 14c8 -4 -1 -7 0 -14zM4472 170
c-5 4 0 11 0 14c6 0 -1 -8 0 -14zM4476 187c-4 1 -1 7 -1 8c0 3 3 -7 1 -8zM4478 214c-2 4 0 4 4 4c-3 0 4 -7 -4 -4zM4486 232c0 -3 -2 -9 -4 -11c-4 2 2 5 -3 11h7zM4486 233c-7 0 0 10 0 11c5 -1 1 -8 0 -11zM4518 358c0 4 7 3 3 6c6 -2 4 -7 -3 -6zM4531 313
c-4 2 -3 7 -6 7c3 -5 -7 -5 -1 -7c0 3 3 -1 7 0zM4547 177c2 -3 -6 -1 -1 -7c3 -1 4 6 1 7zM4566 111h-6c-3 3 -3 5 -3 7c3 0 6 0 5 2c1 -2 0 -6 4 -9zM4577 229c0 -19 -15 -32 -4 -55c1 3 -3 9 3 7c-6 14 8 21 0 30c5 4 4 12 11 18h-10zM4590 257c-2 3 1 3 1 6
c-4 0 -11 0 -10 -6c6 3 2 2 9 0zM4622 320c0 6 3 -1 8 0c-1 3 2 3 2 6c-3 0 -3 1 -7 1c1 -5 0 -1 -3 -1c0 -3 -7 -3 0 -6zM5097 675c32 -9 56 -11 85 -22c17 3 30 -2 40 -10c-4 -4 -12 -14 -6 -22c-9 -2 -4 -9 -6 -16c-18 -2 -28 -15 -39 -7c-10 -8 -18 1 -31 0
c0 -3 -1 -4 -1 -4c-10 -3 -20 0 -24 -7c-24 -7 -45 4 -58 -7c-5 -1 -5 3 -8 0c-4 -7 -30 -8 -32 -7c-9 -5 -23 -3 -29 -8c0 -8 4 -9 7 -13c6 -25 0 -49 -20 -52c-10 -18 -46 -60 -53 -80c-10 -6 -15 -14 -18 -22c-11 -6 -10 -23 -22 -30c-7 -21 -19 -41 -23 -66h-7
c-21 -59 -46 -119 -71 -181c3 -20 -5 -47 -3 -73c-6 1 -2 -4 -7 -3c10 -11 -7 -9 -7 -20c-9 0 -9 5 -17 8c-4 0 3 -13 -4 -10c1 7 -3 10 -6 15c-1 -4 -14 3 -15 -5c-6 9 -17 1 -20 9c-3 2 -1 -4 -3 -4c-27 6 -33 32 -35 71c-8 29 -4 54 2 85c1 11 12 24 13 36c2 7 0 14 2 22
c1 4 7 12 11 18c2 7 2 19 10 22c-1 20 14 27 11 41c10 10 10 28 23 35c1 7 0 16 5 17c0 0 -4 0 -1 4c10 2 10 16 15 28c3 3 9 8 10 10c6 17 34 60 38 76c10 7 24 54 31 65c-17 0 -84 -29 -108 -25c-18 2 -28 22 -47 22c-20 18 -43 26 -56 54c14 14 89 16 106 27
c42 7 82 7 122 17c0 -4 20 1 36 5c2 2 2 0 3 -2c22 5 49 4 75 7c42 5 87 -5 117 2c4 -4 11 -4 15 0zM5327 167c-7 0 -13 -4 -13 -12c-35 -7 -56 -23 -87 -34c-43 -25 -87 -54 -156 -59c-5 -2 -22 -6 -24 0v-2c-21 5 -44 3 -56 18c-14 -4 -16 8 -26 12c-6 6 -16 10 -22 19
c-4 3 -7 15 -9 22c-3 3 -9 4 -9 7c-1 4 -1 14 -1 19c-6 23 -6 38 1 60c4 8 11 19 14 26c3 4 0 10 7 13c3 11 10 21 15 29c-11 13 -37 10 -41 30c4 5 7 1 5 7c25 4 50 11 70 18v8c19 9 22 30 38 40c16 36 44 59 64 91c-2 3 -22 3 -26 -3c-19 0 -40 11 -52 27
c9 13 28 13 47 20c9 0 16 5 25 5c28 7 58 7 87 8c14 3 32 6 52 9c1 0 1 -3 1 -3c30 3 63 4 96 4c17 3 29 6 43 4c30 9 83 2 111 9c-4 -7 -11 -9 -19 -9c0 -4 8 -1 12 -4c-19 -7 -32 -19 -59 -22c-1 0 -1 -1 -1 -5c-35 -5 -55 -18 -98 -16c-13 -7 -37 -3 -55 -9
c0 -5 4 -5 10 -7c1 -25 -7 -43 -33 -50c-1 -7 -7 -12 -8 -19c-3 -1 -4 0 -4 2c-8 -3 5 -2 4 -7c-16 -2 -23 -8 -25 -21c-16 -3 -20 -21 -31 -30c45 -4 87 3 140 2c0 4 6 1 6 7c7 0 8 -2 15 -2c-1 -11 2 -18 13 -19c-10 -16 -27 -17 -34 -27c-40 -4 -74 -3 -109 -8
c-21 1 -51 -7 -78 -7c-15 -19 -29 -37 -45 -51v-5c-4 0 -2 -5 -7 -5c-14 -32 -37 -59 -44 -94c0 -11 -2 -29 4 -39c78 13 126 53 203 67c10 7 30 6 40 14c18 2 32 2 43 10c7 -1 9 -1 17 -1c-1 -6 -3 -6 6 -6c0 -3 0 -8 7 -8c4 1 -7 0 -3 5c15 -11 -18 -15 -21 -28zM5316 105
c-7 7 -10 -15 0 -16c1 1 -3 8 4 7c1 5 -3 5 -4 9c5 -1 4 6 8 2c0 14 11 20 10 35c10 35 22 69 38 98c-6 4 5 10 4 20c10 26 14 59 34 76c5 22 22 33 28 55h3c0 19 19 23 14 43c5 4 7 13 14 18c-6 6 -14 -7 -20 2c0 -3 -10 -6 -10 0c-1 -7 -7 1 -7 -3c-13 4 -32 4 -33 24
c26 15 57 25 88 33c0 6 -3 9 1 11c2 8 -4 4 -1 9c10 11 7 35 29 35c3 0 2 5 6 5c29 -3 36 -30 65 -29c28 13 73 11 103 22c2 0 3 -2 3 -2c39 7 82 -3 117 -13c10 -7 23 -11 36 -18c11 -12 21 -21 38 -25c-2 -3 0 -6 3 -6c0 -3 6 -1 4 -8c3 1 3 -2 5 0c17 -21 40 -37 36 -71
c3 -4 -3 0 -3 -4s6 -1 6 -8c-7 -17 -19 -34 -32 -49c-9 0 -14 -7 -19 -14c-25 -3 -31 -20 -51 -27c-3 -4 -8 -10 -18 -8c0 -6 -11 -3 -11 -9h-14c-1 0 -1 -1 -1 -4c-35 -7 -58 -25 -100 -22c-3 -6 -10 -6 -14 -6c-3 0 -3 -1 -3 -3c-18 -1 -36 -4 -49 -11
c37 -38 59 -90 102 -121c2 -11 20 -20 14 -25c6 -3 16 -10 13 -17c0 -1 3 -1 5 -1c-2 -13 7 -27 -9 -33c0 -7 -1 -11 4 -14c-7 -4 -4 -9 -4 -19h-9c-1 -7 -1 -10 -5 -16c-21 16 -38 29 -52 48c-3 5 1 -4 1 -4c2 14 -11 19 -16 35c-13 4 -16 21 -30 21c0 4 -3 5 -3 7
c-4 0 -5 -2 -8 -2c-42 41 -82 82 -117 124h-14c-8 -25 -18 -49 -36 -66c-3 -4 4 -1 3 -4c-7 0 -3 -9 -10 -9c-6 -30 -17 -57 -23 -87c-4 0 -3 -8 -10 -8c2 -20 -15 -24 -20 -37c-7 -2 -6 0 -13 -5c-10 3 -17 3 -27 0c4 5 3 8 4 14c-5 0 -4 -7 -8 -1c1 -8 0 -10 -3 -17
c-4 4 0 9 -4 12c-10 -5 -4 -21 -11 -26c-6 0 -2 5 -6 5s-1 -5 -1 -8c-6 -3 -2 3 -6 3c0 21 -4 40 3 53c-4 1 -3 7 -6 8c-5 -1 -12 -3 -20 -1c-7 3 -11 12 -16 21c4 7 4 -4 5 -5c7 11 11 31 17 49c2 -2 3 -16 -1 -18c0 -4 11 3 10 -4zM5643 334c19 2 28 13 46 14
c10 7 24 9 36 20c32 7 46 28 74 43c-2 3 0 6 0 7c12 6 14 16 25 22c1 12 13 14 16 26c0 14 -10 30 -18 34c-5 3 -12 1 -19 3c-2 0 -4 4 -4 4c-23 9 -68 0 -82 -3c-4 0 -4 4 -7 3c-31 -6 -53 -10 -83 -20c2 -19 -12 -32 -14 -47h-6v-13c-4 -2 -4 -9 -5 -14
c-21 -15 -24 -41 -35 -59c-3 -6 -10 -6 -9 -17c-5 0 -5 -1 -7 -3c-1 -1 -4 -4 -7 -1c-1 -13 -16 -14 -22 -24c28 6 55 11 80 17c0 0 0 -3 1 -3c13 6 26 10 40 11zM5754 60c-4 3 -2 2 -2 9h-5c0 -4 1 -6 0 -7c3 0 5 -2 7 -2z" />
    <glyph glyph-name=".notdef" 
 />
    <glyph glyph-name="NULL" horiz-adv-x="0" 
 />
    <glyph glyph-name="NULL" horiz-adv-x="0" 
 />
    <glyph glyph-name="CR" unicode="&#xd;" 
 />
    <glyph glyph-name="space" unicode=" " 
 />
    <glyph glyph-name="E" unicode="E" horiz-adv-x="587" 
d="M540 221c21 -16 -21 -25 -25 -42c-10 0 -17 -6 -19 -15c-40 -13 -69 -38 -108 -53c-53 -37 -107 -79 -194 -86c-7 -4 -28 -9 -31 0c-1 0 -1 -2 -1 -4c-25 10 -55 7 -71 28c-15 -3 -18 12 -29 19c-8 6 -22 13 -29 25c-5 8 -8 22 -12 31c-3 6 -9 10 -10 12
c-3 9 -2 21 -3 30c-7 30 -7 54 3 84c5 13 14 28 17 40c3 7 0 15 9 17c3 20 13 30 20 43c-15 19 -49 16 -53 43c3 8 9 3 7 13c32 5 62 14 89 25v12c21 13 26 43 46 58c19 52 55 86 80 132c-3 6 -27 3 -32 -3c-24 1 -51 16 -65 38c10 19 33 20 59 28c11 2 21 9 32 11
c35 6 72 6 107 10c20 5 43 7 65 12c2 1 1 -4 2 -4c39 5 79 7 121 9c21 2 37 8 54 4c39 13 103 3 137 13c-4 -9 -11 -13 -21 -14c0 -5 9 -1 13 -3c-23 -12 -39 -32 -72 -35c-3 0 -2 -3 -3 -6c-43 -9 -67 -28 -123 -24c-14 -12 -45 -7 -67 -13c0 -6 5 -6 10 -8
c2 -39 -9 -65 -40 -76c-3 -11 -10 -16 -11 -28c-4 -1 -6 0 -6 4c-8 -5 7 -4 4 -11c-16 -2 -25 -12 -27 -28c-22 -6 -26 -32 -42 -45c60 -7 111 4 175 2c1 4 9 2 8 8c9 1 12 -3 21 -2c-3 -15 2 -25 15 -28c-8 -19 -33 -21 -44 -37c-48 -7 -91 -6 -133 -14
c-28 5 -62 -9 -99 -9c-18 -25 -34 -52 -55 -73v-9c-6 0 -4 -6 -10 -5c-17 -48 -46 -88 -56 -137c1 -14 -2 -45 5 -57c100 17 159 75 255 96c13 11 39 7 50 20c21 5 41 3 53 18c10 -2 12 -2 25 -2c-1 -9 -7 -8 5 -8c0 -8 1 -14 8 -14c6 2 -8 0 -4 8z" />
    <glyph glyph-name="F" unicode="F" horiz-adv-x="732" 
d="M-5 54c8 -2 8 -11 14 -16c-17 32 -17 98 0 138c-4 10 7 35 21 44c0 3 -2 3 -5 3c10 15 13 35 25 48c9 39 39 62 51 100c4 3 8 6 11 10c-19 17 -48 25 -74 37c7 8 9 13 14 23c41 1 65 15 106 16c63 68 113 153 182 211c-74 10 -173 -28 -210 21c30 28 91 37 136 48
c43 1 89 2 140 1c9 5 18 11 23 18c25 -5 46 2 71 -16c124 -6 299 4 432 -7c-5 -3 -6 -8 -13 -8c0 -6 8 -7 8 -12c-5 -5 -12 -8 -6 -19c-18 3 -30 -1 -31 -14c-30 -5 -63 -17 -96 -12c-3 0 0 -5 -4 -5c-8 5 -8 -3 -14 4c-9 2 -4 -5 -11 -4c0 2 -1 3 -3 4
c-71 -11 -122 0 -197 -8c-8 -4 -11 -12 -23 -12c-7 -12 -26 -14 -28 -30c-7 1 -8 -2 -14 -2c11 -6 -9 -8 -17 -14c-14 -8 -25 -18 -29 -28c-20 -6 -27 -22 -34 -38c-8 1 -5 -3 -9 -4c-13 -21 -35 -35 -49 -56c104 -2 207 0 322 0c-2 -6 4 -5 5 -7c12 4 23 -2 36 1
c-7 -5 -21 -6 -36 -5c1 -4 2 -8 9 -7c-14 -3 -31 1 -41 -14c-5 0 -8 1 -7 5c-7 -6 -23 -6 -37 -7c-1 -2 -1 -5 2 -5c-7 -3 -37 -1 -44 -11c-22 1 -63 0 -87 -7v4c-17 -12 -49 0 -62 -11c-7 -1 -9 2 -11 3c-11 -8 -35 0 -42 -8c-3 0 -4 2 -4 4c-15 -9 -43 0 -58 -11v4
c-10 -9 -19 -17 -20 -32c-12 -3 -12 -15 -19 -23c-2 -3 -12 -6 -14 -10c-1 -4 5 -14 -6 -11c0 -2 4 -1 4 -4c-22 -32 -35 -61 -46 -103c-5 0 -9 -1 -11 -2c9 -20 -19 -39 -16 -48c-16 -15 -19 -42 -33 -54c-1 -18 5 -40 -11 -47c3 -25 -9 -53 -46 -54c-1 -4 -11 -1 -9 -8
c-8 -2 -17 -3 -21 -8c-30 12 -53 29 -64 55z" />
    <glyph glyph-name="G" unicode="G" horiz-adv-x="677" 
d="M145 129c7 -1 9 3 16 2c4 6 12 8 21 8c62 34 123 72 183 108c3 0 2 3 2 5c6 -1 5 3 10 2c5 15 25 14 29 27c21 9 38 18 50 34c21 7 38 20 50 35c17 5 28 17 30 36c-1 3 -18 5 -17 -2c-29 10 -66 -14 -99 -8c-21 3 -38 8 -42 26c4 6 14 4 10 15c26 17 61 24 93 34
c44 7 95 -8 120 15c10 -5 11 4 12 -8c6 2 22 5 24 -4c2 1 2 4 2 6c20 -12 42 -7 66 -8c-1 -22 25 -23 37 -25c-52 -34 -83 -90 -118 -142c-7 -34 -24 -60 -36 -89h-10c1 -14 -9 -19 -10 -30h-9c-3 -1 -1 -6 -3 -8c1 -5 4 4 11 2c-9 -26 -31 -39 -35 -70c-9 0 -5 -15 -17 -12
v-10c4 -1 4 1 4 4c0 -6 -12 -15 -19 -20c0 -7 -2 -11 -10 -10v15c-4 -3 -14 -17 -7 -18c-7 -4 -18 2 -25 -4c-2 1 -2 5 -2 7c-6 -2 -12 -5 -13 -14c-1 6 -5 8 -5 14c-11 -5 -18 -6 -27 0c-2 -5 4 -3 5 -6c1 -4 -10 2 -7 -5c-10 5 -8 14 -10 26c-3 0 -3 -3 -4 -5
c-1 12 -7 13 4 22c-11 30 8 45 12 83c-26 -25 -51 -50 -82 -69c-3 -2 -3 -7 -4 -10h-10c-25 -34 -70 -51 -112 -61c-17 3 -30 9 -51 8c-3 7 -14 5 -23 6c-12 7 -36 3 -47 11c-9 15 -17 27 -35 26c-6 10 -14 18 -27 22c-3 13 -6 25 -15 33c3 9 2 23 14 21
c-5 -11 5 -15 -2 -23c10 -14 12 -35 32 -39c-1 57 -58 72 -51 145c-1 2 -3 4 -6 4c5 4 8 13 6 19c10 1 3 16 14 16c-3 15 10 15 8 28c16 5 19 24 27 34c4 5 11 7 15 12c6 8 8 19 14 26c13 16 34 27 42 48c6 0 3 6 10 5c22 28 47 56 75 78c8 14 20 24 35 29c2 2 2 7 3 11
c31 15 49 45 80 60c6 15 31 23 52 37c17 13 38 28 58 40c9 5 13 5 23 10c11 4 20 15 29 19c2 1 2 -4 2 -4c5 1 8 8 13 10c4 2 13 1 19 4c11 4 19 17 23 8c3 8 20 1 23 9c4 2 6 -9 7 0c7 -2 10 -8 18 -3c3 -8 10 -10 20 -10c12 -12 29 -16 46 -21c14 -17 43 -33 63 -49
c1 -1 -1 -6 0 -6c1 -2 5 0 6 0c10 -12 19 -33 5 -52c-26 -11 -67 -1 -98 -5c-11 -1 -27 -11 -39 -14c-2 -1 -1 3 -2 3c-7 0 -18 -5 -24 -7c-5 -2 -5 -3 -13 -6c-4 -1 -3 -5 -4 -6c-3 -1 -8 1 -12 0c-2 -1 -6 -11 -7 -2c-6 -11 -27 -8 -33 -19c-4 -2 -2 3 -6 4
c-17 -6 -28 -17 -47 -20c-3 0 -2 -3 -2 -6c-25 -5 -33 -26 -57 -31c-2 -8 -11 -8 -11 -18c-39 -19 -59 -56 -90 -82c0 -5 -3 -6 -1 -12c-29 -28 -60 -55 -77 -96c-20 -8 -15 -42 -38 -47c0 -10 -6 -14 -8 -22c7 0 5 10 12 8c-10 -19 -28 -46 -26 -82zM24 269
c-9 -9 -25 -29 -15 -44c18 31 31 68 52 96c-1 2 -1 4 -3 4c-12 -18 -31 -29 -34 -56zM435 95c-1 9 3 12 3 20h-8c1 -8 -3 -20 5 -20zM61 80c13 1 18 -5 26 2c-9 -2 -5 8 -8 13c-11 3 -17 11 -28 15c3 -20 6 -12 10 -30zM416 95c3 -1 3 -5 6 -7c1 7 5 15 -2 15
c3 -6 -6 -1 -4 -8z" />
    <glyph glyph-name="H" unicode="H" horiz-adv-x="639" 
d="M512 462c5 -2 2 -11 -5 -9c-1 7 7 3 5 9zM447 297c4 -3 0 -12 -2 -15c-7 0 1 12 2 15zM438 281h6c-1 -6 -4 -12 -6 -16c-5 3 2 8 0 16zM438 263c-3 -2 1 -11 -7 -9c-1 7 2 9 7 9zM419 215c7 -1 -3 -12 -3 -18c-3 4 3 13 3 18zM367 37c3 0 3 -1 6 -1c-1 -9 -9 -11 -8 -22
c-5 7 4 14 2 23zM364 9v-14h-4c1 4 -4 15 4 14zM552 269v-4c0 -5 3 2 7 0c0 -1 -1 -2 -2 -2c-6 1 -2 -9 -5 -12c4 -1 4 3 7 5c6 -8 -6 -11 -6 -18c-1 1 -1 4 -3 4c-1 -4 -8 -19 2 -17c-6 -2 -9 -9 -13 -14c0 -4 8 2 5 -5c-2 -5 -8 -8 -15 -9c0 -4 0 -10 -2 -12
c0 -3 5 -3 5 0c2 -8 -8 -18 -9 -25c-5 1 -4 15 2 17c-2 3 -6 3 -7 6c-10 -5 -13 -15 -21 -22c9 -1 9 1 22 -1c-2 -9 -7 -16 -9 -27h-13c8 -4 -4 -10 -2 -19c-5 5 -9 -1 -13 -2c9 -7 -3 -13 4 -19c-6 1 -1 -10 -9 -6c7 -10 -7 -7 -1 -20c-16 0 -12 -22 -26 -19
c3 8 5 17 13 19c-8 7 -11 -8 -15 -14c-1 1 0 4 -3 4c-4 -8 -20 -29 -16 -39c-13 3 -10 -8 -14 -14c-5 -2 -4 3 -4 7c-5 0 -7 -14 -7 0c-9 -9 -10 -25 -24 -29c0 -12 -4 -18 -7 -26c-12 13 0 31 -6 43c13 21 15 54 25 81c17 10 15 35 18 52c8 8 9 21 16 31c-6 2 -2 -6 -7 -3
c15 19 11 51 28 65c0 10 0 18 3 22c1 4 -6 1 -8 2c12 28 26 55 39 83c-29 -1 -67 15 -96 3c-4 0 -6 1 -5 4c-21 -11 -40 -3 -56 -16c-27 0 -51 0 -69 -14c-5 1 -2 8 3 6c-7 3 -24 1 -28 -6c-25 0 -32 -18 -46 -28c4 -18 -18 -39 -23 -64c-6 1 -8 -4 -12 0c3 -4 4 -11 3 -20
c-5 -2 -12 -2 -12 -8c3 -7 5 2 9 1c1 -10 -15 -11 -12 -18c-2 -5 -17 2 -12 -9c-12 4 -18 -1 -21 -10c-12 1 -13 -7 -23 -7c-6 -22 -24 -31 -30 -52c-13 -1 -12 -5 -16 -12c-3 0 -2 3 -2 5c-7 -5 -11 -12 -14 -21c-14 -2 -19 -11 -32 -13c0 20 0 30 8 41c3 23 23 40 20 73
c7 0 5 10 11 9c8 35 25 57 32 89c0 4 -4 2 -4 5c-19 -5 -26 8 -39 15c22 21 62 26 82 50c0 8 0 13 2 17c0 2 -4 1 -7 1c1 3 3 5 2 9h7c2 15 -2 24 10 23c6 37 25 76 45 105c4 37 30 53 40 83h6c-4 12 12 20 13 32c13 4 17 14 21 28c8 -2 4 9 12 8c6 24 28 33 34 57
c19 15 33 35 49 52c50 3 92 -28 111 -66c-5 -16 -10 -32 -26 -37c-11 -21 -22 -44 -39 -61c0 -8 -1 -15 -10 -15c-6 -12 -8 -26 -19 -32c-13 -35 -40 -59 -56 -93c-8 -3 -12 -10 -12 -19c-14 -7 -16 -21 -18 -33c-9 -1 -9 -11 -19 -13c59 12 149 28 211 13c2 -1 2 4 2 4
c11 -2 24 -8 37 -7c10 14 16 42 26 60c-5 9 12 24 13 38c-8 -6 -9 -17 -14 -25c-5 8 11 28 14 35c-1 -2 -1 14 7 12c8 38 31 53 39 88c12 5 11 23 20 30c1 5 -6 2 -4 9c6 -1 7 3 11 3c0 7 -2 6 0 11c13 10 12 32 27 39c12 35 40 56 57 85c13 4 29 11 45 6c4 -8 9 -11 19 -13
c1 -15 20 -12 21 -28c0 -2 2 -2 5 -2c1 -9 2 -17 7 -22c-6 -31 -29 -45 -37 -76c-10 -6 -13 -20 -16 -36c-11 -8 -15 -21 -18 -37c-13 -13 -17 -35 -30 -47c1 -11 -5 -12 -4 -24c-17 -12 -20 -39 -35 -53v-13c-4 1 -4 -2 -9 -1c2 -6 0 -6 2 -13c-11 3 -2 -14 -13 -10
c4 -9 2 -2 -1 -7c-3 -4 -3 -16 -7 -25c-3 -4 -9 -6 -12 -9c-4 -10 -5 -18 -15 -25c-1 -5 6 4 7 -2c-5 -5 -19 -5 -13 -16h-10v-7c9 8 0 0 10 -1c-5 -5 -8 -11 -10 -21c-7 3 -9 -1 -15 -1c5 -10 1 -5 -1 -14c0 -3 6 -1 7 -3c5 -1 -2 9 6 6v-9c-7 3 -5 -2 -8 -3s-4 1 -4 3
c-2 -1 -3 -5 -8 -4zM556 276h-10c-4 -26 -26 -43 -19 -74c2 4 0 11 7 9c-5 20 14 30 7 41c7 5 7 17 15 24zM614 410c1 -4 -8 -5 -2 -8c2 9 6 -3 11 0c-2 4 3 4 2 8c-3 0 -3 2 -6 2c0 -9 -1 -2 -5 -2zM502 391c1 5 4 -2 8 0c-2 2 1 9 -3 9c2 -6 -11 -6 -5 -9zM556 316
c7 5 2 1 10 0c-1 3 2 4 2 7c-6 0 -14 0 -12 -7zM497 197c5 -2 8 8 4 9c1 -5 -7 -3 -4 -9zM423 232c3 3 3 -12 0 -15c-4 2 0 12 0 15zM395 139c7 -7 -4 -11 -3 -18c-5 6 4 11 3 18zM506 127c1 -2 -1 -8 1 -12h-6v9c2 0 5 0 5 3zM390 117c3 6 2 -7 -4 -5c4 -5 3 -9 -3 -13
c4 8 -1 13 7 18zM383 89c2 -8 -6 -8 -3 -18c-3 -3 -3 19 3 18zM376 62c1 -5 -3 -18 -9 -20c6 5 4 16 9 20z" />
    <glyph glyph-name="I" unicode="I" horiz-adv-x="242" 
d="M257 741c4 1 5 -1 5 -4c16 0 34 0 42 -9c12 3 20 -11 31 -13c9 -2 21 3 29 -2c1 0 1 -5 2 -5c17 -10 27 -15 37 -33v-22c-10 -8 -15 -19 -30 -20c0 -16 -7 -24 -19 -28c-2 -7 0 -8 -2 -12c-12 -5 -21 -15 -26 -28c-7 3 -4 -6 -10 -5c-22 -56 -65 -99 -83 -152
c-10 -10 -18 -24 -20 -41h-6c-1 -28 -21 -35 -19 -65c-1 0 -3 -1 -5 -1c-18 -70 -41 -133 -52 -208h-6c-13 -29 -33 -55 -48 -87c-13 6 -30 37 -39 46c-4 13 -14 29 -20 40c8 5 -4 9 4 11c-13 19 -18 36 -17 70c-1 2 -6 0 -6 4c-2 16 -1 55 4 76c1 2 -2 2 -4 2c0 6 7 4 7 9
c-7 24 16 30 12 57c10 2 5 20 16 22c4 30 24 43 29 72c2 6 8 7 6 17c14 3 6 28 22 31c1 13 12 14 10 29c16 1 6 30 23 30v11c12 3 3 19 19 21c23 72 74 122 114 187z" />
    <glyph glyph-name="J" unicode="J" horiz-adv-x="518" 
d="M405 241h-6c1 -10 -18 -16 -14 -35c-14 -16 -27 -33 -33 -58c-5 2 -3 -5 -10 -4v-9h-10c-3 -4 0 -3 0 -8c-10 -1 -11 -10 -23 -10c2 -6 -3 -7 -1 -14c-5 1 -4 -4 -11 -2c4 -23 -21 -19 -22 -44c5 2 12 1 10 9c5 -1 2 -9 3 -12c-12 -2 -23 -3 -25 -14c-3 0 -3 2 -4 4
c-4 -9 -13 -12 -18 -20c-24 1 -45 -17 -71 -21c2 8 0 14 -10 12c7 5 15 3 22 0c3 0 2 4 2 6c-15 7 -30 -2 -45 -2c3 -18 22 -9 29 -15c-37 -12 -64 23 -89 15c-7 9 -23 0 -31 9c1 9 4 -1 6 -2c9 13 -19 6 -18 18c-2 -2 -4 -6 -10 -4v12c-3 1 -3 -2 -3 -4
c-7 11 -17 18 -17 35c-3 -1 -3 -5 -6 -4c-8 6 -9 14 -9 22c-1 -1 -1 -4 -6 -3c-4 9 8 14 0 17c-1 6 8 2 5 9c4 -3 0 -14 4 -19c4 1 12 -2 9 4c5 -4 0 -19 13 -14c-5 17 -19 33 -10 57c2 -1 4 -11 8 -4c1 -2 -1 -13 2 -19c2 -6 14 -1 10 -12c28 -2 34 -25 53 -34
c2 -1 2 4 2 4c15 -5 26 -7 46 -8c3 2 4 3 4 7c-1 4 -11 0 -16 1c13 11 40 11 53 22v-8c1 2 4 2 6 2c-2 2 -5 2 -4 6c9 2 14 10 16 18c5 -3 10 -7 12 2c-2 7 -1 -6 -5 -2c-1 6 5 5 12 5c20 27 42 51 54 85c11 2 17 19 13 30c0 2 2 -1 5 0c18 38 44 69 55 113
c-5 -3 -3 -12 -12 -11c24 28 30 74 55 102c3 30 26 42 26 75c6 -1 4 5 8 5c5 40 33 76 46 117c-21 -3 -53 -15 -72 -27c-17 -3 -33 -7 -45 -14c-40 -1 -65 -20 -101 -8c-3 8 -15 7 -25 10c2 8 0 14 -7 13c-1 7 3 9 1 17c23 13 49 24 69 40c40 10 71 40 110 43c3 1 -1 3 0 7
c30 8 62 14 93 22c-2 -6 10 -2 23 -9c3 -2 5 -9 9 -12c5 -2 11 0 15 -1c4 -3 6 -10 9 -12c4 -2 8 1 11 0c2 -2 1 -7 4 -8c3 -3 9 0 12 -2c1 -1 25 -18 28 -22c7 -8 15 -28 19 -35c13 -23 -3 -51 -8 -77c-14 -9 -13 -31 -29 -39c4 -25 -15 -30 -18 -49h-7
c0 -20 -8 -29 -19 -38c-4 -19 -11 -34 -26 -41c0 -3 6 -1 4 -8c-9 0 -9 -7 -17 -8c0 -21 -14 -30 -21 -39c0 -1 4 -3 4 -2c-5 -9 -18 -11 -16 -28c-13 5 -6 -11 -17 -10c3 -2 5 -5 8 -9c-3 -8 -1 5 -7 2c-9 -10 -10 -23 -17 -34c-2 -1 -8 0 -9 -1c-1 -3 1 -7 0 -9
c-2 -3 -6 0 -8 -4c-3 -5 4 -7 0 -15zM275 74h-7c0 -3 -2 -5 -3 -6c6 -1 11 -1 10 6zM364 206c-3 6 4 12 -1 17c-2 -8 -4 -13 1 -17zM253 52c5 7 19 5 20 14c-13 3 -26 -5 -20 -14zM59 26h7c2 8 -10 8 -7 0zM126 24c-3 0 -4 3 -7 2c8 -8 28 -2 7 -2zM265 243
c3 4 -1 -16 -6 -18c-6 6 6 11 6 18zM251 217c4 -9 -9 -19 -14 -26c2 12 11 15 14 26zM214 154c-3 -1 0 8 4 6c4 20 5 -3 -4 -6z" />
    <glyph glyph-name="K" unicode="K" horiz-adv-x="543" 
d="M290 485c13 0 27 16 45 19c35 35 87 51 118 89h10c15 16 40 23 53 42c26 8 45 23 66 36c3 -3 5 -4 7 -6c44 3 77 -34 107 -58c-2 -4 1 -5 2 -7c-6 -14 -20 -20 -35 -22c-8 -9 -27 -16 -42 -22c-22 -9 -43 -25 -63 -34c-1 -1 -1 4 -1 4c-5 0 -22 -12 -29 -17
c-13 -10 -36 -22 -44 -37c-12 0 -14 -10 -25 -12c-32 -26 -74 -42 -101 -74c-11 -1 -21 -4 -21 -16c-3 -1 -4 2 -4 4c-22 -33 -67 -43 -84 -81c29 -24 66 -41 109 -49c7 -11 20 -14 37 -14c3 -10 16 -10 26 -12c8 -8 18 -15 32 -16c20 -16 43 -25 62 -42c-2 -1 -3 -3 -2 -5
c-15 5 -24 -11 -29 -4c-33 -22 -74 6 -99 21c-8 -3 -34 16 -46 14c-5 0 3 4 0 8c-9 2 -9 -5 -15 -6c-8 10 -25 13 -38 20c-3 -1 -1 -4 -4 -4c-19 5 -26 23 -52 22c1 5 -6 4 -3 11c-14 -6 -27 18 -36 28c-12 0 2 -13 -12 -12c5 -18 -10 -29 -8 -51c-3 0 -4 -3 -7 -2
c-1 -33 -19 -63 -29 -91h-9c-2 -24 -13 -40 -29 -50c0 -12 -2 -23 -14 -23c-1 2 -2 5 -1 9c-4 -2 -7 -6 -7 -15c-7 10 -18 1 -20 -10c-12 6 -18 -7 -22 -13c-12 2 -18 0 -25 -5c0 5 0 12 -2 14c-7 -5 6 -21 -6 -21c-7 29 -13 58 -8 91c4 -1 5 0 8 1c5 155 71 264 118 378h6
c7 20 15 38 26 53c5 21 12 41 27 51c1 15 9 22 15 31c-1 1 -4 1 -3 5c4 0 7 2 11 4c10 31 34 46 44 77h5c12 31 40 44 58 68c4 -1 5 0 5 4c7 0 14 1 16 -4c16 6 32 -17 53 -18c9 -15 26 -23 40 -32c6 -22 1 -58 -23 -61c-25 -38 -58 -67 -74 -112c-19 -3 -19 -36 -34 -46z
" />
    <glyph glyph-name="L" unicode="L" horiz-adv-x="571" 
d="M384 732c2 -2 2 -5 2 -8c12 7 16 -13 28 -7c1 -1 2 -3 1 -6c28 -4 40 -25 52 -46c14 2 8 -19 18 -24c2 -18 -8 -22 -8 -36c-21 -10 -36 -27 -58 -35c-2 -9 9 -2 8 -6v-5c3 -6 -16 -5 -4 -8c-8 -7 -16 -3 -25 -8c5 -11 -3 -8 -10 -11c8 -9 -12 -11 -22 -14
c3 -19 -12 -19 -17 -28c0 -3 5 -1 5 -4c-7 -15 -26 -18 -39 -27c8 -4 0 -7 0 -15c-12 1 -14 -4 -22 -4c-1 -6 4 -6 6 -10c-1 -4 -9 -1 -8 -8c-2 0 -1 5 -1 8c-14 3 -8 -15 -20 -13c-5 -16 -11 -29 -22 -37v-13c-21 -11 -16 -40 -34 -53c-2 -29 -21 -38 -18 -72
c-11 -23 -11 -57 -20 -83c103 51 196 112 321 139c14 8 33 21 53 16c-6 -7 -8 -19 -18 -22c-1 -7 1 -10 4 -12c-5 -7 -9 -18 -20 -19c-1 -10 2 -13 -1 -23c-22 -5 -36 -6 -44 -23c-28 -9 -45 -28 -69 -40c-2 0 -2 -3 -2 -6c-12 -2 -23 -7 -28 -17c-19 -8 -36 -16 -45 -35
c-18 -5 -28 -17 -37 -31c-20 -2 -29 -17 -37 -32c-29 -12 -48 -36 -75 -51c-3 0 -9 -3 -8 4c-21 -10 -51 -10 -68 0c-16 -4 -40 14 -50 29c-17 4 -41 19 -48 33c-5 12 0 36 -8 48c10 29 1 69 18 92c-6 6 11 44 23 59c2 3 0 12 1 16c4 10 15 20 14 31h6c-9 11 12 15 8 33
c4 0 2 7 8 4c6 29 26 44 31 74h7c0 13 12 16 12 31c2 -1 4 3 7 2c-2 11 6 12 4 23c12 -2 -2 11 12 8c3 32 31 37 35 67c10 -3 4 12 14 9c0 7 2 5 0 12c34 25 45 75 82 96c-2 6 3 6 1 12c6 -1 6 4 12 2v9c21 12 35 62 66 37c12 3 19 -5 27 -2z" />
    <glyph glyph-name="M" unicode="M" horiz-adv-x="594" 
d="M441 309c1 9 2 17 3 25c-8 0 -6 -10 -13 -11c-5 0 3 4 0 8c-8 -10 -16 -20 -19 -38c-13 0 -9 -20 -21 -20c-9 -31 -23 -59 -45 -73c-3 0 -3 -3 -3 -6c-94 -39 -202 -5 -189 107c-10 -14 -23 -45 -19 -61c-12 -17 -17 -45 -30 -63c5 -5 -6 -30 -10 -40c1 -2 3 -1 2 -4
c-5 -8 -8 -18 -7 -31c-11 -21 -7 -50 -22 -70c-24 -16 -50 -28 -75 -14c-9 14 -29 31 -21 46c-6 49 22 100 29 148c10 6 2 22 13 29c31 119 79 219 139 303c7 33 35 45 42 79c21 11 25 44 46 56c4 14 17 17 18 35c29 10 75 24 96 17c26 14 49 -8 58 -24
c2 -66 -33 -118 -43 -164c-2 -3 2 -3 4 -3c-10 -4 -5 -24 -15 -29c-3 -7 6 -1 3 -9c-21 -37 -28 -92 -41 -138c36 47 74 94 109 145c19 16 34 37 47 59c32 29 59 66 92 96c2 16 15 20 19 36c11 2 20 6 33 6c2 0 2 4 2 6c33 -7 91 13 115 -6c-4 -5 -2 -16 -4 -26
c-25 -26 -40 -68 -59 -104c-5 1 -4 -4 -9 -2c-4 -30 -24 -41 -29 -69c-16 -12 -22 -33 -32 -53c-18 -13 -14 -50 -35 -60c4 -10 -3 -18 -7 -29c-4 -14 -7 -32 -12 -43c-2 -1 -6 -1 -7 -3c-5 -12 -3 -34 -16 -36c-9 -33 -17 -73 -30 -95c8 -11 0 -28 -9 -34
c5 -11 -4 -37 -10 -44c1 -21 -5 -78 -22 -106c1 -2 4 0 4 -4c-2 -6 -6 -7 -7 -13c-5 0 1 11 -1 15c-7 -6 -14 -10 -15 -22c-6 -1 -6 7 -5 14c-12 -13 -25 -23 -32 -40c-10 0 -13 -5 -20 0c-4 -1 -1 -11 -5 -12c-6 9 -13 -6 -11 9c-5 -2 -2 -11 -3 -16c-9 -1 -6 31 -1 31
c-12 10 -5 40 0 57c0 3 -3 3 -4 0c1 64 20 130 46 175c-3 4 1 15 10 16c-10 15 9 35 6 57c11 8 9 36 22 40z" />
    <glyph glyph-name="N" unicode="N" horiz-adv-x="614" 
d="M595 408c-16 -31 -27 -68 -32 -107c-11 3 -3 -9 -10 -9c-2 -6 6 0 4 -7c-8 -19 -16 -41 -15 -67c-18 -46 -28 -97 -45 -146c-25 -19 -39 -48 -71 -63c1 9 -7 -7 -12 4c-4 0 -3 -6 -7 -8c-20 -1 -35 5 -55 4c-21 16 -42 37 -58 61c-7 27 -14 53 -25 72c0 4 6 3 5 7
c-18 57 -24 189 -20 264c-8 2 0 -7 -9 -6c-8 -45 -38 -82 -37 -129c-2 0 -4 -1 -7 -1c3 -24 12 -48 -11 -66c0 -5 0 -9 2 -13c-20 -16 -30 -55 -38 -85c3 -29 -6 -47 -4 -74c-17 -11 -33 -22 -53 -30c-24 6 -41 2 -71 0c-21 8 -41 15 -54 33c2 32 11 60 15 91
c8 5 5 -5 11 -2c2 7 -7 2 -5 10c50 221 250 579 295 613c16 23 104 -1 154 -11c0 -4 5 -13 -2 -12c4 -2 4 -9 4 -15c-13 -101 -26 -199 -58 -287c8 -14 -12 -57 -2 -75c-13 -28 6 -74 -5 -98c10 -6 -5 -20 7 -27c-5 -27 4 -43 8 -71c17 49 24 109 40 159c4 4 3 0 10 2
c-2 2 -6 1 -5 5c13 14 6 45 21 58c-2 -9 -3 -21 -5 -34c5 0 7 6 11 7c-1 30 27 63 28 91c6 2 22 32 17 36c12 2 11 23 21 33c-5 -4 -4 10 0 15c7 2 4 -4 3 -7c8 4 4 6 2 11c12 13 17 33 27 48c-15 -6 -21 -35 -34 -48c3 35 33 49 38 83c15 6 20 21 23 35c22 14 26 42 32 67
c22 9 32 -11 54 -1c3 -5 6 -12 3 -19c5 -6 14 -6 17 -15c-3 0 -6 0 -7 -3c10 1 4 -18 12 -20c3 14 9 23 15 32c0 -9 -8 -28 -18 -36c-12 -45 -40 -78 -55 -121c-26 -21 -20 -67 -44 -90c1 -15 -10 -20 -5 -38zM585 621c3 4 10 13 5 17c2 -9 -13 -12 -5 -17zM449 313
c0 -4 -4 -3 -5 -1c-1 -6 3 -7 2 -12c9 2 8 9 13 14c-11 -1 -8 5 -9 13c-11 3 -4 -15 -1 -14z" />
    <glyph glyph-name="O" unicode="O" horiz-adv-x="520" 
d="M67 58c-1 12 0 12 -4 22c-30 28 -48 68 -61 116h3c-12 13 -2 52 -12 75c10 12 4 26 6 50c3 1 3 5 6 5c10 87 52 136 76 207h5c6 19 12 37 28 43c17 41 45 71 72 99c15 11 42 49 62 57c20 7 67 3 92 -7c2 -1 2 4 2 4c14 -10 35 -14 52 -20c20 -45 53 -74 64 -131
c4 -2 7 -6 14 -6c-12 40 -29 93 -62 117c15 -5 36 -22 42 -44c0 -4 7 -1 8 -4c4 -22 17 -33 16 -63c6 -1 1 -15 10 -13c-8 -3 -3 -14 0 -18c-7 -3 0 -27 6 -41c2 0 2 5 2 9c3 -14 4 -65 -5 -75c2 -46 -17 -84 -21 -117c8 6 4 26 16 28c2 -1 -6 -9 -2 -16
c-20 -13 -9 -45 -30 -55c-8 -27 -16 -48 -36 -64c-8 -34 -31 -50 -38 -84c-16 -12 -26 -29 -36 -48c-22 -18 -45 -36 -67 -53c-18 -1 -33 -8 -47 -15c-6 -3 -2 7 -8 4c-47 -17 -112 7 -153 38zM388 492c-2 7 5 11 4 16c-3 35 -27 92 -49 109c-9 -6 -19 -13 -25 -25
c-25 -17 -53 -34 -66 -66c-15 1 -15 -16 -21 -25c-3 -3 -8 -2 -11 -4c-4 -6 0 -14 -4 -21c-2 -4 -9 -4 -12 -9c-5 -9 -1 -27 -13 -27c-3 -18 -7 -30 -16 -39c-3 -35 -24 -52 -24 -92c-11 -23 -4 -84 -4 -123c6 -34 19 -60 29 -89c10 3 9 -8 16 -9c25 15 47 33 62 59
c30 18 41 56 66 78c-1 7 4 7 2 14c19 14 24 42 40 59c3 29 19 42 18 73h6c2 10 -1 23 6 25c1 5 -3 5 -4 8c8 26 4 71 0 88z" />
    <glyph glyph-name="P" unicode="P" horiz-adv-x="637" 
d="M12 56c-10 -2 -6 -16 -3 -19c-4 0 -4 2 -8 2c0 -24 -13 -35 -20 -55c-7 1 1 18 -8 17c4 25 -9 59 8 77c0 -6 -6 -19 -4 -22c9 17 4 45 20 56c2 7 -7 3 -6 8c15 29 22 85 39 120c2 5 -4 3 -3 6c10 11 11 38 21 46c-1 1 6 24 13 40c3 7 12 12 16 20c6 15 -1 26 10 37
c4 6 10 10 18 21c0 2 -3 1 -6 2c22 44 55 110 90 153c-26 27 -48 53 -54 97c1 5 13 9 7 15c65 16 120 52 181 60c4 0 1 7 3 10c9 -9 26 10 33 -3c44 11 75 5 114 3c16 -6 29 -9 51 -13c25 -16 50 -32 80 -46c-1 -2 -1 -5 -2 -7c42 -24 61 -71 66 -130c8 -21 3 -57 -8 -87
c-9 -24 -26 -40 -34 -56c-9 -1 -14 -6 -18 -14c-6 3 -4 -8 -14 -5c-31 -29 -65 -56 -108 -71c-34 -26 -75 -27 -112 -54c-28 -9 -50 -15 -80 -26v4c-42 -10 -96 -18 -146 -15c-19 -31 -22 -61 -37 -97c3 -5 -7 -11 -6 -27h-7c1 -19 -17 -18 -14 -29c-14 -2 -19 -19 -22 -35
c-5 -6 -1 8 0 10c-2 0 -6 -8 -6 -1c-6 -11 -15 -20 -20 -32c-5 16 -20 -9 -29 -14c-4 13 5 36 5 54zM549 606c1 5 -2 6 2 13c-8 5 -13 15 -18 21c-25 18 -84 26 -122 -1c-3 -16 -18 -15 -24 -29c5 0 8 1 8 -1c-12 3 -6 -12 -14 -13h-8c-57 -69 -94 -136 -147 -211
c-2 -8 -4 -22 -12 -20c-2 -10 -8 -17 -11 -27c38 9 69 26 108 31c55 28 106 56 159 84c23 24 48 38 72 57c7 13 14 23 21 35c-5 18 4 52 -14 61zM40 238h4c5 8 -4 4 0 11c1 0 4 0 3 3c-6 2 -6 -7 -7 -14zM17 178c3 -6 -6 -21 1 -23c4 14 26 35 16 50c7 1 12 17 8 22
c-12 -10 -9 -39 -25 -49zM5 69c12 7 12 46 12 58c8 0 4 14 7 20c-2 0 -3 4 -5 0c-4 -17 -17 -52 -14 -78z" />
    <glyph glyph-name="Q" unicode="Q" horiz-adv-x="553" 
d="M451 550c-1 -8 4 -10 6 -13c-1 5 0 12 -6 13zM501 683h-5c-3 -15 9 -13 6 -27c-4 -2 -6 -5 -13 -5c4 -6 1 -7 1 -10c0 -1 6 -4 6 -7c3 -8 -8 -28 5 -27c-5 -2 -4 -6 -7 -8c11 -16 12 -29 7 -53c-8 -2 -4 9 -5 13c-3 -2 -1 -9 -6 -10c25 -34 -14 -71 -11 -110h6
c5 5 -1 24 9 30c2 -23 -19 -42 -7 -57c-7 -8 -10 -19 -18 -25c8 -19 0 -53 -16 -59c5 3 8 8 9 14h-6c-6 -13 -6 -31 -18 -38c0 -17 -14 -43 -27 -45c-2 -7 -2 -9 0 -16c-8 10 -13 -12 -21 -14c4 -27 -31 -46 -44 -68c21 -5 60 3 66 -5c5 7 24 4 28 0c30 14 65 -5 85 -22
c-7 -7 -9 -10 -21 -19c-1 -1 -1 -6 -2 -6c-19 -13 -55 -12 -84 -17c-1 0 -1 5 -1 5c-13 -2 -27 -5 -35 -6c-7 -2 -12 -9 -18 -9c-9 -1 -16 2 -19 -7c-30 6 -36 -17 -61 -17c-2 -7 -17 -1 -16 -12c-12 2 -17 -3 -21 -8c-13 -5 -31 -7 -38 -17c-6 -1 -10 1 -16 0
c-41 -8 -74 -25 -119 -13c-6 2 -9 10 -14 13c-12 6 -27 6 -39 10c-7 3 -11 12 -18 9c-2 7 -4 14 -9 17c-1 12 14 7 13 21c35 0 53 17 81 25c-48 29 -78 77 -89 145c6 57 17 109 35 153c-11 4 -4 -12 -13 -10v8c-4 -2 -2 -9 -11 -5c24 39 37 89 71 118c1 15 11 21 18 28
c28 38 56 79 94 107c26 38 66 62 101 91c19 1 39 -2 52 0c0 -6 10 1 6 -6c18 -4 33 2 35 -9c3 0 1 6 4 6c41 -13 89 -19 113 -52c-4 -1 -3 3 -3 6zM393 662c0 -3 1 -8 -2 -8c-26 0 -39 -32 -66 -38c-10 -16 -24 -31 -41 -40c-1 -4 -3 -8 -3 -13c-26 -13 -36 -43 -61 -57
c-4 -12 -11 -24 -23 -31c-14 -37 -41 -59 -45 -107c-17 -24 -27 -66 -33 -105c-6 -43 4 -80 21 -107c37 -14 57 16 90 23c-2 6 3 5 2 10c27 19 39 53 63 74c5 18 15 27 28 35c1 9 3 17 10 19c1 11 4 18 12 21c1 4 -3 4 -4 6c7 5 9 15 11 24c12 -5 12 20 21 26
c6 24 6 41 20 53c3 35 12 61 4 99c6 1 6 8 8 13c-5 22 -2 52 -6 74c13 -29 13 23 -6 29zM418 422c11 18 7 44 14 63h6c-2 6 -1 14 -6 17c13 39 3 81 8 120c-4 2 -6 -6 -8 0c0 4 5 2 4 6c-13 0 -6 23 -18 23c5 -31 6 -62 12 -92c-11 -48 -22 -106 -29 -153c14 0 5 27 16 29
c-4 -8 7 -2 6 -6c-4 0 -5 -2 -5 -7zM414 597c5 4 4 19 -3 23c1 -7 -4 -23 3 -23zM487 590c2 10 -2 12 -7 15c1 -6 -1 -16 7 -15zM39 284c-1 14 5 22 3 37c5 25 18 62 18 78c-4 -8 -5 -19 -13 -25c-5 -20 -12 -42 -19 -61c-1 -24 -11 -23 -7 -44c-10 -5 -11 -20 -11 -30
c0 -12 7 -24 5 -37c17 -24 29 -65 54 -71c-10 11 -14 31 -23 43c2 7 11 -4 9 5c-3 13 -8 24 -13 33c-9 -10 9 -20 2 -29c-3 3 -3 9 -8 10c2 34 -12 66 3 91z" />
    <glyph glyph-name="R" unicode="R" horiz-adv-x="701" 
d="M680 483c-34 -17 -59 -50 -101 -62c-11 5 -23 -5 -28 -8l-1 5c-7 -2 -11 -9 -17 -11s-20 1 -21 -8c0 4 -5 6 -11 4c-68 -26 -138 -53 -202 -86c11 -13 30 -17 38 -33c6 2 6 -2 11 -2c8 -8 18 -25 30 -35c3 -3 7 -1 11 -5c2 -2 4 -9 6 -12c20 -15 39 -42 61 -66
c22 -27 47 -44 62 -71c2 -3 0 -7 2 -9c8 -11 26 -32 20 -39c1 -7 12 -13 8 -19c-17 8 -40 2 -58 -13c-19 7 -31 23 -40 43c-16 10 -28 25 -35 43c-5 -1 -4 4 -9 2c-6 14 -12 25 -24 31c-22 28 -45 55 -73 77c-16 30 -43 48 -69 67c-14 -5 -14 -1 -24 -6c-5 1 -6 7 -9 12
c-13 -12 -12 -39 -25 -50c0 -33 -22 -39 -22 -71c-23 -28 -28 -74 -52 -99v-13c-8 -8 -21 -8 -23 -23c-39 5 -44 -26 -74 -31c-25 102 5 214 25 294c2 1 4 1 6 1c27 97 64 181 102 263c-12 12 -31 18 -45 29c-3 4 2 18 -6 15c8 26 26 43 50 52c21 29 69 29 90 57
c6 2 7 0 9 -3c6 -2 4 3 6 6c49 -1 86 13 128 21c93 10 164 -10 230 -46c6 -13 20 -17 33 -22c-2 -7 4 -5 3 -11c31 -14 47 -46 65 -74c0 -13 7 -37 -4 -43c-1 -12 -1 -16 -3 -29c-9 -1 -9 -11 -19 -11c1 -6 -3 -6 -1 -11zM509 632c-7 -6 -8 -3 -14 0c-4 -1 -2 -6 -9 -4
c-11 12 -44 0 -52 4c-34 -6 -68 -24 -85 -58c-1 -7 4 -6 5 -9c-22 2 -27 -14 -33 -31c-2 0 -2 3 -5 3c-1 -7 -1 -10 0 -15c-6 -2 -9 -9 -7 -19c-6 -1 -9 -5 -16 -6c-1 -9 5 -7 6 -11c-8 -8 -10 -25 -23 -27c-2 -6 2 -4 3 -8c-14 -7 -24 -30 -24 -46c49 17 94 42 140 62
c14 21 39 31 64 38c8 13 28 16 33 27c1 -3 1 -5 4 -5c25 29 71 36 85 82c-24 12 -46 18 -72 23z" />
    <glyph glyph-name="S" unicode="S" horiz-adv-x="684" 
d="M26 63c-8 -6 -9 -8 -19 -6c15 19 47 12 59 36c44 10 64 33 104 38c-6 11 15 27 21 17c18 12 49 19 68 37c4 1 6 -3 5 -9c15 22 39 29 62 38c1 7 10 6 10 13c40 13 67 44 103 62c2 8 10 6 11 14c-15 11 -44 -6 -51 8c-40 -18 -98 -13 -130 -41c-36 0 -55 -19 -95 -22
c-13 -21 -45 0 -60 -15c-9 6 -24 6 -36 9c-28 39 -51 85 -77 126c-8 56 13 90 28 121c11 6 21 16 26 31c17 8 44 41 53 38c21 24 49 35 78 45c3 1 2 5 3 8c17 -3 24 17 39 10c3 11 19 7 22 19c35 9 76 30 114 44c43 6 83 39 121 36c21 15 50 -5 71 -5c2 -9 8 -10 17 -9
c17 -21 34 -40 54 -57v-9c13 1 13 -16 24 -19c4 -27 23 -54 3 -82c-32 -14 -60 16 -82 24h-39c-16 -4 -46 -24 -66 -8c-10 -16 -31 1 -39 -16c-3 11 -12 6 -18 9c-7 -3 0 -10 -5 -13c-44 -7 -91 -15 -131 -41v5c-10 -11 -23 -11 -33 -17c-6 -5 -11 -14 -17 -18
c-15 -9 -25 -8 -33 -20c-4 -5 -3 -11 -6 -16c-3 -4 -10 -1 -13 -5c-11 -11 -12 -35 -28 -41c1 -7 -2 -9 -2 -14c40 5 80 11 116 27v-7c12 15 43 6 58 17c37 2 73 6 98 11c0 0 7 -6 11 -6s19 16 24 0c7 12 14 -5 23 6c40 -8 75 -22 111 -36c11 -17 24 -31 42 -41
c4 -13 13 -22 22 -28c6 -13 5 -31 4 -50c-29 -51 -77 -77 -116 -114c-13 -7 -29 -11 -41 -18c-5 -3 -11 -8 -16 -10c-16 -15 -41 -20 -59 -28c-1 -1 -1 -8 -2 -9c-2 0 -1 9 -1 9c-8 1 -24 -11 -35 -16c-11 -4 -19 -1 -28 -5c-1 -1 -1 -4 -1 -7c-8 2 -24 2 -30 -6
c-4 -1 -2 6 -6 6c-29 -15 -61 -28 -102 -28c-27 -22 -59 -11 -90 -26c-11 9 -22 2 -33 5c-3 1 -2 9 -5 10c-7 6 -18 -2 -25 0c-4 6 -5 14 -15 11c1 21 -19 8 -28 7c-4 5 10 9 8 21z" />
    <glyph glyph-name="T" unicode="T" horiz-adv-x="411" 
d="M511 742c15 -1 49 -11 54 3c37 -4 94 -7 130 -27c3 -7 -2 -15 10 -15c2 -4 -8 -4 -7 -7c1 0 5 -3 6 -2c-5 -6 -13 -3 -21 -10c-3 -7 5 -4 3 -11c-5 3 -13 2 -10 -7c-15 0 -21 -5 -39 -6c-21 -9 -48 -14 -73 -20c-9 -1 -20 -3 -29 -5c-2 0 -2 4 -2 4
c-45 -6 -89 -13 -125 -25c-56 6 -63 -34 -91 -54c1 -7 1 -12 0 -13c-2 -7 -8 -8 -12 -13c3 -2 4 -6 4 -11c-8 2 -6 -4 -13 -2c1 -14 -10 -14 -7 -27c-9 -1 -7 -13 -16 -13c-9 -32 -30 -52 -34 -86c-18 -20 -17 -57 -37 -74c0 -3 1 -6 0 -12h-5c-5 -51 -34 -80 -39 -131h-5
c1 -18 -13 -27 -11 -46c-10 -8 -18 -16 -17 -35c-11 -10 -18 -25 -20 -43c-10 -4 -13 -3 -14 -9c-19 1 -44 3 -49 -11c-13 5 -21 14 -27 24c-13 68 -1 106 18 151c2 7 -6 1 -4 8c7 4 9 13 8 26h6c0 31 17 38 17 65c15 7 7 31 21 35c-1 1 -4 1 -4 4c15 38 37 72 46 115
c17 15 16 45 34 59c-2 7 2 7 1 13c12 11 12 32 29 42c0 16 8 26 16 37c-14 1 -35 1 -42 -5c-63 -3 -131 -10 -186 13c-2 8 -11 12 -15 21c5 9 14 9 23 12c3 2 3 8 5 9c5 3 12 2 19 4c10 5 21 14 30 17c30 9 62 15 96 23c18 4 49 4 73 11c2 1 2 -3 3 -4c29 8 59 13 93 13
c27 9 61 10 85 16c2 1 2 -3 3 -3c63 7 110 7 173 5c-13 -5 -39 2 -52 -3z" />
    <glyph glyph-name="U" unicode="U" horiz-adv-x="602" 
d="M489 139c5 -9 -10 -18 -5 -27c-2 -3 -8 0 -8 -4c0 -1 4 -1 6 -1c-7 -2 -7 -10 -7 -16c-4 -1 -4 2 -8 1c-3 -7 6 -3 4 -9c-6 6 -3 -6 -4 -11c-6 -2 -1 9 -7 8c-15 -4 -8 -20 -16 -28c-6 5 2 13 0 20c-8 -5 -12 -14 -14 -25c-2 1 -2 5 -6 4c-3 -2 -4 -6 -3 -11
c-14 0 -17 -21 -31 -15c-3 0 -2 -3 -2 -5c-4 -1 -4 3 -4 5c-5 -3 -4 -13 -15 -10c2 30 -2 64 2 92c2 7 9 14 10 21c0 3 -4 4 -4 4c1 2 6 4 6 9c0 9 2 8 5 16c4 12 -1 28 3 41c2 5 8 7 10 11c3 10 -2 21 7 29c0 6 1 26 3 38c-22 -28 -49 -51 -70 -79h-7
c-14 -17 -31 -33 -55 -44c-11 -6 -17 -15 -30 -19c-23 -10 -61 -19 -74 -20c-12 5 -23 8 -35 6c-1 7 -10 9 -18 10c-11 14 -33 17 -43 32c-35 11 -58 36 -77 63c-7 34 -3 77 0 112c7 0 4 10 5 18c8 0 6 10 6 13c21 62 54 113 88 163c10 3 18 8 21 19c5 0 10 2 8 10
c1 -4 10 1 9 -6c23 13 49 -8 78 -7c20 -18 60 -19 46 -66c-15 -21 -54 -26 -57 -53c-10 -6 -22 -14 -20 -27h-8c2 -7 2 -14 -5 -18c0 -3 4 -2 4 -5c-3 -7 -7 -10 -16 -10c-2 -9 0 -13 0 -25c-4 1 -10 -1 -8 5c-3 -6 1 -23 -8 -26c0 -6 3 -12 -5 -14c-1 -5 7 -2 5 -7
c-11 -8 -2 -28 0 -29c-5 -15 -1 -32 5 -47c20 6 35 17 51 26c27 24 60 42 86 69c4 5 6 10 11 15c4 4 11 4 14 8c3 6 1 9 6 12c27 22 59 50 84 80c5 5 6 12 9 17c2 2 8 2 10 3c2 3 2 5 4 7c9 7 13 20 23 29c8 10 21 18 27 24c1 2 9 13 7 16c32 25 54 59 77 94c0 2 -2 1 -3 2
c19 34 36 72 70 91v7c14 -2 44 -6 49 13h11c0 -9 -8 -12 -11 -19c4 -10 18 -11 25 -17c1 -10 -2 -17 -2 -25c-5 1 -2 -9 -11 -6c-4 -13 -11 -23 -6 -37c-15 -11 -23 -29 -35 -42c2 -3 2 -9 2 -15c-12 -7 -19 -18 -22 -35c-15 -18 -18 -45 -33 -63v-13
c-8 -16 -21 -37 -19 -57c-10 -8 -12 -26 -15 -37c-3 0 -3 2 -6 3c9 -19 -10 -33 -5 -51c-8 2 -6 -8 -12 -8c0 -3 4 -3 5 -7c-14 -19 -12 -45 -25 -61c-2 -6 6 0 3 -7c-5 1 -5 -3 -8 -4c-1 -5 3 -5 5 -5c-11 -4 -1 -18 -13 -21c9 -4 -1 -9 -3 -13c6 -8 3 -30 -6 -34
c-1 -5 4 -6 3 -12c-6 -5 -13 -5 -13 -13c0 -3 5 -3 5 0z" />
    <glyph glyph-name="V" unicode="V" horiz-adv-x="381" 
d="M34 87c5 -2 4 23 -4 35c-2 4 -2 1 -5 8c-3 6 -3 -3 -2 5c2 7 -8 1 -5 5c-1 6 3 7 5 9c-15 8 -15 29 -22 44c-2 5 3 3 3 6c-7 32 -8 93 -3 139c0 4 9 13 0 17c2 5 7 6 4 15c-1 -3 -6 -2 -4 -9c-7 14 7 36 4 57c3 0 3 2 6 2c-3 29 10 45 8 74c11 6 -3 28 10 33
c1 46 25 67 23 115c7 -2 4 8 6 9h18c5 3 -2 5 2 7c19 1 32 -2 49 -8c16 -5 23 -12 34 -25c12 -14 12 -20 14 -42c1 -2 2 -2 4 -3c-3 -14 -7 -30 -11 -42c0 -1 4 -1 4 -1c-5 -25 -18 -47 -18 -73c-1 -1 -3 -2 -6 -2c0 -38 -6 -68 -18 -94c0 -1 2 -1 3 -1
c-8 -4 -1 -13 -12 -12c7 -10 3 -17 1 -27c2 -6 6 1 11 0c-11 -13 -17 -36 -12 -52c-7 -12 -4 -29 -12 -44c6 0 5 6 12 6c-7 -21 -16 -35 -10 -53c3 1 3 5 4 8c3 -2 5 -20 -1 -19c5 -6 0 -6 0 -14c2 0 1 5 7 3c4 25 27 32 33 55c5 -7 5 -6 2 -15c15 11 18 34 35 42
c0 16 16 25 13 38c3 -2 2 1 7 0c0 20 13 31 15 45c4 9 13 12 12 25c5 -1 5 2 8 2c18 38 44 65 64 102h6c-1 2 -2 3 -2 5c9 1 9 11 10 21c8 12 21 20 25 38c15 6 14 28 30 33c0 15 14 16 15 30c9 4 8 18 18 21c-1 6 4 6 2 11c24 18 32 51 57 69c1 16 18 13 19 28
c9 1 9 11 20 10c-2 6 1 6 1 9c7 0 8 3 14 2c12 20 29 0 45 -2c-2 -3 1 -6 5 -4c-4 -11 1 -22 -2 -31c-6 -23 -29 -32 -30 -53h-5c-7 -35 -38 -46 -48 -78c-7 -3 -15 -7 -14 -19c-21 -17 -37 -39 -46 -69c-15 -5 -15 -23 -28 -30c0 -16 -18 -15 -16 -32c8 2 7 12 12 17
c3 -2 4 -6 4 -10c-2 0 -2 4 -2 5c-5 0 0 -8 -2 -12c-10 3 -2 -15 -12 -12c3 -14 -11 -23 -13 -37c-22 -35 -44 -69 -59 -110c-7 1 -12 0 -16 -2c9 -6 -5 -10 3 -17c-10 -3 -10 -14 -19 -16c0 -12 -4 -18 -11 -20c-5 -15 -7 -29 -18 -37c9 -5 -13 -30 -15 -35c0 -1 4 -3 5 -2
c-3 -3 -11 -7 -9 -10c12 2 -6 -8 -2 -22h-6c-7 -22 -22 -38 -37 -53c-2 -5 -13 -16 -12 -13c3 4 6 7 7 11c-12 2 -19 -17 -36 -17c-3 4 -12 3 -14 10c-9 -5 -35 7 -51 9c-1 3 3 3 3 5c-4 3 -11 1 -18 0c-1 11 -4 -2 -10 6c3 3 9 3 12 2c-6 15 -30 13 -36 31z" />
    <glyph glyph-name="W" unicode="W" horiz-adv-x="705" 
d="M489 34c1 -11 -41 -4 -47 7c-37 0 -56 17 -82 28c-22 35 -40 75 -42 130c-11 -23 -29 -45 -30 -71c-9 -2 -16 -8 -12 -16c-8 1 -6 -7 -14 -5c-8 -27 -36 -33 -59 -44c-3 -1 -3 1 -3 3c-3 -2 -3 -6 -4 -9c-7 3 -1 1 -7 0c-18 -5 -47 -1 -71 -1c-11 12 -31 15 -46 25
c-4 0 -2 -4 -4 -4c-13 6 -23 16 -38 19c-2 7 6 1 5 6c-2 6 -6 10 -13 12c2 19 -21 28 -22 51c-4 -20 10 -38 21 -50c-4 0 -3 6 -10 5c0 -12 17 -9 19 -21c-15 0 -23 13 -22 23c-9 7 -13 25 -14 41c3 2 6 3 7 6c-2 12 -9 29 0 40c-2 2 -4 5 -3 11c7 79 38 136 59 203h5v16
c10 20 25 44 32 62c0 2 2 1 5 2c6 31 25 48 34 77h7c6 23 26 31 32 55c29 19 36 62 74 75c0 9 16 2 14 12c13 3 24 -3 30 -12c46 -12 90 -26 106 -66c0 -37 -33 -41 -44 -67c-12 -5 -12 -21 -25 -25c2 -12 -8 -13 -8 -23h-6c-17 -44 -47 -74 -57 -125h-4
c-12 -30 -26 -64 -41 -92c-3 -3 1 -7 0 -9c-1 -1 -6 0 -6 -1c-2 -5 0 -10 -2 -15c-5 -16 -17 -23 -18 -45c-11 -10 -5 -38 -21 -49c5 -12 -4 -14 -5 -26c67 51 116 120 181 173c3 20 12 36 13 57c16 20 20 49 39 65c9 -6 16 -1 20 8c2 -3 11 0 10 -6c12 9 23 -15 39 -5
c19 -43 8 -99 -3 -137c-5 -13 0 -31 -4 -44c-2 -10 -6 -39 -8 -49c-1 -4 2 -5 2 -5c0 -8 -4 -10 -2 -16c2 -13 -2 -48 5 -73c8 -1 1 13 10 11c0 -3 -5 -2 -3 -8c13 5 17 35 12 47c11 7 8 27 17 35c0 2 -3 2 -2 5c13 12 11 38 28 45c-1 6 2 7 1 13c14 28 31 52 41 84
c6 -1 2 7 10 4c-4 15 10 21 13 29c1 3 -1 7 0 9c10 22 31 37 34 65c6 8 11 16 19 22c-1 7 0 7 -1 15c2 -4 2 0 7 0c2 5 -8 0 -6 6c19 25 29 59 50 82c1 6 1 4 0 12c4 4 12 5 11 16c14 2 6 29 22 31c11 29 31 48 47 71c8 -6 12 7 15 0c18 16 32 -7 49 -9c9 -14 13 -49 0 -62
c2 -2 6 -3 4 -8c-5 -6 -4 -9 -4 -20c-10 -12 -12 -35 -19 -52c0 1 -17 -20 -8 -18c-11 -24 -25 -44 -32 -70c-13 -9 -22 -23 -27 -41c-5 0 -5 -3 -11 -1c1 -20 -12 -39 -32 -44c2 -6 -2 -7 -1 -12c-10 2 -4 -9 -13 -6c0 -27 -27 -42 -31 -71c-13 -1 -13 -18 -14 -26
c-10 -3 -7 -19 -18 -22c1 -10 -2 -16 -2 -26c-11 -7 -19 -32 -13 -42c-21 -27 -12 -64 -35 -91c-4 6 -9 0 -17 -1c7 -15 -8 -23 0 -34c-7 1 -7 -4 -13 -5c0 -10 2 -11 0 -18c-13 -7 -30 -7 -37 -20c-4 1 -14 -2 -13 4zM544 296c7 2 10 14 9 18c-2 -7 -8 -10 -9 -18z" />
    <glyph glyph-name="X" unicode="X" horiz-adv-x="604" 
d="M451 34c-3 -3 5 -9 5 -14c-11 1 -18 11 -24 20c-17 19 -33 42 -47 63c-10 0 -12 5 -12 13c-17 18 -26 44 -39 68h-7c1 4 5 6 4 12c-10 12 -10 32 -26 39c-7 -2 -28 -31 -30 -26c-15 -23 -41 -36 -54 -62c-4 0 -4 -2 -8 -2c-13 -18 -33 -26 -42 -49
c-14 -3 -19 -15 -26 -27c-5 1 -6 -3 -9 -2c-9 -23 -34 -24 -41 -47c-16 -6 -27 -25 -51 -29c-22 -4 -51 6 -71 13c-4 2 -2 12 -9 14c29 27 57 54 80 88c19 12 28 38 51 47c16 24 42 38 56 64c28 22 56 46 81 73c19 5 25 25 41 32c1 9 4 18 -4 18c-3 20 -7 42 -13 60
c-5 11 -11 18 -15 33c-1 4 1 10 0 13s-6 4 -7 8c-1 3 3 7 2 11c-2 12 -13 21 -8 34c-16 39 -18 88 -34 126c0 9 1 20 -6 24c-1 18 -1 36 -12 46c2 2 4 4 7 6c1 5 -7 2 -5 8c2 4 5 9 11 8c21 29 63 13 86 10c2 -1 3 4 3 3c10 -1 25 -4 33 -7c9 -4 14 -13 21 -17c2 -2 5 0 8 0
c7 -5 22 -26 28 -33c5 -7 5 -22 11 -32c8 -13 19 -43 23 -61c4 -9 2 -20 6 -30c4 -8 11 -28 8 -44c9 -10 9 -28 13 -43c6 -1 15 -4 16 6c15 2 25 18 43 25c13 5 23 22 35 30c7 4 19 9 28 17c8 7 18 13 24 18c4 2 3 11 6 4c28 27 69 40 93 74c39 18 70 47 111 66
c7 -1 11 3 17 3c3 1 3 7 11 5c-3 -10 4 -15 2 -27c13 8 3 -7 12 -12c-9 -6 -12 -15 -12 -26c-5 0 -4 -6 -11 -5c0 -7 -4 -8 -4 -13c-22 -13 -44 -23 -61 -39c-26 -12 -40 -37 -68 -44c-25 -22 -42 -40 -73 -57c-3 -3 -6 -5 -6 -11c-6 -1 -3 4 -6 4c-11 -23 -38 -20 -44 -43
c-11 1 -18 -18 -30 -26c-6 -4 -10 -3 -16 -7c-8 -11 -28 -28 -43 -44c-2 -27 18 -54 5 -80c17 -11 14 -42 22 -56c-3 -12 -3 -22 6 -24c-6 -20 19 -71 -6 -83c-3 -9 1 -10 2 -15c-12 -6 -2 -24 -14 -30c4 -12 3 -18 7 -31c-11 -9 -10 9 -21 5c-3 -10 9 -6 5 -17
c-1 2 -8 0 -8 4zM347 472c0 -2 -1 -6 -1 -9c5 -3 14 3 11 6c-6 -8 -4 5 -10 3z" />
    <glyph glyph-name="Y" unicode="Y" horiz-adv-x="408" 
d="M58 142c-7 -9 -7 -26 -16 -35c1 8 6 31 16 35zM42 105c4 -3 1 -19 -5 -17c0 7 5 9 5 17zM48 57c5 -1 1 -11 3 -15c2 5 4 10 5 16c-3 7 -6 -3 -12 -1c4 4 4 12 12 11c1 2 -3 12 2 12c0 2 -5 2 -7 2c10 15 18 36 23 63c11 5 15 19 18 32c16 15 19 43 36 57c-2 14 9 15 7 30
c24 22 27 52 42 77c-25 -8 -24 -44 -47 -54c-1 -16 -11 -23 -15 -33c7 27 30 57 45 84c-94 0 -172 59 -158 167c5 38 22 64 28 102c9 -2 4 8 11 7c-3 31 24 30 21 60c4 3 8 -1 12 5c-1 19 5 22 13 41c12 -8 31 -2 41 4c23 -17 65 -13 84 -33c0 -14 7 -35 -5 -40
c-5 -23 -23 -48 -36 -68c-10 -46 -34 -87 -28 -138c6 -10 6 -24 8 -34c38 8 67 43 102 61c1 16 18 16 18 35c8 5 18 20 16 30c2 0 12 1 12 10c-5 3 15 37 25 37c0 3 -3 2 -3 5c4 7 9 13 18 16c4 15 10 29 22 34c10 26 29 41 48 58c3 15 13 23 27 27c-2 10 5 10 4 19
c10 0 16 -9 25 0c30 -14 121 -16 148 -37c0 -20 -14 -27 -20 -42c-28 -11 -38 -44 -64 -60c-3 -16 -18 -19 -22 -35c-13 -1 -17 -11 -20 -22c-25 -17 -40 -44 -56 -70c-21 -21 -34 -51 -56 -71c-2 -19 -18 -21 -20 -40c-13 -9 -22 -22 -27 -38c-15 6 -18 -27 -26 -39
c-2 -2 -8 -2 -10 -5c-4 -10 -5 -23 -9 -28c-7 -11 -27 -28 -35 -42c-2 -3 0 -8 -2 -12c-2 -5 -8 -6 -12 -11c-7 -13 -10 -30 -15 -44c-8 -4 -14 -14 -14 -29c9 -2 5 7 12 4c-16 -36 -12 -94 -39 -118c-7 0 -77 0 -80 7c-7 -7 -18 -10 -24 -20c-3 1 -2 5 -3 7
c-4 -1 -6 -4 -6 -7c-8 1 -12 7 -23 5c-7 16 -26 55 -1 62c-5 -1 -5 -15 0 -16c1 6 5 10 7 15zM139 651c0 -2 0 -6 2 -6c3 4 1 6 0 10h-8c-1 -3 2 -4 6 -4zM83 197c-8 -16 -14 -35 -25 -49c8 16 12 38 25 49z" />
    <glyph glyph-name="Z" unicode="Z" horiz-adv-x="665" 
d="M108 251c0 2 -4 2 -6 2c33 28 57 65 93 90c0 5 -1 6 -5 6c64 65 131 123 194 193c-13 7 -17 -17 -35 -12c-3 -4 -7 -6 -8 -12c-42 -16 -74 -44 -107 -72c-10 1 -19 0 -22 -9c-54 -5 -86 11 -112 35c2 15 -9 16 -14 22c4 34 31 44 40 72c13 9 29 13 36 28
c17 8 33 18 45 34c46 26 91 54 140 78c11 0 19 3 24 11c21 2 41 7 58 16c39 -1 79 6 113 -4c3 1 3 5 6 4c50 -19 104 -33 137 -71c11 -62 -33 -79 -56 -111c-24 0 -26 -23 -44 -28c-34 -26 -65 -53 -99 -79c-5 -8 -12 -17 -24 -19c-6 -5 -6 -16 -18 -15
c-15 -21 -35 -38 -55 -55c-29 -29 -56 -60 -90 -85c-22 -18 -33 -48 -59 -62c-5 -19 -19 -25 -25 -41c-5 1 -7 -4 -14 -3c-10 -27 -35 -39 -45 -66c113 24 245 36 366 17c3 0 2 5 4 5c45 -12 84 -16 110 -48c-12 3 -15 -4 -25 -4c-1 -8 3 -7 2 -12c-9 -4 -7 4 -14 4
c-4 -4 -1 -14 -6 -19c2 2 5 2 9 2c-2 -2 -4 -2 -4 -7c-16 9 -35 2 -47 -6c-5 -4 -5 11 -6 0c-67 5 -144 14 -201 0c-3 -1 -2 4 -3 4c-65 -8 -124 -27 -184 -41v5c-23 -13 -74 -9 -95 3c-21 29 -62 36 -61 88c4 3 6 6 10 9v24c15 15 21 42 40 54c7 28 28 41 42 62
c5 1 3 -1 0 -1c13 -10 0 16 15 14z" />
    <glyph glyph-name="a" unicode="a" horiz-adv-x="403" 
d="M405 517c6 -22 1 -50 -2 -73c0 -1 -5 -2 -4 -4c-1 -9 3 -29 -5 -36c-1 -5 4 -2 4 -6c-12 -28 -13 -65 -28 -88c8 -5 -1 -8 -4 -16c0 -3 1 -11 -1 -14c-8 -12 -11 -39 -16 -51c-9 -5 -10 -19 -9 -32c-2 -6 -4 -13 -2 -22c-4 -21 -5 -42 -8 -66c-8 -6 -3 -25 -14 -28
c-1 -6 2 -7 4 -12c-6 3 -2 -4 -4 -4c-3 -2 -4 0 -6 1c-8 -20 -20 -34 -32 -49c-5 0 -9 -2 -13 -2c-3 -2 -2 -7 -3 -11c-12 -3 -17 -11 -32 -12c-3 -7 -9 -13 -13 -19c-3 -1 -3 2 -6 3c-4 -2 -3 -9 -10 -8c-2 5 -5 10 -4 17c-1 3 1 5 1 13c3 25 6 61 12 80c-4 8 7 27 9 39
c-5 3 -1 19 2 25c-10 6 -6 22 -6 33c-39 -10 -78 -21 -110 -36c-7 -6 -7 -17 -14 -24c-2 -4 -9 -6 -12 -9c-2 -4 -1 -12 -4 -16h-4c-3 -1 -2 -8 -3 -9c-6 -6 -20 -9 -27 -12c-24 -3 -43 20 -66 28c-1 6 -1 10 -6 9c-5 60 37 88 47 138c2 0 4 1 6 2c10 30 32 49 41 79
c16 9 19 31 36 39c4 15 17 21 21 37c22 17 36 42 58 61c-3 5 1 6 0 10c4 0 6 0 8 1c11 22 27 39 45 54c9 26 31 40 43 62c-2 10 1 18 5 22c6 0 24 -3 26 6c23 -20 65 -22 90 -39c2 -10 10 -10 13 -16c-4 -13 1 -35 -3 -45zM187 310c-1 -19 -16 -24 -17 -42
c-4 -1 -5 -7 -12 -7c1 -3 1 -5 1 -6c-16 -15 -20 -43 -30 -61c22 3 43 3 65 8c3 -4 11 -2 24 -2c2 18 -3 37 3 55c-11 35 12 69 5 104c-12 -16 -23 -35 -39 -49z" />
    <glyph glyph-name="b" unicode="b" horiz-adv-x="548" 
d="M435 374c-4 0 -8 0 -9 -2c-10 -15 -32 -10 -40 -27c-7 -1 -7 0 -16 -2c17 -10 41 -10 54 -23c4 -1 4 2 9 1c33 -23 69 -41 83 -85c2 -4 -3 -4 -4 -6c10 -15 -5 -26 -6 -40c-10 -3 -9 -15 -14 -20c-7 -1 -14 -4 -13 -13c-15 -2 -18 -18 -36 -18c1 -8 -6 -5 -4 -11
c-16 -4 -26 -14 -44 -15c-2 -2 -2 -6 -3 -8c-29 -6 -47 -22 -72 -32c-13 4 -23 -8 -37 -3c-4 -3 -6 -5 -6 -12c-18 -2 -30 5 -41 -9c-8 0 -13 3 -22 3c1 -4 7 -2 6 -7c-8 1 -7 -5 -10 -7c-8 2 -18 -2 -18 7c-2 0 -5 -5 -1 -5c-4 -3 -13 -3 -17 -2c-2 -1 -3 -2 -3 -5
c-28 6 -45 -19 -68 -7c-1 -2 -8 -8 -7 0c-13 -10 -25 4 -40 2c-3 5 5 1 3 6c-2 4 -11 5 -14 -1c-3 1 -4 4 -7 5c-2 0 -1 -4 -1 -5h-14c3 7 -5 5 -10 5c-1 3 0 5 4 5c-5 7 -20 -6 -19 5c-1 -4 -10 -3 -10 -10c-3 1 -11 -2 -12 2c-2 6 8 1 6 6c-11 4 -26 7 -36 12
c-11 -4 -21 -9 -32 -9c-5 -4 -3 -15 -16 -11c13 20 39 32 60 39v6c19 4 35 10 49 20c2 43 16 80 34 114c0 2 -3 2 -3 5h4c14 42 40 70 49 117c14 6 8 22 22 29c0 14 6 22 13 31c0 5 -3 4 -2 8c2 0 2 -2 2 -3c10 15 18 34 30 50c-9 8 -22 -6 -32 -9c-37 -5 -53 25 -65 43
c22 30 55 48 86 68c9 1 15 5 17 12c6 -1 10 1 16 1c38 22 80 42 136 47c2 1 1 4 3 4c46 4 92 1 136 -6c33 -33 113 -54 93 -131c-1 -4 -7 -5 -6 -14c-1 -1 -3 -2 -5 -2c0 -5 -3 -5 -2 -10c-19 -16 -33 -37 -57 -49c-5 -10 -20 -11 -23 -24c-3 0 -6 0 -6 2
c-1 -7 -12 -6 -12 -12zM307 473c-11 -8 -15 -22 -28 -29c-7 -28 -28 -41 -39 -66c9 8 18 16 31 20c-1 6 3 6 5 9c51 21 80 62 119 95c16 12 31 24 40 42c-21 -4 -23 1 -35 -3c-3 9 -37 -9 -48 -3c0 -6 -10 -9 -14 -6c-9 -10 -26 -13 -34 -25c3 -1 3 -9 7 -10
c-5 -4 -2 -14 -4 -24zM225 251c-12 2 -36 -5 -46 -12c0 7 -1 0 -3 0c-2 6 -14 2 -17 7c-5 -5 -1 -18 -12 -18c-4 -24 -20 -43 -26 -62c0 1 0 -18 -6 -15c-2 -6 4 -2 2 -6c-7 1 -1 -8 -9 -5c1 -9 -3 -12 -5 -18c10 2 16 -1 16 6c56 8 113 43 170 65c0 10 15 15 18 11
c8 15 28 15 38 28c16 5 25 19 42 25c-4 6 3 8 5 13c-59 7 -118 -4 -167 -19zM31 43c7 -2 7 6 11 6c-4 -1 -11 2 -11 -6z" />
    <glyph glyph-name="c" unicode="c" horiz-adv-x="453" 
d="M40 349c0 4 -4 3 -4 7c11 7 16 16 17 29c7 6 13 12 15 21c14 18 26 38 38 57c9 4 15 12 16 21c12 2 15 8 15 18c4 0 4 2 9 2c0 4 6 4 8 6c6 7 12 17 19 25c9 8 25 10 29 22c23 9 36 25 64 31c2 1 2 2 3 4c44 8 78 -14 111 -27c7 -2 13 1 16 -6c41 -5 70 -29 94 -45
c5 -13 0 -19 -2 -26c-18 -4 -55 -8 -68 4c-26 5 -41 -4 -63 -6c-2 0 -1 -3 -1 -5c-11 0 -14 -5 -25 -5c-13 -20 -42 -29 -54 -49c-6 1 -7 -3 -10 -3c-31 -24 -61 -54 -76 -92c-45 -35 -44 -101 -80 -142c2 -8 0 -15 -3 -20c0 -3 3 -1 4 -4c-5 -19 -5 -40 14 -59c5 0 9 0 8 4
c23 1 27 15 46 20c36 26 133 94 166 122c7 4 6 12 16 12c0 11 16 10 17 20c18 6 21 23 40 27c-1 -14 -5 -24 -11 -34c0 -3 12 -4 9 1c8 -3 -7 -11 1 -10c-11 -11 -6 -30 -3 -47c-6 -7 -19 -13 -12 -24c-11 -9 -17 -24 -22 -37c-5 0 -4 -3 -9 -2c-16 -31 -119 -85 -150 -106
c-26 -4 -47 -7 -76 -7c0 2 -4 2 -4 4c-60 9 -108 36 -132 75c-9 29 -17 56 -12 83c-6 42 17 61 15 98c2 1 9 -1 7 6c-2 -1 -2 -4 -6 -3c18 5 7 31 26 40z" />
    <glyph glyph-name="d" unicode="d" horiz-adv-x="611" 
d="M-30 58l-15 26l27 21l-5 22l20 21l-19 5l19 6c12 5 23 10 31 17c-3 3 -3 8 -12 6c0 7 8 4 12 7c2 17 2 50 8 61c-1 2 -5 2 -3 6c3 4 3 10 9 12c9 45 22 83 45 114v9c8 0 4 11 11 11c0 12 12 18 16 26c4 7 3 13 7 17c2 1 7 1 8 2c3 4 3 11 7 17c5 6 16 8 12 23
c17 2 18 21 29 28c-18 -2 -30 1 -40 -3c-16 10 -38 19 -47 38c-11 0 -13 8 -12 20c55 22 113 36 174 49c18 1 38 1 51 7c4 0 6 -1 6 -4c34 9 59 3 99 4c13 -6 28 -11 41 -15c4 -2 11 1 14 -2l23 -7c7 -3 11 -10 19 -14c4 -3 11 -1 14 -4c1 -1 0 -5 4 -9c3 -1 8 2 10 -1
c11 -9 29 -15 39 -27c4 -4 10 -13 19 -15c0 -13 14 -10 12 -24c35 -31 28 -103 3 -137c2 0 2 3 2 3c0 -5 -14 -11 -13 -25c-18 -11 -26 -31 -47 -37c5 -11 -20 -13 -27 -21c14 -5 21 7 30 9c-12 -7 -25 -29 -39 -24c-2 -1 -2 -3 -5 -3c1 -1 4 -1 3 -5
c-17 -5 -26 -19 -39 -30c-3 2 -3 4 -9 4c1 4 12 -2 12 2c-2 10 -11 -4 -12 4c-2 -7 -13 -6 -17 -13c5 -3 9 5 17 3c-5 -6 -10 -12 -17 -17c0 -2 5 0 4 -6l-11 1c1 -2 5 -1 3 -6c-4 -1 -5 0 -4 5c-12 -20 -40 -25 -57 -40h-14c-7 -17 -30 -19 -43 -30c-7 5 -15 0 -16 -5
c-4 2 -6 5 -15 4c11 8 34 6 41 16c-4 7 -9 -2 -18 2c5 3 16 8 23 5c3 1 -1 1 0 4c11 4 16 1 22 8c0 1 -1 2 0 6c19 -8 23 7 29 16c9 -1 13 3 21 2c5 2 4 6 1 10c-10 -1 -20 -4 -28 -10c0 3 -3 4 -8 4c-4 -3 -3 -5 -2 -8c-13 -3 -19 -10 -28 -19c-15 -5 -32 -10 -42 -22
c-11 1 -16 -5 -18 -13c-7 0 -14 2 -12 -6c-10 2 -20 -9 -29 -12c3 -2 15 1 23 5c0 -6 3 2 6 -5c0 2 2 4 3 9h9c0 -3 -10 -5 -4 -9c6 0 4 7 5 12c6 -1 11 1 15 -3c-5 -8 -25 -17 -31 -13c-4 -1 2 -4 0 -8c-20 -7 -33 -22 -60 -24c-7 -25 -32 -19 -46 -35c-20 2 -46 3 -57 -10
c-8 -1 -9 3 -10 5c18 2 29 15 50 15c19 17 48 26 73 39c-1 0 -2 1 -2 4c-5 0 -5 -6 -11 -4c4 6 18 16 24 10c2 7 -6 6 -10 6c-3 -2 -9 -9 -13 -6c-29 -20 -71 -17 -99 -40c-12 0 -22 -1 -23 -9c-4 -1 -4 1 -4 3c-22 -12 -39 -13 -61 -12c5 12 22 5 33 13c1 3 -1 3 -3 3
c0 5 13 -2 11 5c-2 5 0 -5 -4 -2c9 6 29 11 43 15c7 1 2 3 2 7c5 0 7 0 9 -2v7c-9 2 -6 -3 -17 2c-5 -11 -17 -7 -21 -17c-2 2 -5 3 -9 5c-8 -18 -25 -11 -44 -14v-4c-1 -4 10 1 7 -5c-4 0 -8 1 -10 -1c-1 -7 2 -7 1 -13c-5 2 -9 -4 -12 3c0 -2 -12 -10 -15 -3
c1 -7 -9 -4 -10 -8c-2 0 -2 2 -2 3h-3c1 1 3 1 3 3c-2 3 -6 4 -10 4zM497 273c-16 -10 -35 -10 -47 -25c10 3 14 0 19 6v-4c18 -4 14 16 29 15c1 4 -2 4 -1 8zM353 164c-8 1 -9 -5 -17 -4c-1 -3 2 -3 6 -4c-2 8 10 2 11 8zM164 69c0 4 1 4 2 6c-8 3 -10 -7 -2 -6zM306 314
c5 4 13 4 6 10c7 3 3 -6 9 -2c5 9 8 11 19 9c0 2 0 5 -2 6c26 6 34 31 59 34c6 9 15 14 26 20c12 11 26 20 37 27c3 7 12 13 19 17c-1 9 6 11 8 11c10 12 22 28 25 51h4c-6 19 -10 37 -33 38c-1 12 -21 4 -23 15c-43 2 -75 8 -115 -3c-12 2 -43 -5 -53 -18h6
c9 -16 18 -31 11 -53c-20 -20 -30 -51 -42 -75c-17 -17 -28 -36 -38 -58c-18 -14 -18 -43 -34 -58c-3 -19 -14 -28 -17 -47c17 4 35 14 45 18c3 6 -4 1 -3 5c5 1 13 2 3 -2c15 5 30 8 35 20c-9 1 -16 -9 -21 -3c-6 -4 0 -3 -3 -8c-1 2 -3 4 -5 5c13 8 34 8 39 23
c5 -1 15 2 13 -5c-5 10 -10 -11 -14 -2c2 -4 -4 -3 -4 -7c24 8 56 23 64 34c-9 0 -13 -2 -21 -2zM394 272c0 -6 -10 -6 -11 -9c0 1 0 3 -3 2c-2 -6 -10 -3 -8 -9c0 3 -3 4 -6 3c2 -6 -5 -5 -6 -11c9 2 8 -6 16 -4c-1 7 4 8 7 8c0 11 -6 -6 -10 2c5 7 25 7 21 18zM423 227
c3 4 12 1 11 9c-5 -3 -11 -4 -11 -9zM288 190v2h10c1 12 17 8 17 21c-10 -4 -15 -13 -27 -16c2 -4 -6 -7 0 -7zM349 208v-7c7 -1 5 6 9 7h-9zM315 190c2 -1 3 -2 2 -4c6 5 16 6 16 15h-4c0 -9 -10 -5 -14 -11zM292 177c5 -7 6 3 14 2c-1 1 0 6 -3 6c0 -8 -13 -3 -11 -8z
M245 155c10 -15 32 9 40 3c-3 3 4 10 0 7c-17 0 -21 -13 -40 -10zM112 132c-2 -4 -2 -7 -5 -9c-17 2 -25 -14 -45 -13c-15 -17 -48 -17 -65 -34c-2 0 -1 6 -3 6c-5 -6 -14 -4 -17 -16c22 5 42 19 69 25v-3c7 8 23 8 36 12c1 3 -1 9 3 9c25 6 52 12 65 30c10 -5 18 4 23 8
c-2 0 -2 2 -2 4c-19 -6 -35 -17 -59 -19zM211 140c0 2 0 5 -3 4c-13 -11 -34 -14 -45 -25c-15 5 -26 -4 -40 -4c0 -6 -2 -5 0 -10c16 8 40 13 52 10c4 4 6 9 10 12c6 0 7 3 10 -2c16 11 31 14 49 26c-14 -1 -26 -3 -33 -11zM225 109c9 0 14 5 24 1c0 5 6 5 6 9
c-9 3 -26 -7 -30 -10zM184 76c1 7 -6 3 -11 3c-2 -6 6 -1 11 -3zM220 270c5 0 -11 -6 -12 -9c-6 6 10 5 12 9z" />
    <glyph glyph-name="e" unicode="e" horiz-adv-x="514" 
d="M463 195c17 -12 -18 -19 -22 -31c-8 0 -14 -5 -15 -12c-35 -8 -60 -26 -93 -38c-46 -27 -92 -58 -167 -64c-6 -2 -24 -6 -27 0v-2c-21 7 -47 5 -60 20c-13 -3 -16 10 -26 14c-6 5 -19 10 -24 19c-5 5 -7 16 -10 23c-3 4 -9 7 -10 9c-1 6 -1 14 -1 21c-7 22 -7 41 1 63
c5 9 13 20 15 28c3 5 0 11 8 13c2 15 11 23 17 32c-13 14 -41 11 -45 32c3 6 7 2 5 9c27 4 54 11 77 18v9c18 10 23 32 40 43c15 38 46 64 67 97c-2 4 -23 3 -27 -2c-20 0 -42 12 -55 28c9 14 28 15 50 21c9 1 18 6 28 6c29 6 61 6 92 9c16 4 36 5 55 10c2 0 1 -4 2 -4
c33 4 68 5 103 6c18 2 31 6 46 4c34 9 89 2 118 9c-4 -7 -9 -9 -19 -10c0 -4 9 -1 11 -3c-19 -8 -32 -23 -61 -25c-3 0 -2 -2 -3 -5c-36 -6 -57 -20 -105 -17c-12 -9 -38 -4 -57 -10c0 -5 4 -5 9 -7c2 -27 -8 -47 -34 -55c-3 -8 -9 -12 -10 -20c-3 -1 -5 0 -5 2
c-7 -3 6 -2 4 -7c-14 -2 -23 -9 -25 -21c-17 -4 -21 -24 -35 -33c51 -5 95 3 151 1c0 4 7 2 6 7c8 1 10 -2 19 -2c-3 -11 2 -19 12 -21c-8 -15 -28 -16 -37 -27c-42 -5 -78 -4 -116 -10c-23 3 -53 -8 -84 -8c-16 -18 -30 -38 -47 -53v-6c-5 0 -3 -5 -9 -5
c-15 -34 -38 -63 -46 -101c0 -10 -2 -32 3 -41c85 13 136 55 219 70c11 9 33 6 42 16c19 2 36 2 46 12c8 -1 10 -1 20 -1c-1 -7 -4 -6 5 -6c0 -5 1 -10 7 -10c4 1 -7 0 -3 6z" />
    <glyph glyph-name="f" unicode="f" horiz-adv-x="657" 
d="M5 45c7 -1 8 -9 13 -13c-17 27 -22 82 -9 116c-4 8 3 30 16 38c0 2 -2 2 -5 2c8 12 9 29 19 41c5 32 30 52 38 83c4 3 8 5 9 10c-18 14 -43 20 -67 30c5 7 7 11 10 20c36 1 57 13 93 13c52 58 91 129 148 178c-65 9 -152 -23 -188 18c25 23 79 31 119 41c38 0 78 1 123 0
c7 5 15 10 20 15c22 -4 41 2 64 -13c109 -5 264 3 383 -6c-4 -2 -4 -7 -10 -7c0 -5 7 -6 8 -10c-5 -4 -11 -7 -5 -16c-16 3 -26 -1 -26 -11c-27 -5 -55 -15 -85 -11c-3 0 1 -4 -3 -4c-8 4 -7 -3 -12 3c-9 1 -4 -4 -10 -3c0 1 -1 2 -2 3c-64 -9 -109 0 -176 -7
c-7 -3 -9 -10 -19 -10c-5 -10 -22 -11 -23 -24c-6 0 -7 -2 -12 -2c9 -6 -7 -8 -14 -13c-13 -6 -21 -15 -24 -23c-18 -5 -23 -19 -28 -32c-7 1 -5 -3 -7 -4c-11 -17 -29 -28 -40 -47c92 -1 183 0 285 0c-1 -5 3 -4 5 -6c11 4 21 -1 33 1c-6 -4 -19 -5 -33 -4c1 -3 2 -6 9 -6
c-12 -2 -28 1 -36 -11c-5 0 -7 1 -7 4c-6 -5 -20 -5 -32 -6c0 -2 0 -5 2 -5c-6 -2 -32 -1 -38 -9c-20 1 -56 0 -76 -6v3c-16 -9 -44 0 -55 -9c-7 0 -8 2 -10 3c-9 -7 -31 0 -36 -7c-3 0 -4 2 -5 4c-12 -8 -38 0 -50 -10v4c-9 -8 -16 -14 -16 -28c-10 -2 -9 -12 -15 -19
c-1 -2 -10 -5 -12 -8c-1 -3 5 -12 -4 -9c0 -2 3 -1 3 -3c-17 -28 -28 -53 -35 -87c-4 0 -8 -1 -9 -2c9 -18 -14 -33 -11 -41c-14 -12 -14 -35 -26 -45c0 -15 7 -34 -6 -40c3 -21 -5 -45 -38 -46c0 -3 -9 -1 -7 -6c-7 -2 -15 -3 -19 -7c-26 10 -48 24 -59 46z" />
    <glyph glyph-name="g" unicode="g" horiz-adv-x="606" 
d="M110 134c6 -1 7 1 13 0c3 5 10 7 18 7c52 26 102 56 152 84c3 0 2 2 2 5c5 -1 4 2 8 2c4 10 21 10 24 21c18 6 32 13 42 26c17 5 31 16 41 28c14 3 23 12 25 28c-1 1 -15 3 -14 -2c-24 7 -55 -12 -82 -6c-18 2 -32 6 -35 20c3 5 12 4 8 12c22 13 51 19 77 26
c37 6 80 -6 101 11c8 -3 9 4 10 -5c5 2 18 4 20 -3c2 1 2 3 2 5c16 -10 34 -6 54 -7c-1 -17 21 -18 31 -20c-43 -26 -69 -71 -98 -111c-6 -26 -20 -46 -30 -69h-8c1 -12 -8 -15 -8 -24h-8c-2 -1 -1 -5 -2 -6c1 -4 3 3 9 1c-8 -20 -27 -31 -30 -55c-8 0 -4 -11 -14 -9v-8
c3 0 3 1 3 4c0 -5 -10 -13 -16 -16c0 -6 -1 -9 -8 -8v11c-3 -2 -12 -13 -6 -14c-6 -3 -15 2 -21 -3c-1 1 -1 4 -1 6c-5 -2 -10 -4 -11 -11c-1 4 -4 6 -4 11c-9 -4 -15 -5 -23 0c-1 -4 4 -3 5 -5c0 -4 -9 2 -6 -5c-9 5 -7 12 -9 21c-2 0 -2 -2 -3 -3c-1 9 -6 10 3 17
c-9 24 7 35 10 65c-21 -20 -42 -40 -68 -55c-2 -1 -2 -5 -3 -7h-8c-21 -27 -58 -40 -93 -48c-14 2 -26 7 -43 6c-3 5 -12 3 -20 4c-9 7 -29 3 -39 10c-7 11 -14 21 -29 20c-5 8 -11 14 -22 17c-2 11 -5 20 -12 26c2 7 1 18 11 16c-4 -8 4 -10 -1 -18c8 -11 10 -27 26 -31
c-1 46 -48 57 -42 115c-1 2 -3 3 -5 3c4 3 6 10 5 14c8 2 2 13 11 13c-2 13 9 13 7 22c13 4 16 19 22 27c4 4 10 6 13 9c5 7 7 16 12 20c10 14 28 22 34 38c5 0 3 5 9 4c18 22 39 44 63 61c7 12 16 19 29 23c2 1 2 6 2 9c26 11 41 35 67 47c5 12 25 17 43 29
c14 10 31 22 48 31c7 4 11 4 19 8c9 4 17 12 24 15c2 1 2 -3 2 -3c4 0 6 6 11 8c3 1 10 0 15 3c9 4 16 13 19 6c3 6 18 1 21 7c3 2 4 -7 5 0c6 -1 9 -6 15 -2c3 -6 9 -7 17 -7c10 -11 24 -14 38 -18c12 -13 36 -25 52 -38c1 -1 -1 -4 0 -4c1 -2 4 0 5 0c9 -10 16 -26 4 -41
c-21 -9 -55 -1 -81 -4c-9 -1 -22 -9 -32 -11c-2 -1 -1 2 -2 2c-6 0 -15 -4 -20 -5c-4 -1 -4 -2 -12 -4c-3 -2 -2 -5 -3 -6c-2 -1 -7 1 -10 0c-2 -1 -5 -9 -6 -2c-5 -8 -22 -6 -27 -14c-3 -1 -2 3 -5 3c-14 -4 -23 -14 -39 -16c-3 0 -2 -2 -2 -4c-20 -4 -27 -21 -47 -25
c-2 -6 -9 -6 -9 -14c-32 -15 -49 -43 -75 -64c0 -4 -2 -6 -1 -10c-24 -22 -49 -43 -63 -75c-17 -7 -13 -32 -33 -36c0 -9 -5 -12 -7 -18c6 0 5 7 10 6c-8 -15 -23 -36 -21 -63zM9 242c-7 -7 -20 -23 -12 -33c15 24 26 52 43 75c-1 1 -1 3 -2 3c-10 -15 -26 -23 -29 -45z
M351 107c-1 7 3 8 3 15h-7c1 -7 -2 -15 4 -15zM40 94c11 1 15 -3 22 1c-8 -1 -5 7 -7 12c-9 2 -14 7 -23 11c2 -16 5 -9 8 -24zM336 107c2 -2 2 -5 5 -7c0 7 4 13 -2 13c2 -5 -5 -1 -3 -6z" />
    <glyph glyph-name="h" unicode="h" horiz-adv-x="604" 
d="M456 376c6 -2 4 -9 -4 -7c-1 5 7 2 4 7zM417 247c5 -3 2 -10 0 -12c-7 0 0 9 0 12zM411 234h6c0 -5 -3 -10 -4 -13c-5 2 1 6 -2 13zM413 220c-2 -1 3 -9 -5 -7c-2 6 0 7 5 7zM402 182c6 0 -1 -9 0 -14c-4 3 1 10 0 14zM377 43c3 0 3 -1 6 -1c1 -7 -7 -9 -4 -18
c-6 6 2 11 -2 19zM378 21c1 -4 2 -8 2 -11h-4c1 3 -6 12 2 11zM522 224c1 -1 1 -2 1 -3c1 -3 3 2 7 0c0 -1 -1 -1 -2 -1c-6 0 0 -7 -3 -9c4 -1 4 2 6 4c8 -7 -4 -9 -3 -15c-1 1 -2 3 -4 3c0 -3 -5 -14 5 -13c-6 -1 -8 -7 -11 -11c0 -3 8 2 6 -4c-2 -4 -6 -6 -12 -7
c1 -4 1 -7 0 -9c0 -2 4 -2 4 0c3 -7 -5 -15 -5 -20c-5 0 -6 12 0 13c-3 3 -7 3 -8 5c-9 -4 -11 -12 -17 -18c8 0 8 1 21 0c0 -7 -4 -12 -5 -21h-12c8 -4 -2 -8 1 -15c-6 4 -9 -1 -13 -1c10 -6 -1 -11 7 -16c-6 1 1 -8 -8 -5c9 -7 -6 -4 2 -15c-15 0 -9 -17 -22 -15
c2 6 2 14 9 15c-8 6 -9 -6 -12 -11c-1 1 -1 3 -4 3c-3 -6 -15 -23 -10 -31c-12 3 -8 -5 -11 -10c-4 -2 -4 2 -5 5c-5 0 -5 -11 -7 0c-7 -7 -6 -20 -19 -23c2 -9 -1 -14 -3 -20c-14 11 -4 24 -12 34c10 16 7 42 12 64c16 7 10 27 10 40c7 6 6 17 11 24c-5 2 0 -5 -6 -2
c12 15 3 40 18 51c-2 8 -3 14 0 17c0 4 -6 1 -9 2c8 22 17 43 26 65c-28 0 -67 12 -93 3c-4 0 -6 0 -6 2c-19 -8 -38 -2 -52 -12c-26 0 -50 0 -65 -11c-5 0 -4 6 2 5c-8 2 -23 0 -26 -5c-25 0 -30 -14 -40 -22c6 -14 -13 -31 -14 -50c-5 1 -6 -3 -11 0c4 -3 6 -9 6 -16
c-5 -2 -12 -2 -11 -6c4 -5 5 1 9 1c2 -8 -13 -9 -9 -15c-2 -4 -17 2 -11 -7c-12 3 -17 -1 -19 -7c-12 1 -12 -6 -21 -6c-2 -18 -19 -24 -22 -41c-12 -1 -10 -4 -13 -9c-3 0 -3 2 -3 3c-6 -3 -9 -8 -11 -16c-13 -1 -16 -9 -29 -10c-3 16 -4 23 2 32c0 19 16 32 8 57
c7 0 4 8 10 8c3 27 16 44 18 69c-1 3 -4 2 -5 4c-17 -4 -26 6 -40 12c19 16 57 20 73 40c-1 5 -2 9 -1 13c0 1 -4 0 -7 0c1 3 2 4 1 8h7c0 11 -6 18 7 17c0 29 12 60 28 83c-2 29 21 42 27 65h5c-6 10 9 15 8 25c13 3 15 11 16 22c8 -2 3 7 10 6c2 19 22 26 25 45
c16 12 27 27 40 41c49 2 94 -22 118 -52c-3 -13 -6 -25 -20 -29c-8 -17 -15 -35 -29 -47c1 -7 1 -13 -8 -13c-4 -9 -4 -20 -13 -25c-8 -27 -31 -46 -41 -73c-8 -2 -11 -7 -10 -15c-12 -5 -12 -16 -12 -25c-9 -1 -7 -9 -17 -11c56 10 141 22 204 11c2 -1 2 3 2 3
c10 -2 24 -7 37 -6c6 12 9 33 16 47c-6 7 8 19 7 30c-7 -5 -6 -13 -10 -19c-6 6 7 21 9 27c-1 -2 -3 11 4 10c2 30 23 41 25 68c11 4 8 19 15 24c0 4 -5 1 -5 7c6 -1 6 2 10 2c-1 6 -3 5 -2 9c11 7 7 25 21 31c7 27 31 43 43 66c12 3 27 9 42 5c6 -7 11 -9 21 -10
c4 -12 21 -10 25 -23c0 -1 2 -1 5 -1c2 -6 4 -13 10 -17c-2 -24 -21 -36 -25 -60c-9 -5 -10 -15 -11 -28c-9 -6 -11 -16 -11 -29c-11 -11 -12 -27 -22 -37c2 -8 -4 -9 -1 -19c-15 -9 -14 -30 -26 -41c0 -3 1 -6 2 -10c-4 1 -4 -2 -9 -1c3 -5 1 -5 4 -11c-12 3 0 -10 -12 -7
v-5s0 -13 -3 -21c-2 -2 -7 -4 -10 -6c-2 -8 -2 -15 -11 -20c0 -4 5 3 7 -2c-4 -3 -18 -3 -10 -12h-9c0 -2 0 -3 1 -6c6 7 0 0 9 0c-4 -5 -7 -9 -6 -17c-8 3 -9 0 -15 0c6 -8 2 -4 1 -12c0 -2 6 -1 7 -2c6 -1 -3 7 5 5c1 -2 1 -4 2 -8c-8 3 -5 -1 -8 -2s-4 1 -4 2
c-2 0 -2 -4 -8 -3zM525 230h-10c0 -20 -17 -34 -6 -58c2 3 -1 9 5 7c-7 15 9 23 0 32c6 4 4 13 11 19zM563 335c0 -3 -8 -3 -1 -6c1 6 5 -2 10 0c-3 3 2 3 1 6c-3 0 -3 1 -6 1c1 -6 -1 -1 -4 -1zM457 320c0 4 4 -1 8 0c-3 2 -1 8 -5 8c3 -5 -9 -5 -3 -8zM520 261
c6 4 1 1 10 0c-2 3 1 4 1 6c-6 0 -14 0 -11 -6zM481 168c4 -2 6 6 2 7c1 -4 -6 -2 -2 -7zM404 195c1 3 4 -9 2 -11c-4 2 -2 9 -2 11zM389 123c8 -6 -2 -9 0 -15c-6 5 2 9 0 15zM499 113c2 -2 0 -6 3 -9h-6c-1 3 -1 5 -1 6c2 0 5 0 4 3zM388 106c2 4 3 -6 -3 -4
c4 -4 4 -8 -1 -11c2 7 -3 11 4 15zM386 83c3 -5 -5 -5 -1 -14c-2 -2 -5 15 1 14zM383 62c1 -4 -1 -14 -6 -15c5 3 1 12 6 15z" />
    <glyph glyph-name="i" unicode="i" horiz-adv-x="222" 
d="M226 627c4 1 5 -1 5 -3c14 0 30 0 37 -8c10 2 17 -9 27 -10c8 -2 19 2 25 -2c1 0 1 -4 2 -4c15 -9 25 -13 33 -29v-18c-8 -7 -13 -17 -26 -17c0 -13 -7 -20 -17 -24c-2 -6 0 -7 -2 -10c-10 -4 -19 -12 -23 -23c-6 2 -3 -6 -9 -5c-19 -47 -57 -84 -73 -129
c-9 -8 -15 -19 -17 -34h-6c-1 -23 -19 -29 -17 -54c-1 0 -3 -1 -4 -1c-16 -60 -36 -114 -46 -177h-5c-12 -24 -29 -46 -43 -73c-11 5 -26 31 -34 39c-3 11 -13 24 -17 34c6 4 -4 7 3 9c-12 16 -15 30 -14 59c-1 1 -6 0 -6 3c-2 14 -1 47 4 65c1 2 -2 2 -4 2c0 4 6 3 6 7
c-6 20 14 26 11 48c8 2 4 17 14 19c3 25 21 36 25 61c2 5 7 6 6 14c12 3 5 24 19 26c1 11 10 12 9 24c14 1 5 26 20 26v10c10 1 3 15 17 17c20 61 65 103 100 158z" />
    <glyph glyph-name="j" unicode="j" horiz-adv-x="461" 
d="M295 373c-2 5 9 -1 5 6c2 -1 1 -4 3 -4c4 5 7 15 2 21c21 44 28 91 45 137c-16 -1 -29 -17 -43 -23c-30 -8 -52 -21 -72 -37c-5 1 -3 1 -8 0c-2 0 -2 -3 -2 -5c-27 -8 -54 -31 -89 -22c-16 4 -38 20 -47 35c24 35 65 56 106 76c3 0 1 3 1 5c16 2 28 7 35 17
c22 3 33 13 47 22c34 7 55 26 88 33c0 7 2 10 9 10c1 3 0 5 -3 5c46 10 90 -37 133 -54c0 -6 2 -8 6 -11c-4 -17 -6 -41 -1 -57c-5 -24 -12 -49 -17 -74c-6 3 -3 -3 -8 -2c-1 -24 -5 -47 -18 -60c0 -3 0 -8 1 -12h-7c0 -4 1 -7 1 -11c-21 -25 -29 -63 -51 -87
c2 -2 5 -2 4 -6c-12 -12 -9 -38 -24 -48c2 -2 4 -1 7 -2c-7 -20 -17 -39 -30 -55c4 -5 4 3 8 2c0 -7 -9 -6 -14 -9c-2 -6 10 -5 4 -8c-4 -7 -14 -9 -15 -18c6 -1 7 4 11 5c0 0 -13 -21 -13 -26c-9 -1 -11 -8 -17 -11c4 -3 9 -1 10 4c-1 -8 -23 -24 -27 -39
c-11 0 -12 -1 -22 0c-9 -14 -30 -20 -36 -35c-11 -8 -28 -3 -35 -19c-9 2 -13 -2 -17 -5c6 -3 13 -2 17 2c3 -6 1 -10 -3 -11c5 5 -17 9 -25 5c-5 -4 7 -4 -2 0c-2 2 -9 -8 -8 -7c1 -1 4 -1 3 -4c3 4 14 1 16 6c5 2 3 -5 9 -3c-11 -3 -18 -10 -34 -8c1 5 -3 5 -8 5
c3 3 0 2 0 6c-1 0 -1 -3 -1 -4c-22 0 -59 -21 -75 6c-3 -1 -12 0 -9 -6c-5 2 -13 4 -17 9c-6 2 -1 -6 -8 -3c2 10 -11 1 -3 7c-2 3 -6 4 -11 4c-2 5 2 4 1 8c-2 3 -11 0 -16 1c-12 19 -36 22 -49 39c9 3 6 -5 10 -8c5 0 0 8 8 5c-3 8 -5 19 0 23c0 5 -6 1 -4 9
c-4 -1 1 -8 -7 -5c5 22 13 39 20 59c-8 -8 -10 -21 -16 -30c-3 9 7 19 7 30c-5 -3 -4 -12 -8 -15c-2 1 -2 13 2 13c1 41 29 58 42 88c16 14 31 29 44 47c11 5 20 14 26 24c26 14 44 34 75 43c1 4 7 3 7 9c23 3 37 17 61 20c7 8 26 6 32 16c5 0 4 -5 8 -5c2 -10 -1 -16 1 -27
c0 -4 8 1 7 -4c7 7 0 12 6 18c-2 4 -4 -2 -8 0zM269 338c-11 -17 -34 -23 -53 -33v2c-23 -13 -43 -28 -69 -39c-10 -19 -34 -24 -39 -46c-28 -13 -13 -62 -25 -89c6 -3 8 4 9 0c-6 -8 1 -26 1 -37c15 -3 9 -16 21 -22c-3 2 28 0 25 0c22 3 45 25 56 35c-7 1 -5 -5 -9 -6
c-2 3 -6 1 -7 4c1 3 3 7 10 6c5 22 29 30 35 53c5 0 6 3 8 4c0 1 -1 2 -2 4h6c-4 9 12 14 0 21c10 1 16 4 15 14c-4 2 -5 -3 -7 0c10 7 13 16 16 26c0 3 -5 1 -5 3c9 1 1 1 0 6c11 0 4 16 15 17c0 -4 -3 -4 -4 -5c10 1 9 11 16 14c0 5 -7 2 -8 5c6 -1 6 3 6 6
c-2 0 -4 -1 -5 0c4 2 6 6 6 11c-3 1 -6 -5 -9 0c11 13 20 43 19 56c-3 -6 -10 -11 -22 -10zM316 115c6 -12 -5 -9 -4 -17c10 10 17 21 24 33c-9 -3 -9 -14 -20 -16zM297 78c8 4 18 5 21 12c-7 2 -9 -1 -10 -5c1 5 -1 6 -5 5c3 -8 -6 -6 -6 -12zM38 31c8 0 15 0 16 6
c-10 2 -11 -4 -16 -6z" />
    <glyph glyph-name="k" unicode="k" horiz-adv-x="518" 
d="M242 414c12 0 24 12 40 15c32 28 78 41 105 71h9c14 13 35 18 47 34c23 6 39 18 58 27c3 -1 5 -2 6 -4c39 3 69 -27 95 -45c-2 -4 1 -5 2 -7c-5 -11 -18 -15 -31 -17c-7 -8 -24 -13 -38 -18c-19 -7 -38 -20 -56 -27c-1 -1 -1 4 -1 4c-4 0 -19 -10 -25 -14
c-11 -8 -32 -17 -38 -29c-11 0 -12 -8 -22 -10c-28 -21 -66 -34 -90 -59c-10 0 -19 -3 -19 -13c-3 -1 -4 1 -4 3c-18 -27 -59 -34 -74 -65c26 -19 58 -32 97 -39c6 -8 17 -11 33 -11c2 -7 14 -7 23 -9c7 -6 15 -12 28 -13c18 -13 38 -20 55 -33c-1 -1 -2 -3 -1 -4
c-14 4 -21 -9 -26 -4c-30 -17 -66 5 -88 18c-8 -3 -30 12 -41 10c-5 0 3 3 0 7c-8 2 -8 -5 -14 -5c-7 8 -21 10 -33 16c-3 -1 -1 -3 -4 -3c-17 4 -23 18 -46 18c1 3 -5 2 -3 8c-12 -5 -24 14 -31 22c-11 0 2 -10 -11 -9c4 -14 -9 -23 -7 -41c-3 0 -4 -2 -6 -2
c-1 -26 -17 -50 -26 -71h-7c-2 -20 -12 -33 -26 -41c0 -10 -2 -18 -13 -18c-1 1 -2 3 -1 7c-4 -2 -6 -6 -6 -11c-6 6 -16 0 -17 -9c-11 5 -17 -6 -20 -10c-11 1 -16 0 -22 -4c0 4 0 9 -2 10c-6 -4 6 -16 -5 -16c-7 23 -12 47 -7 72c3 0 4 0 7 1c4 124 63 211 105 302h5
c6 16 13 30 23 42c4 17 11 33 23 40c1 12 8 19 14 25c-1 1 -4 1 -3 5c4 0 5 2 9 3c9 24 31 36 40 61h4c10 26 36 35 52 54c4 -1 4 0 4 3c6 0 12 1 14 -3c14 5 29 -13 47 -14c8 -13 23 -18 36 -26c6 -17 1 -46 -21 -48c-22 -30 -51 -54 -66 -90c-16 -2 -16 -28 -30 -36z" />
    <glyph glyph-name="l" unicode="l" horiz-adv-x="486" 
d="M323 621c2 -2 2 -4 2 -7c10 6 13 -11 24 -5c0 -1 1 -3 0 -6c24 -3 33 -20 44 -37c12 0 7 -16 14 -21c2 -14 -5 -17 -5 -29c-19 -8 -31 -21 -49 -29c-2 -7 7 -1 6 -5v-3c3 -6 -13 -5 -2 -7c-8 -6 -15 -2 -22 -6c4 -9 -3 -7 -8 -9c6 -8 -11 -10 -19 -13
c3 -14 -11 -14 -15 -22c0 -3 4 -1 4 -4c-6 -11 -21 -14 -32 -22c7 -2 0 -5 0 -12c-10 1 -12 -4 -18 -4c-1 -4 2 -4 4 -7c-1 -3 -7 0 -6 -7c-2 0 -1 5 -1 7c-12 2 -6 -13 -17 -11c-5 -13 -9 -24 -18 -31v-10c-18 -9 -14 -34 -30 -43c-1 -25 -17 -32 -14 -59
c-10 -19 -10 -47 -17 -69c87 42 165 93 270 115c12 6 28 17 45 13c-5 -6 -7 -16 -15 -19c-1 -6 1 -8 3 -9c-4 -6 -7 -15 -17 -16c-1 -9 2 -12 -1 -19c-18 -4 -29 -5 -36 -19c-24 -7 -39 -23 -59 -33c-2 0 -2 -3 -2 -5c-9 0 -19 -5 -23 -14c-16 -7 -30 -13 -38 -29
c-15 -3 -24 -14 -31 -24c-17 -2 -25 -15 -32 -27c-24 -10 -41 -30 -63 -42c-2 0 -7 -2 -6 4c-18 -9 -43 -9 -58 0c-13 -4 -33 10 -42 23c-14 3 -34 16 -40 27c-4 10 0 30 -7 39c9 24 1 57 15 76c-4 5 9 36 20 49c1 3 0 10 0 12c3 9 13 17 12 27h6c-8 7 9 11 5 27
c4 0 2 5 7 2c6 24 23 37 27 62h5c0 9 10 12 10 24c2 0 4 3 7 2c-2 10 5 11 3 19c11 -1 -2 9 11 7c2 26 25 30 29 55c9 -3 3 10 12 7c0 6 2 4 0 11c29 20 38 61 69 78c-2 5 3 5 1 10c5 -1 5 4 10 2v7c18 10 29 51 55 31c11 2 16 -5 23 -2z" />
    <glyph glyph-name="m" unicode="m" horiz-adv-x="563" 
d="M432 -1c-6 0 -5 5 -10 5c-4 -3 -8 -6 -9 -10c-8 0 -11 4 -19 1c0 -8 -9 -8 -5 -19c-11 -2 -14 2 -21 4c-5 -1 4 -9 -1 -9c-8 4 -17 16 -14 25c-1 -2 -1 -4 -5 -4c1 20 0 28 -5 45c1 10 7 19 6 30c0 1 -4 4 -4 7c1 22 8 42 9 68c3 1 10 0 8 3c1 7 -7 0 -7 2
c-1 8 6 10 9 15c-8 2 -4 15 2 17c-1 2 -4 1 -5 3c25 65 46 131 79 191c0 4 -1 7 -1 11c-2 6 8 5 7 10c-12 -7 -28 -24 -32 -40c-2 0 -5 0 -7 -1c-5 -8 -7 -18 -20 -21c0 -5 -3 -8 -3 -12c-32 -23 -45 -58 -78 -82c0 -13 -25 -41 -38 -44c-17 -4 -32 4 -47 7
c-2 0 -1 -2 -1 -4c-26 8 -57 8 -67 30c-14 -12 -19 -28 -24 -45c-22 -5 -9 -26 -25 -37c6 -35 -14 -68 -6 -97c-7 -8 -3 -17 -11 -25c-12 -12 -40 -10 -59 -6c-2 -1 -1 -3 -3 -4c-10 4 -37 0 -33 10c-3 2 -8 1 -12 0c1 65 11 132 27 189c3 15 8 28 13 44c4 9 11 19 15 30
c7 12 8 27 13 39c5 10 16 19 18 27c1 2 -2 5 -1 7c2 5 10 8 12 13c2 3 -1 6 1 10c2 6 12 12 15 19c1 3 -1 6 1 8c2 4 8 6 10 11c12 17 19 36 31 54c7 12 16 26 23 33c1 1 5 0 6 1c2 3 0 9 2 13c2 2 8 1 9 4c5 3 9 17 14 24c2 3 10 5 11 7c5 6 11 10 15 20c9 4 25 4 32 10
c5 -3 9 1 15 1c19 0 27 -9 34 -19c4 -30 -7 -51 -13 -81c-2 -14 -9 -25 -13 -40c-1 -9 2 -16 0 -22c-3 -3 -4 -2 -5 -11c-3 -14 -12 -30 -15 -44c-3 -13 0 -26 -9 -39c1 -19 1 -25 3 -41c7 8 18 14 20 26c7 -2 4 4 9 3c7 15 24 22 28 38c10 7 19 14 23 24c26 20 49 44 69 68
c9 5 17 11 18 19c18 9 30 23 39 36c26 13 35 35 61 48c-1 5 7 5 6 10c11 -1 13 11 19 15c9 7 28 10 25 20c10 4 24 0 29 7c23 -4 50 -2 63 -16c-1 -5 0 -15 1 -25c-14 -9 -14 -31 -28 -40c0 -3 0 -6 1 -7c-8 -11 -17 -18 -19 -30c-9 -3 -3 -15 -6 -21
c-14 -13 -22 -28 -28 -45c-6 0 -2 -8 -10 -7c-3 -19 -15 -35 -23 -50c-2 -43 -30 -70 -36 -110c-11 -2 -2 -17 -13 -20c-7 -28 -19 -65 -30 -96c-1 -1 1 -1 4 -1c-10 -32 -16 -66 -16 -103c-14 -10 -18 -18 -18 -34zM359 130c10 -2 9 11 3 11c4 -5 -6 -4 -3 -11z" />
    <glyph glyph-name="n" unicode="n" horiz-adv-x="596" 
d="M266 301c2 -1 3 -4 3 -7c-5 -1 -1 4 -7 2c1 2 4 2 4 5zM58 247c-4 -1 -3 -8 -11 -7c2 4 5 7 11 7zM303 214c3 0 1 -7 2 -9c-6 0 -1 -14 0 -22c-5 8 -9 17 -9 28c3 0 9 -2 7 3zM308 167c1 -1 1 -3 1 -3c1 -18 0 -7 -1 3zM16 157c1 2 4 3 7 3c0 -9 -10 -9 -10 -16
c-10 5 8 9 3 13zM76 80c0 -1 1 -3 1 -6c-5 0 -8 0 -7 5c2 0 2 2 6 1zM358 278c8 33 20 61 33 91c7 7 17 13 18 25c6 6 15 9 15 21h5c-1 16 17 15 15 31c5 -1 3 4 7 3c20 39 49 69 67 107c9 0 8 12 16 12v9c14 2 10 21 26 22v8c5 -2 13 9 15 3c10 10 26 1 35 -2
c7 -2 14 1 19 -1c2 -2 9 -12 10 -6c8 -9 17 -18 22 -32c-4 -3 -4 -4 0 -10c-6 -13 -16 -23 -20 -38h-6c-1 -4 2 -13 -6 -12c5 -7 -11 -11 -8 -26c-10 -14 -18 -29 -22 -49c-3 1 -4 -1 -6 -2c1 -6 -2 -8 -2 -14c-8 0 -9 -7 -9 -15c-12 -11 -17 -29 -26 -44
c-15 -25 -22 -63 -38 -92c3 -5 -6 -21 -12 -28c12 -14 -2 -37 -10 -54c-1 -2 3 -2 3 -2c-4 -11 -8 -19 -9 -27c-1 -2 3 -12 -8 -13c6 -1 2 -8 6 -10c-11 -6 -2 -31 -16 -34c5 -4 -2 -3 3 -7h-5c4 -4 -2 -9 0 -16c-7 -1 -2 -2 -11 -2c0 -3 -9 -9 -1 -10c-1 -1 -8 0 -8 -3
c-19 10 -31 -8 -52 -12c-1 -6 3 -7 2 -11c-6 -4 -14 -3 -16 -9c-8 -3 -13 4 -21 0c8 6 -3 2 -13 5c-3 0 -6 7 -9 8c-11 3 -26 -4 -32 -7c0 22 -17 67 -1 85c-4 13 -10 28 -12 42h7c-2 -5 2 -14 6 -19c3 0 -2 11 6 8v17c7 -1 6 15 0 15c0 16 -7 30 -10 43s0 26 -11 34
c-5 -4 6 -6 2 -13c-7 0 -1 10 -8 9c-5 0 7 -5 -2 -5c2 -2 5 -2 4 -6c-8 -2 -5 4 -9 5c-4 -3 9 -11 0 -15c-8 18 -16 36 -13 57c3 -1 -1 -10 6 -7c1 -3 -3 -3 -2 -7c6 1 8 5 9 11c-2 -1 -2 -4 -5 -4c-2 9 -4 18 -7 24c-2 -1 -8 -1 -7 -6c-5 15 -12 40 -17 66c-3 0 -8 0 -7 7
c-1 -1 -3 -2 -5 -2c1 8 -3 11 -8 12c-2 -2 -2 -8 -10 -7c0 -10 -4 -20 -11 -25c-3 -11 -6 -22 -16 -26c3 -27 -23 -35 -19 -58c-9 1 -5 -11 -13 -13c9 -1 -4 -6 0 -16c-4 2 -5 -1 -9 -1c8 -7 -5 -16 -6 -23c0 0 2 -2 2 -1c-6 -19 -21 -38 -31 -56c-2 -4 4 -1 3 -6
c-3 -1 -8 -1 -11 -3c6 -12 -20 -20 -17 -40c3 1 6 1 6 7c-1 -11 -10 -23 -13 -38c-4 0 -9 1 -8 6c-13 0 -5 -16 -13 -22c8 0 4 10 11 10c5 0 2 -10 0 -13c-9 1 -13 -3 -12 -11c-4 -1 -8 3 -10 0c-2 0 -3 2 -2 4c-9 -4 -9 0 -16 -4c-3 1 1 8 -2 10c-5 -1 -8 -1 -8 -6
c-1 1 -2 10 -14 10c0 -5 8 -1 5 -10c-1 1 -1 4 -1 6c-6 0 -6 -3 -11 -2c1 5 -5 2 -2 6c-10 2 -7 -3 -9 -6c-15 -1 -26 5 -29 16h6c-1 1 -6 0 -4 5c5 0 4 -5 4 -8h4c4 10 16 14 14 29c5 2 10 3 14 5c0 -8 -3 -12 -2 -20c6 -1 5 5 5 9c25 17 21 61 42 81c5 20 16 34 24 51
c-9 4 -9 -12 -12 -5c-6 -3 1 -6 -2 -10c-8 2 -6 -5 -10 -6c5 23 26 43 30 71c0 2 -3 -2 -8 0c2 3 1 9 6 11c3 0 -3 -3 0 -6c2 2 3 8 2 13c5 -2 6 -2 13 -1c1 5 7 8 8 14c-1 4 -7 -3 -8 1c-4 -5 -9 -10 -15 -14c-3 1 6 12 0 14c10 5 18 25 7 31c0 2 5 1 3 6c2 0 2 -3 2 -5
c1 1 8 8 1 9c0 1 2 0 2 0c14 20 22 42 36 61c-5 19 19 20 13 35c4 5 5 14 9 17c3 29 26 38 27 67c14 12 18 31 28 46c4 1 3 -2 6 -2c10 10 43 13 52 0c27 2 53 -26 53 -52h-4c1 -3 -4 -13 3 -12c-5 -24 17 -63 13 -84c9 -10 4 -35 15 -44c-2 -27 14 -39 7 -62c0 -4 3 3 7 0
c-2 -9 5 -11 3 -21c7 7 -2 -17 5 -20zM72 94h-8c1 -3 0 -8 6 -8c-1 4 3 4 2 8zM87 325c-5 2 -7 -7 -4 -9c2 3 6 3 4 9zM283 309c2 2 1 14 -2 14c1 -8 -5 -12 2 -14zM128 287h5c1 5 -3 5 -5 6v-6zM64 229c1 2 5 1 6 2c0 2 3 8 -2 8c-2 -1 -6 -9 -4 -10zM458 76c3 0 3 9 0 9
c0 -2 -8 -8 0 -9zM54 270c3 3 -1 -8 -2 -9c3 -2 8 4 7 11c11 -7 -4 -23 -12 -26c0 7 1 11 1 19c4 0 6 2 6 5zM294 240c-3 3 4 -1 7 0c1 -9 3 -17 4 -24c-4 0 -7 1 -12 1c11 5 0 20 1 23zM286 206c3 -2 3 -5 0 -6c1 -2 4 -2 4 -5c2 0 1 3 2 5c4 -2 -1 -6 0 -9c0 -5 2 2 6 0
c-3 -8 7 -17 5 -27c-3 5 -6 1 -10 0c1 20 -10 30 -9 50c3 0 1 -5 4 -5c2 0 2 1 2 2c3 0 0 -6 -4 -5zM40 203c-6 -1 1 -16 -10 -14c7 2 2 13 10 14zM309 189c1 5 0 -7 4 -6c-4 -6 0 -6 0 -13c-6 2 -4 13 -4 19zM303 183c3 -2 7 -11 5 -15c-7 1 -2 12 -5 15z" />
    <glyph glyph-name="o" unicode="o" horiz-adv-x="519" 
d="M2 188c1 4 7 -2 7 -5c-2 0 -3 0 -4 -1c-4 -1 2 7 -3 6zM23 321c8 -4 -1 -3 -1 -10c-4 11 12 18 16 26c-3 -7 -6 -14 -15 -16zM34 134c0 2 1 1 1 0c4 12 -18 25 -20 43c0 2 -3 1 -5 2c0 9 -1 18 -5 25c0 3 4 3 5 6c7 2 3 -4 9 -3c7 9 0 24 8 28c0 5 -6 3 -6 7
c-6 1 -3 -6 -9 -3c4 -13 -3 -18 3 -26c0 -2 -4 -1 -6 -1c1 7 -4 5 -4 9c-2 -8 -1 -17 0 -28c-17 33 3 59 7 93h5c1 4 -8 -1 -5 5c5 -1 4 2 9 2c1 14 7 25 17 33c1 14 10 18 14 29c-6 2 -3 -6 -10 -4c12 26 34 40 43 68h5c5 12 13 24 23 32c2 8 6 14 14 17c-2 10 8 9 6 19
c7 -2 4 5 11 3c-2 13 12 12 13 23h5c13 22 34 36 50 56c12 7 21 16 31 26c21 6 35 5 55 -2c0 -9 14 -5 17 -11c1 1 0 5 1 9c10 0 22 -10 27 2c1 -3 9 0 7 -5c3 1 2 7 3 10c12 2 16 -6 22 0c-1 -4 1 -5 2 -7c13 0 26 1 29 -7c16 3 40 -12 56 -20c-1 -11 8 -13 11 -22h-9
c0 -3 2 -3 2 -6c1 1 6 6 5 0c4 1 2 6 7 4c6 -9 10 -20 13 -33c-5 3 -3 12 -13 10c10 -15 15 -38 11 -57c7 -7 -2 -35 7 -44c-2 0 -3 0 -3 -1c9 -7 -7 -22 3 -29c-7 -15 -6 -35 -5 -57c-5 -2 -9 -24 -2 -24c-3 0 -9 -7 0 -6c-6 0 -2 -6 -4 -13c-1 -2 -5 -1 -6 -2
c-1 -2 2 -5 0 -7c0 -2 -3 -1 -4 -2c-3 -4 -1 -10 -4 -16c-3 -7 -8 -15 -7 -30c-13 -4 -4 -29 -21 -30c1 -10 -5 -16 -12 -22c6 -4 0 -19 -11 -24c2 -7 2 -7 -4 -11c6 -8 -7 -21 -14 -25c0 -15 -16 -13 -15 -27c-7 3 -12 -14 -17 -2c-2 -4 -4 -9 -5 -14c-3 1 -2 7 -9 5
c-1 -4 8 1 6 -5c-9 0 -3 -2 -6 -6c-10 -4 -18 -5 -21 -11c-6 -9 2 -2 -2 -2c-1 0 -10 -13 -8 -12c-11 0 -13 -7 -17 -13c-7 3 -13 -14 -23 -8c-1 3 3 2 3 4c-7 -1 -11 -8 -17 -10c-1 -1 -1 3 -3 3c-5 -1 -16 -14 -18 -7c-3 -1 0 -7 -7 -4c0 -3 1 -3 3 -3c-6 -6 -5 2 -6 7
c-15 -1 -31 -13 -44 -4c-3 -4 -8 -3 -9 4c-12 -9 -26 5 -37 2c-5 10 -14 5 -25 8c1 8 1 -3 7 0c0 3 -3 3 -2 8c-2 1 -9 -2 -9 2c-3 -1 3 -3 0 -7c-3 3 -5 7 -13 7c-2 12 -18 13 -25 22c-24 4 -1 0 11 3c-1 8 -12 7 -12 15c-3 0 -10 2 -11 -1c-6 10 -12 33 -25 41
c5 6 -10 15 -12 22zM435 562c0 -3 -5 -1 -6 -4c4 -1 8 -2 9 -5c1 6 0 10 -1 13c-12 2 -17 11 -31 11c6 -10 19 -11 29 -15zM350 218c11 20 26 35 33 59h5c7 23 14 46 25 66c3 15 4 46 10 49c2 5 -6 1 -3 6c9 12 7 36 3 53c0 2 -5 3 -5 6c-2 27 -20 45 -30 65c-1 2 -7 0 -7 3
v4c-15 11 -28 24 -46 33c0 1 0 3 -2 4c-4 -13 -4 -30 -17 -35c-5 -22 -24 -29 -33 -49c-21 -12 -25 -41 -46 -52c0 -6 -6 -6 -4 -14c-12 -15 -24 -31 -29 -52c-21 -22 -34 -51 -49 -78c-10 -1 -10 -11 -15 -16c-1 -17 -10 -26 -19 -38c0 -5 1 -12 -6 -11
c2 -17 -5 -21 -2 -31c-9 -1 0 -1 -1 -5c-3 -8 -11 -25 -7 -27c2 4 3 8 10 8c-3 -14 2 -33 4 -45c0 -1 -4 -1 -4 -2c1 -3 13 -10 6 -16c9 2 6 -6 9 -8c25 -17 64 4 88 8c-1 6 9 3 9 9c21 6 28 25 50 32c1 2 1 6 3 8c4 -2 4 2 8 1c2 8 6 13 14 11c10 22 37 37 44 57
c1 -1 1 -3 4 -3zM473 420v10h-5c-2 -6 3 -7 5 -10zM42 299v-6c3 0 9 7 4 9c1 -3 0 -4 -4 -3z" />
    <glyph glyph-name="p" unicode="p" horiz-adv-x="563" 
d="M0 69c-9 -2 -3 -14 -1 -17c-4 0 -4 2 -8 2c3 -20 -6 -29 -13 -45c-7 1 0 15 -10 14c2 21 -13 49 1 63c0 -4 -3 -15 -2 -17c7 13 1 36 13 45c2 7 -6 4 -6 8c11 23 13 69 26 98c0 4 -4 3 -4 5c9 9 6 31 15 38c-1 0 4 19 9 33c2 6 10 9 14 16c4 13 -4 22 6 30
c2 6 7 10 14 18c0 1 -3 0 -6 1c17 37 41 92 70 127c-27 22 -50 43 -60 80c1 4 11 7 6 13c58 12 106 42 162 49c4 0 1 4 2 8c8 -8 24 8 31 -4c41 10 69 5 106 4c16 -5 29 -8 50 -11c26 -14 49 -26 77 -38v-6c41 -20 64 -58 75 -107c8 -18 8 -46 0 -73c-7 -19 -20 -31 -26 -45
c-9 -1 -13 -5 -15 -10c-7 2 -4 -8 -14 -6c-26 -23 -55 -45 -94 -58c-30 -21 -67 -22 -99 -44c-26 -8 -45 -13 -73 -21v3c-37 -8 -87 -16 -134 -13c-17 -26 -16 -50 -25 -80c2 -4 -6 -8 -3 -22h-7c3 -16 -15 -15 -12 -24c-11 -1 -15 -15 -17 -29c-4 -5 -1 7 -1 9
c-2 0 -4 -8 -6 -1c-5 -10 -11 -16 -15 -27c-7 13 -17 -7 -25 -11c-5 10 0 29 -1 45zM451 522c0 4 -3 5 0 10c-9 4 -14 13 -18 18c-26 14 -82 21 -115 -1c-1 -14 -16 -13 -20 -24c5 0 8 1 8 -1c-12 3 -4 -10 -12 -11h-7c-48 -57 -77 -112 -117 -174c-2 -6 -2 -18 -11 -16
c-1 -8 -5 -15 -6 -22c34 6 62 21 96 25c50 24 96 47 142 70c18 19 41 31 61 46c6 11 12 19 17 29c-7 15 -1 43 -18 51zM8 219h5c4 6 -5 3 -1 8c1 0 4 0 3 2c-8 3 -7 -5 -7 -10zM-6 169c4 -5 -4 -18 4 -20c2 12 21 30 8 42c6 1 10 14 6 18c-10 -8 -5 -32 -18 -40zM-8 79
c11 6 8 39 6 47c7 0 2 13 4 18c-2 0 -2 3 -4 0c-1 -15 -11 -44 -6 -65z" />
    <glyph glyph-name="q" unicode="q" horiz-adv-x="592" 
d="M559 454c6 3 5 -2 9 -2c0 -3 -10 -1 -9 2zM522 545c-2 -9 8 -7 4 -18c3 0 4 2 7 2c1 -9 8 -23 -3 -26c5 -3 8 3 14 1c1 -8 3 -5 2 -15c14 -14 1 -54 22 -61c-1 -1 -4 -2 -3 -7c-3 3 -2 0 -6 0v7c-11 -6 0 -18 -5 -25c1 -5 5 1 8 0c-5 -24 6 -46 -8 -64c-2 -7 5 -4 5 -9
c-1 -11 -12 -17 -7 -28c-9 -9 -7 -31 -22 -34c-6 -23 -20 -36 -36 -49c-2 -5 5 -1 4 -6c-8 -6 -17 -9 -18 -21h-6c0 -6 -7 -15 -17 -15v-7c-11 -7 -15 -21 -27 -26c-1 -4 -5 -5 -4 -11c-14 -5 -22 -18 -35 -25c24 -12 64 -8 79 -29c4 1 5 -2 10 -2c2 -5 3 -12 11 -11
c3 -4 -2 -17 7 -11c-2 -7 6 -7 1 -11c2 2 4 2 6 0c-9 -9 -16 -6 -31 -6c-1 0 0 -3 0 -6c-5 -2 -5 8 -6 0c-13 3 -35 2 -40 0c-2 2 -4 3 -4 5c-61 2 -99 -2 -165 -5c-5 1 -2 -6 -6 -5c-1 8 -8 -5 -11 4c-12 -6 -40 -8 -48 -7c-16 -7 -45 -4 -60 -17c-45 2 -84 -33 -124 -15
c5 6 2 6 0 13c2 10 13 10 17 19c1 -1 1 -3 3 -3c24 20 51 33 84 42c-23 21 -53 35 -80 53c-3 8 -8 15 -17 17c-4 14 -10 25 -18 35c-3 20 0 47 -6 59c2 6 2 5 0 10c8 4 0 24 9 28c1 4 -6 3 -3 9c3 4 4 8 8 10c9 35 30 62 55 85c-1 5 3 5 2 10c14 3 17 19 30 24
c26 36 65 60 94 94c43 29 78 66 126 90c24 21 60 30 86 49c16 1 34 -2 48 -7c7 -3 19 -4 26 -8c1 -1 1 -5 2 -5c6 -3 12 -2 15 -4c4 -6 -1 -14 7 -15c0 -22 2 -46 24 -52zM418 547c-1 0 -2 4 -3 3c-1 0 -6 -7 -13 -10c-9 -3 -8 -5 -13 -8c-8 -5 -19 -6 -26 -11
c-2 -2 -1 -9 -8 -11c-5 -2 -4 -2 -6 -6c-10 0 -19 -2 -20 -12c-13 1 -9 -15 -24 -13c-4 -13 -19 -16 -26 -27c-17 -7 -21 -26 -39 -33c1 -6 -4 -7 -2 -15c-15 -10 -23 -27 -39 -38c-1 -12 -14 -13 -15 -27c-9 -7 -16 -15 -17 -30c-6 0 -6 -5 -10 -7c-10 -29 -19 -59 -34 -83
c-3 -33 -5 -64 8 -86c20 -12 63 -8 79 -2c0 0 1 -3 0 -4c60 15 104 44 139 82h6c33 42 75 74 93 132c13 22 29 41 28 78c10 9 4 31 5 42c0 4 6 2 5 6c-5 10 -7 40 -12 60c-2 4 -9 19 -13 28c-14 8 -32 -8 -43 -8z" />
    <glyph glyph-name="r" unicode="r" horiz-adv-x="666" 
d="M-15 102c1 -4 13 4 11 -4c-6 8 -11 -17 0 -18c3 1 -3 9 5 7c1 6 -3 6 -4 11c6 -2 3 5 9 2c0 15 13 20 11 39c10 36 22 72 40 104c-6 4 5 10 3 22c13 26 17 61 38 81c5 23 24 35 28 59h5c-1 19 22 25 16 46c6 4 8 14 14 19c-5 6 -15 -8 -20 2c0 -4 -12 -6 -12 0
c-2 -7 -8 3 -7 -4c-14 6 -34 6 -35 25c27 18 61 28 93 38c-1 6 -2 9 2 11c1 8 -5 4 -3 10c13 11 8 37 34 37c3 0 1 5 5 6c31 -5 40 -34 71 -32c28 15 76 13 110 23c2 1 3 -1 3 -2c42 8 88 -4 125 -12c11 -9 26 -15 39 -21c12 -12 23 -22 40 -27c-1 -4 1 -6 4 -5
c0 -4 6 -3 4 -9c5 1 4 -2 7 -1c17 -22 42 -39 39 -75c2 -4 -5 -1 -4 -5c-1 -6 5 -2 5 -7c-8 -20 -19 -38 -33 -54c-9 -1 -15 -8 -21 -14c-27 -5 -34 -22 -54 -30c-5 -5 -9 -11 -20 -10c-1 -5 -11 -3 -12 -8h-15c-2 0 -2 -3 -2 -4c-37 -8 -62 -27 -107 -24
c-2 -6 -10 -6 -16 -6c-2 0 -1 -2 -2 -3c-19 -3 -39 -5 -52 -12c39 -42 62 -97 109 -130c2 -12 21 -21 15 -28c6 -3 17 -10 13 -17c1 -2 4 -2 6 -2c-1 -14 9 -30 -9 -36c0 -6 -2 -10 4 -14c-7 -5 -4 -11 -4 -21h-10c-2 -6 -2 -11 -6 -16c-20 16 -40 30 -56 50c-2 5 2 -3 3 -4
c1 15 -13 22 -18 38c-14 5 -15 22 -32 23c0 4 -3 5 -4 7c-4 1 -5 -1 -9 -1c-45 43 -87 87 -124 132c-7 0 -10 -1 -16 -1c-10 -25 -20 -52 -38 -70c-2 -5 5 -2 3 -6c-8 1 -4 -8 -11 -8c-6 -32 -18 -61 -23 -93c-7 0 -4 -9 -12 -10c2 -20 -16 -24 -22 -38c-8 -2 -6 0 -13 -6
c-12 3 -20 3 -29 0c3 6 1 10 3 15c-6 1 -3 -8 -9 -2c2 -8 -1 -10 -2 -16c-5 3 0 8 -4 12c-9 -5 -5 -22 -11 -28c-7 -1 -2 6 -6 6c-6 0 -2 -7 -3 -10c-6 -2 -2 4 -6 4c0 22 -6 43 3 56c-4 1 -3 8 -7 9c-6 -1 -13 -3 -21 -2c-8 5 -11 15 -18 24c5 7 4 -4 7 -5
c8 11 12 32 17 52c3 -3 4 -17 -2 -19zM306 333c13 6 26 10 43 11c19 1 29 12 47 13c12 9 28 11 39 21c35 9 52 32 80 48c-2 4 1 5 1 8c13 5 15 17 27 22c2 14 14 17 17 29c0 15 -11 31 -19 35c-6 4 -14 3 -22 5c-1 0 -4 3 -4 3c-23 10 -73 1 -87 -2c-4 1 -3 4 -7 2
c-34 -6 -57 -10 -91 -21c3 -19 -12 -32 -15 -51h-6c0 -4 0 -9 1 -13c-5 -2 -4 -10 -7 -15c-20 -16 -24 -44 -36 -65c-4 -5 -11 -6 -10 -15c-5 -1 -6 -3 -7 -4c-2 -2 -5 -3 -9 -2c-2 -14 -16 -15 -22 -26c29 6 58 12 84 19c0 -1 0 -2 3 -2zM460 50c3 0 5 -1 6 -2
c-3 4 -1 3 -2 11h-5c1 -4 2 -7 1 -9z" />
    <glyph glyph-name="s" unicode="s" horiz-adv-x="568" 
d="M157 147c5 -1 -2 -7 -5 -7c-3 6 7 2 5 7zM268 12c1 4 8 0 11 1c4 -1 -6 -2 -7 -4c0 2 -2 3 -4 3zM265 12c-1 -5 -8 -3 -13 -4c0 5 7 4 13 4zM363 637c6 1 12 -1 15 -2c14 9 35 6 43 14c11 -10 33 5 53 0c46 -18 71 -59 107 -87c1 -16 6 -21 -5 -31c-26 -1 -35 14 -48 24
c-11 2 -23 1 -31 6c-7 -1 -20 -8 -28 -9c-2 -1 0 2 -6 0c-13 -4 -32 -1 -46 -3c-11 -2 -23 -10 -34 -14c-4 -2 -9 0 -13 -2c-6 -3 -20 -6 -26 -11c-18 0 -22 -12 -37 -15c-7 -10 -24 -9 -28 -22c-28 -8 -43 -30 -68 -43c1 -3 -2 -2 -1 -7c-12 -7 -23 -18 -34 -26
c-2 -4 -1 -11 -8 -10c-7 -23 -25 -36 -30 -61c-7 1 -4 -7 -9 -8c33 -7 52 10 86 10c20 8 46 7 74 14c122 19 203 -49 239 -137c2 -30 1 -55 -7 -83c-14 -4 -9 -26 -26 -26c1 -7 -2 -9 -2 -13c-13 -7 -23 -17 -36 -23c-11 1 -17 -8 -25 -10c-12 -3 -29 4 -40 -11
c-16 0 -21 -12 -38 -10c-20 -7 -41 -2 -69 -5c-2 -1 -4 -3 -6 -4c-19 2 -35 2 -53 -2c22 8 47 12 71 18c2 5 -5 0 -3 6c-30 -6 -54 -17 -84 -16c-2 -1 -1 -3 -1 -5c-5 4 -10 4 -15 0c-2 7 -24 -1 -32 -7c-21 4 -54 -10 -72 4c-3 -1 -4 -6 -11 -4c-15 11 -40 9 -52 28
c2 0 7 -2 6 4c-1 8 -7 0 -10 4c-4 -1 -3 2 -3 5c-18 -3 -11 21 -28 24c6 11 -11 10 -4 21c2 -5 17 -1 22 -4c4 0 -2 3 2 6c5 -1 13 -2 11 7c38 -6 86 7 116 0c1 1 1 4 5 4c-1 2 -4 2 -4 5c-6 -5 -4 1 -11 -3c5 9 20 4 30 5c13 1 28 5 35 13c7 -6 15 3 16 0c1 1 1 3 5 2
c-13 7 -33 -1 -47 -2c12 8 34 6 47 13c1 7 -6 3 -10 4v9c3 1 3 -1 4 -2c2 6 12 4 15 9c16 -1 22 7 36 6c23 10 45 18 64 30c11 6 22 15 30 24c22 6 30 27 43 43c-7 5 -26 -8 -34 2c-2 -9 -21 -1 -24 -8c-20 2 -50 -4 -71 -13c-5 -2 -1 6 -7 4c-11 -10 -32 -10 -48 -12
c-36 -15 -100 -19 -116 18c-30 13 -45 40 -63 66c4 16 -10 30 -1 41c0 8 -2 17 5 19c1 25 12 43 28 55c-1 4 3 3 2 8c20 11 30 32 50 43c5 10 17 11 21 21c10 1 16 5 20 13c39 21 77 43 115 64c35 6 58 24 91 33c0 2 -1 2 -2 2zM194 112c6 -9 30 1 39 7c-19 8 -14 -9 -39 -7
zM174 114c5 -3 10 5 5 7c0 -4 -7 -1 -5 -7zM326 109c0 2 1 3 2 5c-3 0 -4 2 -6 1c0 -3 0 -6 4 -6zM20 84c3 2 5 7 7 11c-7 1 -18 5 -25 1c10 0 7 -12 18 -12zM307 67h8c-4 8 8 2 7 8c-3 3 -6 4 -11 5c0 -6 -5 -6 -4 -13zM2 136c-4 -4 -6 -11 -12 -15c-1 5 5 8 0 9
c3 0 7 4 12 6zM215 30c2 -8 -10 -3 -13 -7c-3 3 10 4 13 7z" />
    <glyph glyph-name="t" unicode="t" horiz-adv-x="275" 
d="M445 696c4 -4 11 -4 14 0c35 -9 71 2 102 -10c18 1 32 -3 42 -9c-4 -7 -11 -17 -6 -26c-10 -2 -4 -10 -6 -17c-20 -3 -31 -16 -43 -9c-9 -8 -19 3 -32 0c-1 -1 -2 -3 -3 -4c-9 -1 -21 1 -24 -6c-25 -6 -50 5 -63 -7c-6 -2 -5 2 -10 1c-3 -9 -30 -10 -33 -8
c-10 -7 -25 -5 -30 -10c-1 -8 4 -11 8 -14c5 -28 0 -53 -23 -57c-11 -19 -49 -64 -57 -85c-10 -5 -16 -13 -18 -24c-14 -5 -12 -25 -25 -32c-7 -24 -20 -43 -26 -69h-6c-23 -66 -49 -130 -76 -195c3 -21 -5 -51 -2 -79c-7 2 -3 -4 -9 -3c10 -12 -8 -10 -7 -21
c-10 -1 -11 6 -19 7c-4 0 3 -12 -4 -10c1 9 -5 11 -7 17c-2 -4 -14 1 -15 -6c-5 10 -19 2 -22 10c-4 1 -2 -4 -4 -5c-29 7 -35 36 -37 77c-9 30 -4 58 3 91c2 13 11 26 14 39c2 7 0 15 2 22c1 5 8 14 11 21c2 6 2 20 11 22c-2 21 16 30 13 45c10 11 11 29 22 37
c3 7 0 18 7 19c-1 1 -4 1 -3 5c12 2 12 16 18 28c3 5 10 10 11 13c6 17 36 63 40 80c11 9 18 23 26 35c-21 0 -34 -11 -61 -8c-19 2 -34 10 -54 11c-22 20 -55 30 -67 60c15 15 50 10 69 21c44 8 86 18 128 28c1 -4 23 2 40 7c2 1 2 -1 3 -3c24 7 50 11 77 15
c44 5 98 -2 131 6z" />
    <glyph glyph-name="u" unicode="u" horiz-adv-x="561" 
d="M446 124c4 -7 -10 -15 -5 -23c-2 -3 -7 0 -7 -4c0 -1 3 -1 5 -1c-6 -2 -6 -9 -6 -14c-4 -1 -4 2 -7 1c-3 -6 5 -3 3 -8c-5 5 -3 -5 -3 -10c-6 -2 -1 8 -7 7c-14 -3 -7 -17 -14 -25c-6 5 1 12 0 18c-8 -4 -11 -12 -13 -22c-2 1 -2 4 -6 4c-2 -2 -3 -6 -2 -10
c-13 0 -16 -19 -29 -13c-2 0 -2 -3 -2 -5c-3 -1 -3 3 -3 5c-5 -3 -4 -12 -14 -9c2 26 -2 56 2 81c2 6 8 13 9 19c0 2 -4 3 -4 3c1 2 6 4 6 8c0 8 2 7 4 14c4 11 0 25 3 37c2 4 8 6 9 9c3 9 -1 19 7 26c0 5 1 23 2 34c-20 -25 -44 -45 -63 -70h-7c-13 -15 -28 -29 -50 -39
c-10 -5 -15 -13 -27 -17c-21 -9 -56 -17 -68 -18c-11 5 -21 7 -32 6c-1 6 -9 8 -16 9c-10 12 -30 15 -39 28c-32 10 -53 32 -71 56c-6 30 -2 68 0 99c7 0 4 9 5 16c7 0 5 9 5 11c20 55 50 100 81 145c9 2 16 7 19 16c4 0 9 2 7 9c1 -3 9 1 8 -5c21 12 45 -7 72 -6
c18 -16 54 -17 41 -59c-13 -18 -49 -23 -52 -47c-9 -5 -20 -12 -18 -23h-7c2 -7 2 -13 -5 -16c0 -3 4 -2 4 -5c-3 -6 -6 -9 -15 -9c-1 -8 0 -11 0 -22c-3 1 -9 -1 -7 5c-3 -6 1 -21 -7 -23c0 -6 3 -11 -5 -13c-1 -4 7 -2 5 -6c-10 -7 -2 -25 0 -26c-5 -13 -1 -28 4 -41
c19 5 32 15 47 23c25 21 55 37 78 61c4 4 6 9 10 13s10 4 13 7c3 5 1 8 6 11c24 19 53 44 76 71c5 4 6 10 8 15c2 1 8 1 10 2c1 3 1 5 3 7c8 6 12 17 21 25c8 9 19 16 25 21c1 2 8 12 6 15c29 22 49 52 70 83c0 2 -1 1 -2 2c17 30 33 63 64 80v6c12 -1 40 -5 44 12h10
c0 -8 -7 -11 -10 -17c4 -9 17 -10 23 -15c1 -9 -2 -15 -2 -22c-4 1 -2 -8 -10 -5c-3 -12 -10 -21 -5 -33c-14 -10 -21 -26 -32 -37c2 -3 2 -8 2 -14c-11 -6 -18 -16 -20 -31c-14 -16 -17 -39 -31 -55v-12c-7 -14 -19 -33 -17 -50c-9 -7 -11 -23 -14 -33c-2 0 -2 2 -5 2
c8 -16 -9 -29 -5 -45c-7 2 -5 -7 -11 -7c0 -2 4 -2 5 -6c-13 -17 -11 -40 -23 -54c-2 -5 6 0 3 -6c-5 1 -5 -3 -7 -4c-1 -4 2 -4 4 -4c-10 -4 -1 -16 -12 -19c9 -3 -1 -8 -2 -11c5 -7 2 -27 -6 -30c-1 -5 4 -6 3 -11c-6 -4 -12 -4 -12 -12c0 -2 5 -2 5 0z" />
    <glyph glyph-name="v" unicode="v" horiz-adv-x="401" 
d="M33 90c4 -2 3 18 -4 29c-2 3 -2 1 -5 7c-3 5 -3 -3 -2 4c2 5 -8 1 -5 4c-1 5 3 6 5 8c-14 6 -14 23 -21 36c-2 5 3 3 3 5c-7 26 -8 77 -3 115c0 3 8 11 0 14c2 5 7 5 4 12c-1 -2 -6 -1 -4 -7c-7 11 7 30 4 46c3 0 3 2 5 2c-2 25 10 39 8 62c11 5 -3 23 10 27
c1 37 24 56 22 95c7 -2 4 7 6 8h17c5 2 -2 4 2 6c18 1 31 -2 47 -7c15 -5 22 -10 32 -21c12 -11 12 -16 14 -35c1 -2 2 -2 4 -3c-3 -10 -7 -24 -11 -34h4c-5 -21 -18 -39 -18 -60c0 -1 -2 -2 -5 -2c0 -32 -6 -57 -17 -78c0 -1 2 -1 3 -1c-8 -4 -1 -11 -11 -10
c6 -9 3 -14 1 -22c2 -6 5 0 10 0c-10 -12 -16 -30 -11 -44c-7 -10 -4 -23 -12 -36c6 0 5 6 12 6c-7 -19 -16 -29 -10 -45c3 1 3 5 4 7c3 -2 5 -17 -1 -16c5 -5 0 -5 0 -12c2 0 1 5 7 3c3 21 25 27 30 45c5 -6 5 -5 2 -11c15 8 18 28 34 34c0 13 16 21 13 31c3 -2 2 1 7 0
c0 18 12 25 14 38c4 7 13 9 12 20c4 0 4 2 7 2c18 32 43 53 62 85h6c-1 1 -2 2 -2 4c9 1 9 8 10 16c7 11 20 18 24 32c14 5 13 23 29 28c0 13 13 14 14 24c9 3 8 16 18 18c-1 5 3 5 2 9c22 15 29 43 54 57c1 14 17 11 18 23c9 1 9 10 19 9c-2 4 1 4 1 7c7 0 8 2 14 1
c11 17 28 0 43 -1c-2 -3 1 -5 5 -4c-4 -8 1 -18 -2 -25c-6 -19 -28 -26 -29 -44h-5c-6 -29 -36 -38 -46 -64c-7 -2 -15 -6 -14 -16c-20 -14 -35 -33 -43 -58c-14 -4 -14 -18 -27 -24c0 -13 -17 -12 -15 -27c7 1 6 10 11 15c3 -2 4 -6 4 -9c-2 0 -2 3 -2 4c-5 0 0 -7 -2 -10
c-10 2 -2 -11 -11 -9c2 -12 -11 -20 -13 -31c-21 -29 -43 -57 -57 -91c-7 0 -12 0 -15 -1c8 -6 -5 -9 2 -14c-9 -3 -9 -13 -18 -14c0 -11 -4 -14 -11 -16c-4 -13 -6 -25 -17 -31c9 -5 -12 -25 -14 -29c0 -1 3 -3 4 -2c-2 -2 -10 -6 -8 -9c11 2 -6 -7 -2 -17h-6
c-7 -19 -21 -32 -36 -44c-2 -4 -12 -13 -11 -11c3 4 5 6 6 9c-11 2 -18 -14 -34 -14c-3 4 -11 3 -13 9c-9 -5 -34 5 -49 7c-1 2 3 2 3 4c-4 2 -11 1 -18 0c-1 9 -3 -2 -9 4c3 3 8 3 11 2c-5 13 -29 11 -34 26z" />
    <glyph glyph-name="w" unicode="w" horiz-adv-x="667" 
d="M438 33c1 -10 -37 -4 -42 5c-33 0 -50 14 -74 24c-19 29 -35 63 -37 108c-10 -19 -27 -38 -28 -59c-8 -2 -14 -7 -10 -13c-8 1 -6 -6 -13 -4c-7 -24 -32 -28 -53 -37c-3 -1 -3 0 -3 2c-2 -2 -2 -5 -3 -8c-7 3 -1 1 -7 0c-15 -4 -41 0 -63 0c-9 10 -28 13 -41 20
c-4 0 -2 -3 -4 -3c-12 5 -21 14 -33 16c-2 6 4 1 3 5c-2 6 -4 9 -11 10c2 16 -19 24 -20 43c-3 -16 9 -32 19 -42c-3 0 -2 5 -9 4c0 -9 16 -7 18 -17c-14 0 -21 11 -20 19c-9 6 -12 21 -13 34c3 2 5 3 6 5c-2 11 -8 24 0 34c-2 2 -3 4 -3 10c7 65 34 113 53 169h5v13
c9 17 22 37 29 53c0 2 2 1 4 2c6 25 22 39 30 64h7c5 19 23 26 29 46c25 16 32 51 66 63c0 7 14 1 13 10c11 3 21 -3 26 -10c42 -11 81 -22 96 -55c0 -31 -30 -35 -40 -56c-11 -5 -11 -19 -22 -22c2 -9 -7 -10 -7 -19h-6c-15 -37 -43 -62 -51 -105h-3
c-11 -25 -24 -54 -38 -77c-2 -2 1 -6 0 -8h-5c-2 -5 0 -8 -2 -12c-4 -14 -15 -20 -16 -38c-9 -9 -4 -32 -18 -42c4 -9 -4 -11 -5 -21c60 43 104 101 162 144c3 18 11 31 12 49c14 16 18 40 35 54c8 -5 15 -1 18 7c2 -3 9 0 8 -5c11 8 21 -13 36 -5c17 -36 7 -82 -3 -114
c-4 -11 0 -26 -3 -37c-2 -9 -6 -33 -8 -42c-1 -3 2 -4 2 -4c0 -6 -4 -8 -2 -13c2 -11 -2 -40 5 -61c7 -1 1 11 9 9c0 -2 -5 -1 -3 -6c12 4 16 29 11 39c10 5 7 23 16 30c0 0 -3 0 -2 3c11 10 9 32 24 38c-1 5 2 6 1 11c13 23 28 43 37 70c6 -1 2 6 10 3c-4 13 8 18 10 25
c1 2 0 5 0 7c10 19 29 31 31 55c6 6 10 13 18 18c-1 7 0 7 -1 12c2 -2 2 0 6 0c2 5 -7 0 -5 6c16 21 25 50 44 69c1 5 1 3 0 10c4 3 11 4 10 13c13 2 6 24 20 26c9 25 27 40 42 59c7 -4 11 6 14 0c16 14 28 -5 43 -7c8 -12 12 -41 0 -52c2 -2 6 -3 4 -6c-5 -5 -4 -8 -4 -18
c-9 -9 -11 -29 -17 -43c0 1 -15 -17 -6 -15c-10 -20 -23 -37 -29 -59c-12 -8 -20 -19 -25 -34c-5 0 -5 -3 -10 -1c1 -16 -10 -33 -28 -37c2 -4 -2 -5 -1 -10c-9 2 -4 -7 -12 -5c0 -22 -24 -35 -28 -59c-11 -1 -11 -16 -12 -22c-9 -2 -6 -16 -16 -19c1 -7 -2 -13 -2 -21
c-10 -6 -17 -27 -12 -36c-19 -22 -11 -53 -31 -75c-3 4 -8 0 -15 -1c6 -13 -8 -20 0 -29c-7 1 -7 -3 -12 -4c0 -9 2 -10 0 -16c-12 -6 -27 -6 -34 -16c-3 1 -12 -2 -11 4zM487 251c7 2 10 12 9 16c-2 -6 -8 -9 -9 -16z" />
    <glyph glyph-name="x" unicode="x" horiz-adv-x="604" 
d="M397 56c-3 -2 4 -7 4 -11c-9 1 -16 9 -21 16c-15 15 -29 34 -42 50c-9 0 -11 4 -11 11c-15 14 -23 35 -34 54h-7c1 3 5 5 4 10c-9 9 -9 25 -23 31c-6 -2 -25 -25 -27 -21c-13 -18 -36 -29 -48 -49c-4 0 -4 -2 -7 -2c-12 -14 -30 -21 -38 -39c-12 -2 -16 -12 -23 -22
c-4 1 -5 -2 -8 -1c-8 -19 -30 -19 -36 -38c-15 -4 -24 -20 -46 -23c-19 -3 -45 5 -63 11c-4 1 -2 9 -8 11c26 21 51 43 71 70c17 9 25 30 46 37c14 19 37 31 50 51c25 18 50 37 72 59c17 4 22 20 36 25c1 7 4 14 -3 14c-3 16 -6 34 -12 48c-4 9 -10 15 -13 27c-1 3 1 8 0 10
s-6 3 -6 6c-1 3 2 6 1 9c-1 10 -11 17 -7 27c-14 31 -16 70 -30 101c0 7 1 16 -5 19c-1 14 -1 29 -11 37c2 1 3 3 6 4c1 4 -6 2 -4 7c1 3 4 7 9 6c19 23 57 10 77 8c2 -1 3 3 3 2c9 0 22 -3 29 -5c8 -3 13 -11 19 -14c2 -1 4 0 7 0c6 -4 20 -20 25 -26c4 -6 4 -18 10 -26
c7 -10 17 -34 20 -48c4 -7 2 -16 6 -24c3 -6 9 -22 7 -35c8 -8 8 -22 11 -34c6 -1 14 -4 15 4c13 2 22 15 38 20c12 4 20 18 31 24c6 3 17 7 25 14c7 5 16 10 21 14c4 2 3 9 6 3c25 22 61 32 83 59c34 15 62 38 99 53c6 -1 9 2 15 2c2 1 2 6 10 4c-3 -8 3 -12 1 -21
c12 6 3 -6 11 -10c-8 -5 -11 -12 -11 -21c-4 0 -3 -4 -9 -4c0 -5 -4 -6 -4 -10c-20 -10 -39 -18 -54 -31c-24 -10 -36 -29 -61 -35c-22 -18 -37 -32 -65 -46c-3 -2 -5 -4 -5 -8c-6 -1 -3 3 -6 3c-10 -18 -34 -16 -39 -34c-10 0 -16 -15 -27 -21c-5 -3 -9 -3 -14 -6
c-7 -8 -25 -22 -38 -35c-2 -21 16 -43 4 -64c15 -8 13 -33 20 -44c-3 -10 -3 -18 5 -19c-5 -16 17 -57 -5 -67c-3 -7 1 -8 2 -12c-11 -4 -2 -19 -13 -23c4 -10 3 -15 6 -25c-9 -7 -9 7 -18 4c-3 -8 8 -5 4 -14c-1 2 -7 0 -7 3zM304 406c0 -2 -1 -5 -1 -7c5 -3 13 2 10 4
c-5 -6 -3 4 -9 3z" />
    <glyph glyph-name="y" unicode="y" horiz-adv-x="408" 
d="M57 114c-7 -8 -7 -21 -16 -29c1 7 6 26 16 29zM41 83c4 -1 1 -15 -5 -13c0 5 5 7 5 13zM47 45c5 -1 1 -9 3 -13c2 5 4 8 5 14c-3 5 -6 -3 -12 -1c4 3 4 9 12 8c1 2 -3 10 2 10c0 2 -5 2 -7 2c10 12 19 29 24 51c11 4 15 16 18 26c16 13 19 35 35 47c-2 11 9 11 7 23
c24 19 27 43 42 64c-25 -7 -24 -36 -47 -44c-1 -13 -10 -20 -14 -27c7 22 29 46 44 68c-94 0 -171 48 -157 136c5 30 22 51 28 82c8 -1 3 7 10 6c-3 25 24 25 21 49c4 2 9 -1 13 4c-1 15 5 18 13 33c12 -7 31 -1 40 4c23 -14 65 -11 83 -27c0 -12 7 -28 -4 -33
c-5 -18 -23 -38 -36 -55c-10 -37 -34 -70 -28 -112c6 -9 6 -20 8 -28c38 7 66 35 102 50c1 12 18 12 18 28c8 5 18 16 16 25c2 0 12 1 12 8c-5 2 14 30 24 30c0 2 -3 1 -3 4c4 5 9 11 18 13c4 12 10 23 22 28c10 21 30 33 48 47c3 11 13 18 27 22c-2 8 5 8 4 15
c10 0 16 -7 25 0c29 -12 120 -13 147 -30c0 -17 -14 -22 -20 -34c-27 -9 -37 -36 -64 -49c-3 -13 -18 -15 -22 -29c-13 -1 -17 -8 -20 -17c-24 -14 -39 -36 -55 -57c-21 -17 -34 -42 -56 -57c-2 -16 -18 -18 -20 -33c-13 -8 -22 -18 -27 -31c-15 5 -18 -22 -26 -32
c-1 -1 -7 -1 -9 -4c-4 -8 -5 -18 -9 -23c-7 -8 -27 -23 -35 -34c-2 -3 0 -6 -2 -10s-8 -5 -12 -8c-7 -11 -10 -25 -16 -36c-7 -4 -13 -12 -13 -24c8 -1 5 6 11 3c-15 -29 -11 -76 -38 -95c-7 0 -76 0 -79 5c-7 -5 -18 -8 -24 -16c-3 1 -2 4 -3 5c-4 0 -7 -2 -7 -5
c-8 1 -12 5 -23 4c-7 13 -25 44 -1 51c-5 -1 -5 -13 0 -14c1 6 5 8 7 13zM138 527c0 -2 0 -5 2 -5c3 3 1 5 0 9h-8c-1 -3 2 -4 6 -4zM83 158c-8 -12 -14 -28 -26 -40c8 14 13 31 26 40z" />
    <glyph glyph-name="z" unicode="z" horiz-adv-x="538" 
d="M97 19c-8 5 -39 -5 -61 0c-5 0 2 -10 -5 -8c-8 15 -27 18 -43 25c-5 10 -12 16 -21 20c-1 27 -21 36 -12 66c65 58 129 117 198 171c0 9 13 7 13 17c12 3 19 11 24 21c4 -1 4 3 9 2c3 1 3 5 3 9c27 13 40 38 68 50c7 13 27 15 32 30c28 10 43 32 63 51
c-14 -7 -38 -9 -53 -17c-6 -1 -2 7 -10 4c-52 -14 -98 21 -117 59c33 21 77 33 114 52v-4c28 13 61 21 93 31c4 0 6 -1 6 -4c6 10 33 1 40 10c11 -9 27 0 38 0c31 1 58 -14 79 -6c4 -12 14 -14 25 -21c15 -8 18 -24 39 -25c2 -8 10 -12 19 -13l17 -37c-6 -9 -11 -18 -13 -31
c-20 -18 -34 -40 -60 -51c-2 -4 -2 -3 0 -8c-25 -11 -44 -27 -65 -42c-2 -1 -2 -2 -2 -4c-28 -7 -42 -27 -67 -35c-14 -13 -27 -18 -47 -26c-7 -12 -19 -17 -32 -22c-7 -13 -25 -14 -31 -28c-10 -1 -14 -6 -17 -13c-25 -8 -42 -24 -59 -39c-10 1 -13 -7 -20 -9
c-13 -18 -33 -28 -47 -45c-19 -4 -24 -24 -42 -28c-3 -7 -9 -9 -12 -15c8 -3 26 -3 31 2c7 1 5 -6 13 -3c1 0 3 0 4 1l11 5c6 8 15 -4 18 2c2 -4 13 -4 14 1c23 -4 60 -13 86 -7c20 -5 54 -8 70 -11c2 0 2 2 2 3c3 -3 19 -9 17 3c9 -4 21 -8 22 -2c17 -12 42 -17 57 -31
c1 -3 -6 -1 -9 -2c3 -10 -9 -13 0 -19c-2 -6 -14 -10 -11 -16c-3 -3 -8 -3 -9 -7c-5 -2 -2 5 -8 4c-6 -2 0 -9 0 -12c-25 -3 -59 2 -88 -1c-2 1 -1 4 -4 5c0 -3 0 -10 -4 0c-6 -4 -19 7 -27 -5c-6 -3 -4 2 -5 4c1 -1 -22 1 -22 1c-6 0 -17 -10 -17 4c-5 -1 -11 -3 -12 -8
c-28 8 -55 6 -85 6c-28 -1 -57 -2 -88 -4z" />
    <glyph glyph-name="zero" unicode="0" horiz-adv-x="434" 
d="M416 415c3 5 1 -10 1 -14c-3 -5 -1 10 -1 14zM410 346h6c-1 -4 -1 -8 -6 -8v8zM371 503c-9 -2 -5 8 -14 5c0 -7 12 -3 12 -11c4 0 -1 9 5 6c5 -16 14 -28 20 -43c-4 -4 -7 -7 -4 -16c-6 3 -4 13 -6 20c-4 -7 2 -19 1 -29c2 -5 13 -2 11 -13c-2 3 -6 6 -7 0
c11 -4 10 -34 5 -35c-1 -6 9 -1 7 -7c-7 -3 -4 5 -11 4c3 -5 7 -11 0 -13c16 -15 -12 -45 4 -60c4 -17 -11 -25 0 -35c-3 -3 -7 -14 0 -16c0 -10 0 -18 2 -25c-16 -18 -19 -50 -37 -66c-1 -27 -24 -35 -24 -57c-18 -14 -34 -31 -45 -52c-14 -11 -34 -16 -46 -29
c-19 -3 -57 0 -73 -11c-36 -6 -72 5 -94 24c-47 11 -63 54 -78 98c3 0 5 0 5 2s-4 1 -7 2c-1 16 -3 32 6 42c-5 7 2 25 3 33c1 2 -9 1 -7 -4c-3 -5 -2 9 4 6c0 54 21 96 39 137c-1 2 -3 1 -5 1v8c5 5 4 15 12 18c4 25 26 33 32 57c36 39 61 90 104 124c5 12 19 18 21 35
c4 0 7 1 6 3c7 -4 23 -8 28 0c45 -15 85 -28 123 -46c9 -16 5 -29 0 -46c4 -4 9 -4 15 -4c-1 -4 -10 1 -7 -7zM319 338c-2 12 4 33 0 47c-2 8 -9 12 -2 18c-7 15 -9 37 -27 42c-7 -10 -16 -18 -19 -33c-13 -8 -19 -22 -23 -38c-28 -32 -42 -78 -67 -114
c-1 -14 -5 -24 -12 -32c3 -16 -10 -16 -9 -30c-8 1 -5 -8 -10 -8c-1 -13 -5 -23 -13 -28c0 -4 2 -4 3 -6c-14 -11 -5 -45 10 -50c75 22 115 79 153 138c5 29 20 68 16 94zM24 110c3 8 -10 10 -2 15c-6 -4 0 7 -5 6c-4 -6 3 -16 7 -21zM69 60c1 10 -16 14 -20 25
c-15 -8 -15 20 -25 17c9 -19 20 -38 45 -42zM35 360c5 -6 -5 -13 -11 -14c-3 -12 1 2 2 7c5 0 10 1 9 7z" />
    <glyph glyph-name="one" unicode="1" horiz-adv-x="266" 
d="M392 603c2 1 2 3 6 3c11 -7 18 -25 13 -38c-4 -1 -7 -6 -6 -13c-27 -19 -39 -53 -65 -72c2 -11 -11 -22 -19 -28c-11 -20 -22 -38 -38 -52c-2 -16 -14 -20 -16 -36c-21 -17 -25 -51 -44 -68c2 -11 -8 -16 -11 -24c-5 -8 -6 -19 -10 -26c-1 -1 -4 0 -5 -1
c-2 -5 -11 -24 -12 -26c-3 -7 -1 -16 -4 -25c-5 -20 -21 -36 -23 -59c-11 -4 -3 -26 -15 -30c-3 -46 -13 -82 -71 -77c-4 -5 -15 -6 -21 -3c-5 -2 -9 -3 -9 -10c-5 8 -18 6 -27 10c-16 19 -22 74 -9 96c2 5 -6 2 -3 7c24 74 59 137 94 200c-26 0 -47 7 -71 15
c-9 15 -29 20 -33 40c14 20 32 36 52 48c3 1 2 5 2 8c20 4 28 23 48 27c4 0 2 6 4 7c6 0 11 2 13 7c5 -1 6 2 10 1c39 27 81 49 124 72c3 9 15 8 17 16h10c5 18 32 23 33 40c7 0 10 13 17 16c13 5 26 -12 51 -10c2 -9 17 -4 18 -15z" />
    <glyph glyph-name="two" unicode="2" horiz-adv-x="526" 
d="M465 82c0 -5 3 2 8 0c1 -5 -7 -4 -7 -7c-6 -2 -4 2 -7 3c-11 -12 -26 -9 -32 -23c-59 13 -146 21 -217 7c-22 -2 -38 -5 -50 -14c-6 0 -14 1 -14 -6c-34 -3 -62 -19 -91 -14c-4 0 -10 0 -12 7c-8 -1 -14 1 -20 2c-5 12 -30 15 -34 34c3 15 19 17 31 23v16
c9 32 39 44 52 74c6 -3 2 4 8 3c36 49 89 80 125 127c12 -1 10 11 22 10v10c16 13 30 27 41 46c31 18 38 60 67 80v11c18 13 25 35 36 54c-40 7 -60 -21 -89 -31c-12 -13 -30 -19 -41 -34c-51 -19 -71 -70 -120 -90h-32c-19 22 -63 31 -50 75c28 36 63 63 106 85
c1 1 2 4 3 7c18 7 31 14 48 21c5 3 7 9 11 11c5 3 12 1 18 4c2 1 2 5 4 6c-3 -2 8 3 8 3c14 5 37 8 52 14c24 0 51 6 68 -4c2 0 1 2 2 4c51 -10 89 -32 129 -53c2 -9 6 -15 12 -20c3 -28 -11 -38 -14 -59c-12 -7 -26 -12 -29 -29c-15 -9 -27 -21 -34 -39
c-22 -6 -27 -30 -46 -39c-1 -18 -23 -14 -22 -33c-10 -2 -16 -8 -18 -19c-9 -3 -17 -9 -19 -20c-2 -1 -7 -1 -9 -3c-8 -11 -15 -22 -28 -27c-3 -11 -11 -17 -21 -19c-1 -12 -10 -16 -19 -21c-18 -28 -44 -48 -64 -73c57 -6 119 -2 177 -10c18 -3 65 -8 84 -19
c3 -1 12 0 15 -1c9 -4 13 -16 27 -14c-2 -8 8 -3 6 -11c-12 2 -15 0 -21 -5z" />
    <glyph glyph-name="three" unicode="3" horiz-adv-x="392" 
d="M281 629c2 1 1 4 4 4c42 -7 67 -33 100 -50c1 -11 14 -10 14 -23c1 -4 6 -1 7 -4c-1 -8 -1 -13 -2 -25c-24 -38 -54 -72 -88 -99c-25 -33 -52 -61 -79 -89c39 -6 56 -34 91 -45c5 -11 13 -19 25 -23c16 -25 2 -54 -6 -79h-5c0 -19 -19 -17 -20 -34c-1 1 -3 1 -5 1
c-8 -16 -28 -18 -36 -35c-7 2 -8 -3 -14 -3c-18 -25 -55 -30 -75 -52h-11c-23 -21 -71 -23 -98 -4c-8 -6 -36 11 -45 4c-9 4 -10 0 -17 9c0 5 4 5 8 4c0 11 -9 3 -16 4c-3 6 -7 10 -12 13c-3 8 6 1 5 6c-5 4 -12 4 -20 4c9 15 32 14 36 33c26 10 44 8 66 23c12 -6 19 8 31 9
c4 15 25 10 28 26c24 1 30 23 48 31c10 15 24 26 31 46c-6 3 -2 -7 -8 -4c-13 7 -37 -5 -55 -2c-11 21 -44 10 -62 20c-3 -5 -6 -9 -13 -7c-5 25 2 46 17 62c0 2 -3 2 -4 2c17 25 35 48 60 64c3 1 2 4 2 7c32 23 53 58 86 80c-1 9 4 11 5 16c-12 4 -19 -14 -36 -13
c-12 -7 -14 -25 -32 -26c-27 -22 -44 -52 -69 -76c-10 1 -17 -1 -25 -2c-1 2 -4 2 -4 6c-32 2 -39 31 -66 38c-1 22 -35 19 -26 55c3 -1 4 1 6 2c13 28 44 37 63 59c5 3 12 1 13 8c13 0 22 6 29 15c31 15 63 26 96 37c22 8 49 17 78 7z" />
    <glyph glyph-name="four" unicode="4" horiz-adv-x="545" 
d="M505 551c6 -5 12 -14 23 -8c32 -10 53 -27 81 -39c3 -23 -10 -43 -31 -50c-1 -12 -10 -18 -19 -22c-5 -24 -28 -30 -31 -56c-25 -25 -40 -59 -57 -93h-5c-8 -25 -22 -45 -37 -62c0 -12 -6 -20 -14 -23c1 -12 -10 -13 -8 -26c-11 -1 -4 -20 -17 -19
c-4 -38 -34 -51 -42 -85c-7 0 -19 -11 -21 -22c-4 1 -11 11 -11 0c-3 1 0 8 -7 6c-2 -4 -2 -9 -5 -12c-10 6 -24 5 -27 -7c1 4 -12 4 -7 0c-8 6 -5 17 -10 29c-2 7 -7 12 -8 16c-1 3 4 3 4 7s-4 5 -4 6c6 55 42 126 55 173c-6 2 -1 -5 -7 -3c6 7 0 14 7 20
c-34 3 -61 -16 -93 -20c-15 -10 -30 -19 -52 -22c-7 -14 -28 -14 -37 -27c-20 2 -27 -9 -41 -10c-35 -2 -48 37 -75 47c0 6 -2 11 -8 12c0 10 -1 21 6 25c3 6 -5 3 -4 9c4 -1 5 1 8 1c9 18 39 15 44 37c8 1 12 6 13 14c6 0 9 3 10 10c16 13 35 23 44 43c6 1 8 8 15 8
c0 4 3 5 2 11c8 -1 10 4 11 11c10 4 20 11 22 24c12 3 14 17 28 21c33 44 82 71 114 114c22 6 29 28 50 34c3 1 4 4 4 8c29 6 45 1 59 -15c27 -7 51 -16 69 -30c2 -6 5 -12 9 -15v-20zM457 516c0 -2 0 -5 -2 -6c-22 -4 -29 -22 -53 -25c1 -10 -17 -4 -14 -16
c-9 -1 -13 -7 -20 -9c2 0 1 -3 1 -6c-15 6 -22 -9 -38 -10c0 -6 -3 -10 -6 -12c-18 1 -19 -8 -34 -7c-4 -8 -10 -14 -23 -14c-16 -17 -44 -25 -61 -41c-16 -5 -24 -18 -35 -29h-18c-13 -19 -30 -32 -36 -56c32 7 66 14 96 28c42 4 78 12 117 18c5 3 0 -5 7 -3c1 5 9 3 16 3
c5 13 9 20 9 37c12 9 14 27 25 37c-4 15 21 18 21 37c6 -1 4 4 8 3c3 23 25 26 31 46c9 0 11 7 13 15c11 6 28 16 29 28c-9 -9 -14 -19 -33 -18zM302 200c-5 6 5 19 0 24c-11 -31 -31 -54 -32 -94c15 3 5 30 17 35c6 -10 -5 -9 -3 -21c8 8 10 31 10 42c-1 -7 -3 -12 -7 -17
c2 13 7 35 15 31z" />
    <glyph glyph-name="five" unicode="5" horiz-adv-x="583" 
d="M34 90c8 3 9 -3 16 -3c3 0 0 6 1 9c-2 4 -10 4 -17 4c1 5 11 1 5 10c7 3 3 -6 11 -4c5 5 0 8 3 13c5 -1 17 -2 20 4c32 -7 92 -9 125 0c17 -3 23 8 36 10c3 5 6 10 7 18c9 -1 12 6 16 11c12 1 25 2 27 14c33 11 50 39 80 56v8c19 9 26 29 40 44c1 26 -29 21 -40 35
c-26 -2 -60 13 -91 3c-19 7 -39 -2 -57 -7c-18 -4 -35 -5 -48 -16c-3 -1 -3 -6 -6 -9c-9 -7 -26 -7 -30 -19c-30 -7 -66 -17 -75 15c-31 12 -67 51 -52 86c0 2 -3 2 -4 2c5 6 8 14 8 20c18 35 43 76 71 109c2 5 -3 4 -2 9c29 23 42 61 61 94c23 -1 71 -14 96 0
c3 -5 3 -1 6 0c2 1 2 -3 2 -3c30 8 95 2 128 16c1 -9 1 2 6 0c47 -5 84 11 144 9c10 -7 27 -8 27 -25c-6 -19 -29 -22 -39 -35c-33 -3 -33 -36 -68 -33c-5 -3 -3 -6 -2 -11c-15 4 -20 -10 -33 -6c-6 -3 1 -8 -2 -10c-4 4 -32 5 -44 2c-2 -1 -3 -5 -4 -5c-2 0 -2 3 -4 3
c-5 0 -11 -6 -19 -9c-16 -5 -44 0 -55 -4c-6 -1 -7 -9 -12 -6c-6 -7 -8 -17 -19 -17c-4 0 -5 -2 -4 -6c-6 1 -7 -2 -11 -2c-7 -14 -22 -19 -27 -34c-13 -5 -18 -27 -29 -36c14 -1 28 -3 44 -2c7 1 13 4 17 2c33 -8 88 6 113 -12c11 6 22 -11 41 -10c6 -9 24 -7 28 -17
c37 -8 53 -34 83 -48c14 -22 27 -44 39 -67c-2 -12 5 -22 -3 -28c-1 -3 1 -3 3 -4c0 -5 -5 -6 -9 -7c9 -13 -14 -20 -11 -39c-32 -25 -49 -65 -92 -79c-15 -25 -50 -21 -77 -35c-5 -2 -3 3 -6 3c-25 -16 -106 0 -151 -7c-6 -1 -6 -4 -11 2c-3 -1 1 -3 0 -6
c-6 0 -16 2 -18 -1c-2 7 -19 29 -30 15c-7 6 -16 8 -22 0c-15 1 -26 5 -43 19c1 2 5 0 5 3c-2 5 -14 4 -19 1c6 4 1 4 0 10c-4 -4 -19 -2 -23 3z" />
    <glyph glyph-name="six" unicode="6" horiz-adv-x="412" 
d="M285 648c1 2 2 1 2 0c31 2 65 -9 98 -12c1 -16 22 -3 26 -16c17 5 24 -7 38 -7c15 -13 35 -25 23 -50c-10 2 -12 -15 -20 -7c-19 -17 -42 12 -75 -3c-1 -8 -8 -13 -16 -18c-3 2 -5 3 -8 5c0 -6 -10 -9 -16 -8c-6 0 1 -9 -8 -8c2 -2 5 -1 4 -4c-3 -4 -10 -5 -14 -3
c-4 -2 1 -8 -6 -9c2 -1 5 0 5 -4c-20 -9 -38 -26 -55 -33c-1 -5 -6 -11 -1 -18c-3 2 -10 -3 -2 -1c-5 -8 -20 -10 -26 -13c1 -11 -12 -14 -11 -26c-13 -9 -14 -26 -24 -39c2 0 3 -1 3 -4c24 3 47 4 68 0c4 0 9 -4 13 -5c16 -2 24 4 35 -2c5 -3 7 -11 16 -9
c7 -10 14 -19 23 -22c2 -3 -3 -3 -2 -5c16 -20 24 -66 21 -91c-11 -3 -4 -15 -2 -24c-4 -26 1 -59 -21 -79c-2 -3 3 -11 -3 -11c1 -2 3 -1 4 -3c-5 -8 -6 -20 -17 -26c3 -26 -30 -28 -34 -50c-13 -2 -24 -15 -34 -20c-3 0 -2 1 -8 -2c-15 -8 -47 -13 -63 -14
c-14 -1 -35 7 -47 15c-9 4 -20 3 -27 6c-1 0 -1 4 -2 4c-17 4 -31 9 -47 16c-17 18 -34 37 -51 58c-5 22 -23 47 -19 71c-13 17 0 39 -4 61c3 27 11 61 25 87c-3 18 15 23 11 40c18 22 29 47 42 71c14 18 29 34 36 57c14 2 16 17 23 25c4 4 9 5 13 7c8 10 10 22 17 30
c9 10 27 17 30 32c28 18 47 43 84 52c1 5 6 5 3 9zM173 329c5 -12 -7 -15 -1 -24c-14 -10 2 -38 -16 -46c5 -36 -2 -72 11 -104c-5 -1 -3 -7 -3 -12c1 -4 4 -5 6 -9c1 -10 13 -33 28 -40c5 -1 -1 5 5 4c33 10 44 33 60 52c30 33 36 82 13 139c-12 12 -19 30 -33 36
c0 3 -1 6 -1 8c-10 2 -21 2 -29 9c-6 -2 -14 -6 -17 0c-2 -8 -21 -6 -23 -13z" />
    <glyph glyph-name="seven" unicode="7" horiz-adv-x="482" 
d="M579 582c6 -30 -18 -32 -27 -49c-16 -8 -32 -16 -40 -32c-9 1 -9 -5 -15 -6c-37 -33 -71 -69 -111 -101c-13 -21 -33 -35 -48 -53c37 -10 71 -22 109 -31c3 0 0 -8 5 -6c-8 -8 -38 -13 -48 -8c-3 -7 -22 -6 -27 0c-2 -1 -1 -4 -1 -6c-25 1 -54 -2 -75 2
c-22 -18 -33 -44 -56 -59c-4 -34 -39 -51 -48 -85c-7 2 -3 -7 -9 -5c-5 -26 -24 -36 -31 -60c-6 2 -5 -5 -10 -5c-3 -26 -26 -35 -38 -52c-33 -5 -62 5 -93 -2c-25 18 -24 50 -12 78c8 0 6 11 7 19c30 23 41 64 70 88c-1 2 -4 2 -4 5c18 9 21 31 38 41c7 21 29 30 39 51
c-39 4 -57 4 -104 10c-9 6 -16 13 -21 22c1 3 8 0 5 7c17 2 35 14 52 18h4c31 11 79 0 112 0c44 45 86 94 129 141c-8 6 -30 3 -34 -1c-8 6 -15 -6 -21 3c-5 -2 -9 -4 -13 -5c-23 7 -50 12 -75 13c-20 16 -50 22 -59 48c11 21 47 18 66 32c25 0 40 12 66 12
c23 11 61 9 90 19c14 -1 22 3 35 2c30 8 87 11 122 -2c4 -2 8 -11 16 -8c16 -12 37 -24 55 -35z" />
    <glyph glyph-name="eight" unicode="8" horiz-adv-x="564" 
d="M496 243c-6 -3 6 -3 2 -7c-8 -5 -15 -10 -17 -19c-14 -5 -22 -20 -33 -30c-6 -6 -15 -9 -21 -15c-3 -3 -3 -9 -5 -11c-5 -5 -12 -6 -16 -10c-24 -21 -51 -40 -79 -58c-3 -1 -2 -4 -2 -6c-20 -4 -31 -23 -50 -23c-3 -6 -10 -8 -14 -8c-2 -1 -1 -4 -2 -6
c-94 -37 -174 24 -234 61c1 6 -4 9 -9 11v8c-17 8 -10 36 -18 52c8 11 2 36 18 41c-2 5 1 14 7 17v9c43 62 95 115 159 158c14 14 31 25 50 35v8c15 1 34 14 43 9c9 7 -5 9 -5 15c-30 11 -56 26 -75 47c-4 0 -4 5 -9 3c-1 7 -6 11 -8 18c9 14 22 25 29 38
c56 37 121 66 199 83c45 1 99 12 139 -5c1 -1 0 -4 1 -4c7 -4 18 -5 24 -9c11 -6 17 -21 30 -24c1 -16 19 -20 11 -39c0 -2 3 -1 6 -2c-1 -11 -4 -21 -11 -26c-6 -35 -35 -48 -47 -76c-13 -4 -13 -19 -25 -21c-9 -24 -32 -35 -43 -57c-7 -1 -12 -3 -12 -10
c15 -6 17 -25 32 -32c3 -10 2 -23 14 -24c-1 -8 1 -12 6 -13c8 -37 -15 -59 -29 -81c-4 -1 -3 3 -6 3zM435 634c0 -2 1 -5 -1 -5c-29 -4 -55 -23 -85 -30c-2 -5 -7 -6 -8 -10c-29 -19 -66 -29 -67 -71c35 -29 84 -45 126 -68c8 7 17 11 16 24c15 11 24 26 32 42
c13 9 23 21 27 38c12 6 24 13 25 30c8 -3 4 5 6 8c1 2 5 1 7 3c0 1 -1 8 1 10c6 5 14 15 13 24c-27 13 -59 10 -92 5zM354 396c-18 -11 -33 -25 -55 -33c-13 -17 -36 -26 -49 -42c-46 -34 -85 -74 -97 -139c-1 -2 -6 -1 -5 -5c-3 -22 -2 -44 7 -58c41 0 76 19 106 35
c9 6 12 9 19 13c3 1 7 0 9 2c10 6 22 21 31 28c8 5 8 7 16 14c3 2 10 3 13 6c1 3 0 7 3 10c1 1 5 -1 5 0c1 1 0 4 0 5c3 4 10 5 13 8c11 13 19 26 30 39c0 19 -5 34 -11 48c1 3 6 2 4 7c-5 4 -7 12 -9 17c-8 0 -11 -4 -20 -4c3 6 -3 5 -3 10c-7 1 -5 -7 -12 -4
c0 16 15 20 13 39c-4 0 -3 4 -8 4z" />
    <glyph glyph-name="nine" unicode="9" horiz-adv-x="394" 
d="M212 202c6 0 2 8 10 6c-16 -27 -37 -51 -49 -82c-7 -5 -12 -11 -12 -20c-5 0 -4 -4 -9 -3c0 -14 -11 -20 -15 -32c-9 5 -27 -28 -40 -35c2 -6 0 -8 -7 -8c-1 4 5 3 5 6c-3 4 -8 -3 -8 -6c-5 2 0 8 2 10c-2 2 -4 4 -10 2c6 -2 1 -19 -9 -20c0 6 6 8 8 11c-3 6 -5 -3 -5 -4
c-9 0 -13 -3 -17 -6c-3 11 -10 1 -15 -2c-1 3 -1 7 -1 9c-11 -11 -23 -7 -32 -16c-8 2 -10 11 -11 21c2 -2 7 -4 4 3c3 0 3 -14 10 -18c4 10 -8 12 -7 22c3 0 5 1 8 1c0 5 -4 5 -4 11c11 8 12 23 16 35c2 0 3 1 3 2c3 -1 7 0 6 -5c5 5 0 8 2 15c3 1 3 0 3 -2
c12 13 15 31 25 47c1 -6 -7 -17 -9 -24c4 -1 9 7 9 13c2 -1 5 -1 8 0c-11 2 2 7 0 15c16 7 16 27 30 34c2 6 -3 5 -3 8c10 11 19 23 25 37c-1 4 -8 0 -5 -3c-5 1 1 7 -1 11c-11 -4 -11 -22 -23 -21c2 -1 5 -1 4 -3c-7 1 -7 -4 -6 -9c-10 3 3 20 11 22c-7 2 7 12 13 16
c0 3 -1 7 -1 9c17 12 22 32 37 45c0 16 7 26 17 38c-57 15 -126 23 -128 98c4 14 10 28 13 46c9 3 10 11 11 19c9 4 15 10 15 19c11 5 18 15 22 24c10 1 12 5 12 12c11 0 7 11 20 10c11 12 21 24 39 32c1 6 14 5 13 13c24 9 34 25 58 33c20 5 35 15 51 23c-2 -7 12 8 13 -1
c11 8 28 -2 44 3c20 -10 55 -19 42 -42c-14 -9 -29 -18 -50 -24c-11 -2 -21 -9 -33 -14c-5 -3 -11 -3 -15 -5c-7 -3 -12 -10 -18 -11c-1 -1 -2 2 -4 2c-8 -2 -27 -20 -32 -14c-16 -14 -41 -28 -44 -46c-38 -22 -56 -57 -57 -104c-4 0 -2 -4 -4 -4c0 -5 10 -4 2 -9
c1 -1 4 -1 4 -4c24 3 44 8 55 20c38 12 59 34 74 61c2 1 3 -1 3 -3c16 26 40 44 58 68c2 0 4 0 7 1c8 23 31 36 41 59c20 9 24 27 43 35c-1 11 14 10 17 19c29 6 39 -3 52 -20c7 -10 18 -31 -7 -36c-4 -31 -33 -44 -43 -70c0 -5 5 -3 6 -8c-23 -17 -28 -46 -52 -62
c2 -4 -2 -5 0 -9c-21 -24 -43 -52 -62 -74c-2 -1 -2 1 -2 2c-3 0 0 -6 0 -9c-6 0 -8 -3 -6 -7c-4 1 -5 -1 -6 -2c-20 -31 -38 -60 -66 -84c-2 -8 -3 -13 -7 -18c0 -1 -2 3 -3 2c-2 -2 -4 -14 -12 -12c1 -3 1 -5 2 -8c-13 -7 -15 -21 -23 -31zM155 268c-2 5 6 3 4 8
c-2 0 -4 -1 -7 -1c2 -2 -1 -8 3 -7zM128 242c-2 4 9 7 2 9c2 -3 -9 -6 -2 -9z" />
    <glyph glyph-name="D" unicode="D" horiz-adv-x="742" 
d="M184 64c7 1 2 3 2 10c5 0 8 0 10 -3v7c-10 3 -7 -2 -19 2c-5 -12 -19 -6 -24 -20c-2 3 -5 4 -9 6c-10 -22 -29 -14 -50 -17v-5c-1 -6 10 1 7 -7c-4 0 -8 1 -11 -1c-1 -8 3 -9 2 -16c-6 3 -10 -4 -13 4c0 -3 -14 -13 -17 -4c1 -9 -10 -4 -11 -10c-2 0 -2 2 -2 4h-4
c1 2 4 1 4 4c-9 12 -31 -3 -40 12c2 6 10 8 15 14c-8 5 -17 -7 -21 -12c-13 4 -11 4 -28 4c2 4 3 7 10 6c-15 17 -42 5 -63 15v14c-10 0 -15 -5 -17 -11h-14c0 9 6 12 12 16c0 17 -11 19 -21 26c1 9 4 13 0 20c1 5 9 1 12 2c-1 2 -4 2 -3 6c5 2 16 -12 17 2c11 0 20 0 24 -6
c17 6 35 10 47 20c32 8 63 21 92 31c13 5 25 11 34 21c-4 3 -4 10 -13 8c-1 9 8 5 13 8c2 22 -2 37 6 50c-1 3 -6 2 -4 8c4 5 4 13 11 16c9 57 24 105 50 144v12c9 -1 5 12 13 12c-1 16 13 24 18 34c4 7 3 16 7 21c2 2 7 2 8 3c3 5 3 14 8 21s18 9 14 28c18 4 19 26 32 36
c-20 -2 -33 1 -45 -4c-17 14 -41 25 -51 48c-13 0 -15 11 -14 26c61 27 126 46 194 62c20 1 42 1 58 8c4 0 6 -1 6 -5c38 12 65 4 110 5c15 -7 32 -13 46 -18c5 -2 12 1 16 -2c5 -3 16 -6 24 -10c9 -4 14 -13 22 -18c5 -3 12 -1 16 -4c2 -2 1 -8 5 -11c3 -1 8 1 11 -1
c12 -12 32 -20 44 -36c4 -5 10 -15 20 -18c0 -16 16 -13 14 -31c39 -39 31 -129 3 -172c2 0 2 3 2 4c0 -8 -16 -15 -15 -32c-18 -14 -28 -38 -51 -47c6 -14 -23 -16 -30 -27c15 -7 22 10 33 12c-14 -9 -28 -37 -44 -30c-2 -1 -2 -4 -6 -4c2 -2 5 -2 4 -6
c-19 -7 -30 -25 -44 -38c-3 2 -3 6 -10 4c1 6 13 -2 14 4c-3 12 -11 -6 -14 4c-2 -9 -14 -8 -18 -16c5 -5 10 6 18 4c-5 -9 -10 -16 -18 -23c0 -2 5 0 4 -7c-7 2 -5 0 -12 2c1 -3 6 -2 4 -8c-5 -1 -7 1 -5 6c-14 -25 -45 -31 -65 -51h-15c-8 -21 -33 -23 -48 -37
c-7 6 -16 0 -17 -6c-4 2 -8 6 -17 4c12 11 37 9 46 22c-4 8 -11 -4 -20 2c5 4 18 11 26 6c3 1 -1 2 0 6c11 3 16 1 24 8c0 3 -2 4 -1 8c21 -10 25 10 33 22c10 -2 14 3 24 2c5 3 4 7 1 12c-12 -1 -23 -5 -31 -12c-2 4 -5 5 -10 5c-5 -4 -4 -6 -2 -11c-14 -4 -22 -13 -31 -23
c-16 -8 -36 -12 -46 -29c-13 2 -19 -6 -21 -16c-8 0 -16 2 -14 -8c-11 3 -22 -10 -33 -14c4 -3 18 1 26 6c0 -7 4 3 7 -6c0 3 3 5 4 12h10c0 -5 -12 -7 -4 -12c6 0 4 9 5 14c6 -1 12 1 16 -2c-5 -11 -27 -23 -34 -18c-5 -1 2 -4 0 -9c-22 -10 -37 -29 -67 -31
c-7 -32 -36 -25 -52 -44c-21 3 -50 4 -63 -13c-8 -1 -9 4 -11 7c21 3 32 18 56 18c20 23 53 33 81 48c-1 1 -2 3 -2 6c-5 0 -5 -8 -12 -6c4 9 21 22 27 15c2 8 -6 7 -11 7c-4 -3 -10 -12 -15 -7c-32 -25 -80 -22 -111 -51c-13 0 -24 -1 -26 -12c-4 -1 -4 1 -4 4
c-24 -15 -43 -16 -68 -15c5 15 25 7 37 16c1 4 -2 4 -4 5c0 6 16 -4 13 6c-2 6 0 -6 -5 -3c11 7 32 14 49 19zM626 294c-19 -13 -40 -13 -53 -32c11 3 17 0 21 8v-6c20 -3 15 21 33 20c1 5 -3 5 -1 10zM464 156c-8 1 -9 -6 -18 -4c-1 -5 3 -5 7 -6c-2 10 10 3 11 10zM253 36
c0 4 1 6 2 8c-8 3 -11 -9 -2 -8zM413 346c5 6 14 6 6 12c8 3 4 -6 10 -3c5 12 10 14 22 12c0 2 0 6 -2 7c28 9 36 39 65 44c6 10 17 18 29 26c13 12 29 24 41 33c4 10 13 16 21 22c-1 10 6 14 9 14c12 15 25 34 28 63h4c-6 24 -11 48 -37 49c-1 14 -23 5 -25 18
c-48 3 -83 10 -128 -4c-13 3 -48 -6 -60 -22h7c11 -20 21 -39 13 -68c-23 -23 -34 -62 -48 -94c-18 -20 -31 -45 -41 -73c-21 -17 -21 -54 -39 -74c-3 -23 -15 -35 -18 -58c19 6 39 16 51 22c3 7 -6 1 -5 6c7 1 15 3 5 -2c15 6 32 10 38 26c-11 1 -19 -12 -24 -4
c-6 -6 0 -4 -2 -10l-6 6c13 10 37 10 42 28c6 -1 18 4 16 -6c-6 13 -12 -13 -17 -2c2 -6 -4 -5 -4 -8c27 9 63 28 72 42c-10 0 -14 -2 -23 -2zM510 292c0 -7 -10 -7 -13 -11c0 1 0 4 -3 3c-2 -8 -11 -4 -9 -12c0 4 -3 5 -6 4c2 -8 -5 -7 -6 -14c9 2 8 -7 17 -4c-1 7 4 8 9 8
c-2 15 -8 -6 -12 3c5 9 28 9 23 23zM543 236c3 4 13 1 12 12c-5 -4 -12 -5 -12 -12zM392 188v4h11c1 15 20 10 20 26c-11 -5 -18 -16 -31 -20c2 -5 -6 -8 0 -10zM460 204c7 -1 5 7 10 8h-10v-8zM423 188c2 -1 3 -2 2 -4c6 7 18 8 18 20h-4c0 -12 -12 -8 -16 -16zM396 172
c6 -7 7 5 17 2c-1 3 0 8 -3 8c0 -10 -16 -3 -14 -10zM343 144c12 -18 37 12 46 4c-3 5 4 14 0 9c-20 0 -24 -16 -46 -13zM196 116c-2 -5 -2 -9 -6 -12c-18 3 -28 -17 -50 -16c-17 -22 -54 -22 -72 -43c-3 0 -2 7 -4 7c-5 -7 -15 -4 -19 -20c25 6 47 25 77 32v-4
c7 11 26 11 40 16c1 2 -1 10 3 10c28 8 58 16 73 38c11 -6 20 5 26 10c-2 0 -2 3 -2 6c-22 -8 -40 -21 -66 -24zM306 126c0 2 0 5 -3 4c-15 -13 -38 -16 -51 -30c-16 6 -29 -5 -44 -6c0 -8 -2 -6 0 -12c17 9 44 16 58 13c5 4 7 11 11 15c7 0 8 4 11 -3c18 15 36 17 54 33
c-14 -2 -28 -4 -36 -14zM323 86c10 0 14 6 25 2c0 6 7 6 7 12c-11 3 -28 -10 -32 -14zM276 45c1 8 -7 4 -12 4c-2 -7 7 -2 12 -4zM316 290c7 0 -12 -7 -13 -12c-6 8 11 7 13 12z" />
    <glyph glyph-name="A" unicode="A" horiz-adv-x="480" 
d="M492 608c8 -28 2 -64 -2 -93c0 -2 -5 -3 -4 -5c-1 -13 3 -38 -6 -48c-2 -6 5 -2 4 -8c-14 -35 -16 -82 -33 -114c8 -5 -2 -9 -5 -19c-1 -5 1 -15 -2 -19c-10 -15 -13 -50 -19 -66c-11 -6 -12 -24 -11 -42c-3 -7 -5 -15 -2 -27c-6 -27 -7 -55 -10 -87
c-10 -8 -3 -31 -17 -35c-1 -8 3 -10 5 -15c-7 2 -2 -6 -5 -6c-4 -2 -5 0 -7 1c-9 -26 -25 -43 -38 -64c-7 0 -12 -3 -17 -3c-3 -2 -2 -8 -3 -13c-14 -4 -21 -15 -39 -16c-3 -9 -11 -16 -16 -24c-4 -1 -3 3 -6 4c-5 -3 -4 -12 -13 -11c-2 7 -6 14 -5 22c-1 4 2 7 2 17
c3 32 7 79 15 103c-5 11 7 35 10 51c-6 4 -1 24 2 32c-11 9 -7 29 -7 44c-47 -14 -94 -27 -133 -48c-8 -7 -8 -21 -16 -31c-3 -5 -11 -7 -15 -12c-3 -5 -2 -14 -5 -19h-5c-3 -2 -2 -11 -3 -12c-7 -8 -25 -13 -33 -15c-29 -5 -52 25 -79 36c-1 6 -2 12 -8 10
c-6 78 45 114 57 180c3 0 5 2 7 3c12 39 39 63 50 102c19 12 23 40 43 51c5 18 21 27 25 46c26 24 44 56 71 80c-4 6 1 7 0 13c4 0 7 0 9 2c13 27 32 50 55 69c10 33 36 52 52 81c-3 13 1 22 6 27c6 0 29 -4 31 9c28 -26 79 -28 109 -51c2 -12 11 -13 15 -21
c-5 -17 1 -45 -4 -59zM230 340c-1 -23 -20 -30 -21 -53c-6 -2 -7 -9 -14 -10c1 -3 1 -6 1 -8c-20 -18 -24 -54 -37 -79c27 5 52 4 78 11c4 -5 14 -3 30 -3c2 25 -4 49 3 71c-13 46 15 91 7 136c-15 -22 -28 -46 -47 -65z" />
    <glyph glyph-name="exclam" unicode="!" horiz-adv-x="246" 
d="M214 340c-6 0 -10 -1 -12 -4c0 -5 3 -5 5 -5c-4 -8 -8 -17 -8 -32c-9 -2 -11 -11 -19 -16c9 -9 8 8 12 8s-7 -8 -1 -12c-1 -2 -4 -1 -9 -2c-2 -6 7 -3 5 -8c-14 3 -9 -13 -20 -11c1 -11 6 -10 0 -19c5 1 -2 -16 3 -25c-5 1 -7 -4 -15 -7c3 -2 7 -1 6 -8
c-10 3 -13 -2 -14 -7c-10 5 -20 -5 -25 2c-2 -3 -6 -3 -5 -7c-19 12 -52 17 -64 15c-6 2 2 7 -3 8c-6 1 -5 -2 -6 -5c-5 10 3 25 -1 34c10 1 4 14 13 19c-4 21 9 52 9 78c13 -3 4 15 17 14c2 6 -4 5 -4 10c9 8 11 20 17 30c0 2 -3 2 -5 2c17 16 23 43 32 67
c-7 4 -8 -10 -14 -12c10 19 18 51 29 70c1 3 5 10 10 11c0 18 14 27 15 45h5c2 23 14 35 20 52h7c1 16 14 18 13 35c2 0 5 -3 7 -3c0 4 -5 3 -5 5c9 14 24 21 30 40c17 13 23 35 54 27c2 0 5 -9 12 -5c10 -19 38 -28 45 -52c5 -20 -9 -33 -12 -54h-5c0 -1 2 -1 4 -1
c-8 -28 -25 -49 -32 -78c-4 1 -5 -1 -7 -1c4 -11 -12 -24 -17 -32c-2 -5 -1 -14 -3 -19c-2 -4 -8 -7 -10 -11c-7 -12 -9 -24 -14 -36c-2 -5 -5 -8 -8 -13c-6 -9 1 -15 -7 -25h-10c10 -5 0 -20 -6 -22c2 -4 4 -8 3 -15c-6 -7 -8 -17 -12 -25zM117 103c-1 -3 -3 -4 -7 -3
c10 -20 -2 -58 -10 -90c-6 0 -9 -3 -10 -8c-6 0 -13 1 -12 -6c-5 -2 -8 9 -8 1c-4 5 -14 4 -20 5c-3 11 -26 13 -32 5c-35 35 -2 90 13 121c6 0 8 -3 7 5c43 4 55 -8 79 -30z" />
    <glyph glyph-name="at" unicode="@" horiz-adv-x="787" 
d="M357 54c-3 0 -3 -2 -6 -2c-1 -4 3 -4 10 -4c0 2 -3 4 -4 6zM-1 264c1 -3 -1 -4 -3 -4c2 -22 -7 4 3 4zM434 67c0 -1 2 -1 4 -1c-11 -16 -34 -19 -39 -41c-14 4 -8 -8 -19 -6c-1 -6 0 -4 0 -10c-2 0 -8 -4 -6 3c-1 -7 -6 -8 -13 -7c0 -6 1 -5 0 -10
c-25 -1 -27 -10 -46 -24c-2 1 -1 4 -3 4c-1 -5 -13 -1 -10 -8c-44 -10 -98 -22 -136 -2c1 -5 -7 -8 -7 2h-13c-1 7 -13 5 -16 11c-26 4 -32 24 -57 31c-3 8 -14 11 -21 16c0 11 -7 13 -12 15v10c2 -3 7 -4 7 -10c7 -2 7 3 11 4c-1 2 -5 1 -3 6h-7c7 4 -2 4 0 14
c-14 3 -16 15 -17 30c-9 12 -18 26 -18 47c-8 12 -14 17 -9 25c-13 14 -9 35 -9 51c16 2 -2 26 9 31c-5 21 13 44 16 68c8 3 11 12 13 23c11 12 20 24 25 39c20 9 33 39 41 58c-17 -14 -29 -31 -39 -53h-8c-2 -5 2 -5 1 -10c-1 -2 -6 -1 -5 -5c-1 4 -7 3 -15 3c5 3 6 7 12 7
c-1 2 -5 1 -3 8c10 4 12 14 13 24c10 -1 12 6 13 13c6 -1 6 3 9 0c1 1 2 3 3 5c0 2 -4 1 -7 2c1 10 10 10 14 15c-1 2 -4 1 -4 3c3 2 5 8 16 9c3 10 -2 5 -4 13c26 19 41 51 69 67c-1 5 2 6 2 12c25 18 50 40 70 65c19 4 22 21 37 26c16 11 36 27 54 38c15 10 31 14 40 27
c30 8 43 21 84 17c0 -3 5 -2 3 -7c4 -1 3 3 5 4c29 -15 69 -22 95 -44c8 9 5 -3 18 -8c9 -3 26 -9 28 -14c3 -1 0 -4 0 -5c6 -3 16 -7 21 -8c1 -16 21 -15 23 -29c9 -5 18 -14 20 -25c12 -5 17 -18 31 -24c-1 -6 -2 -13 6 -11c3 -23 23 -28 20 -56c2 -1 1 -8 5 -7
c0 -14 7 -19 2 -25c3 -9 14 -30 7 -37c9 -27 7 -66 12 -85c-5 -11 -4 -30 -12 -49c-12 -9 -22 -21 -29 -37c-9 0 -14 -14 -20 -12c-18 -22 -49 -31 -74 -45c-5 3 -29 -6 -30 -8c-9 2 -5 1 -18 3c8 -5 -3 -14 -12 -17c1 -1 2 -2 2 -5c-20 -11 -31 -30 -49 -42
c-8 -8 -16 -20 -27 -25c2 -7 -5 -5 -3 -11c-18 -6 -20 -30 -41 -26zM597 478c-1 17 -10 39 -8 48c-9 17 -16 40 -30 53c1 9 -3 12 -2 20c-23 26 -38 68 -86 63c-1 -2 -3 -4 -7 -5c-2 6 -19 -12 -25 -4c0 -2 0 -5 -1 -5c-15 -1 -23 -10 -34 -17c-30 -2 -35 -28 -60 -37
c-4 -23 -31 -23 -37 -42c-12 0 -14 -11 -19 -16c3 -1 6 0 7 -2c-13 -19 -26 -37 -46 -52c-31 -58 -75 -103 -107 -163c-6 2 -3 -5 -8 -3c-2 -22 -19 -28 -22 -49h-5c2 -13 -7 -14 -7 -27c-2 0 -2 2 -5 2c5 -15 -13 -26 -3 -34c-12 2 -6 -13 -12 -15c11 -1 -3 -3 0 -8
c5 -3 4 8 7 3c-7 -7 -13 -24 -9 -32c-8 -3 -2 -11 -3 -22c9 2 3 -6 3 -8c2 -5 5 0 5 -5c0 -2 -3 -2 -3 -3c3 -18 16 -40 20 -59c55 -45 170 -23 218 13c28 7 59 28 84 42c1 -2 1 -4 4 -3c48 30 106 51 156 80c-47 17 -90 37 -116 73c-13 -2 -14 -15 -25 -17
c2 -11 -11 -9 -12 -17c-18 -9 -32 -23 -57 -25c0 3 -1 3 -3 3c-30 6 -42 27 -73 35c-3 11 -16 24 -21 21v8c-12 -2 -9 13 -17 9c-11 19 -18 41 -12 70c14 19 24 43 40 62c32 22 60 50 101 65c0 2 0 5 2 5c3 -3 11 3 13 5c8 -9 23 17 34 6c0 5 7 4 8 8c15 -7 52 -4 67 -12
c1 0 1 -5 4 -5c33 -11 69 -22 67 -54c9 -5 8 -22 15 -31c0 -3 -6 -2 -5 -5c9 -1 4 -17 0 -19c-2 -22 -7 -39 -18 -50c-2 -26 -20 -43 -21 -64c17 7 35 11 39 32c6 -2 6 2 10 1c8 53 23 112 17 152c4 0 1 -3 5 -4c0 11 -15 18 -4 27c-3 3 -9 2 -8 8c3 1 4 -2 5 0zM28 361
c0 4 6 0 9 -2c0 -6 -6 -6 -9 -7c-2 -4 -1 4 3 2c1 5 0 7 -3 7zM11 314c7 1 0 -5 2 -12c-2 0 -7 0 -7 -2c-2 1 4 12 5 14z" />
    <glyph glyph-name="numbersign" unicode="#" horiz-adv-x="833" 
d="M790 300c-54 6 -120 8 -172 0c1 2 4 2 4 7c-5 2 -4 -5 -5 -7c-10 6 -36 -2 -49 -1c-19 -16 -27 -50 -47 -66c0 -17 -16 -20 -17 -35c-5 2 -2 -7 -8 -5c-2 -20 -19 -29 -24 -47c-12 0 -4 -17 -16 -17c1 -6 -6 -5 -4 -15c-4 -1 -7 -4 -6 -10c-14 -3 -14 -21 -24 -27
c-7 -29 -29 -45 -38 -72c-9 -1 -13 -6 -17 -10c-5 6 -18 6 -19 19c-7 1 -10 0 -16 -2c-1 -8 -5 -12 -2 -19c-9 0 -12 2 -14 7c-2 -1 -1 -4 -1 -7c-6 3 -5 0 -10 -1c-1 37 -5 65 10 95c-2 25 25 50 33 76h9c-9 10 7 11 11 20c2 4 1 10 2 12c5 11 19 19 24 30c1 4 -1 7 1 10
c1 1 5 -1 5 0c5 7 8 19 15 27c6 8 15 14 17 25c-6 4 -18 -2 -27 -3c-4 -1 -2 3 -5 3c-9 0 -22 -14 -28 -6c-12 -11 -37 0 -46 -17c-5 -1 -9 -2 -13 -4c-36 -58 -57 -134 -109 -178c1 -5 1 -3 0 -8c-6 0 -8 -4 -14 -7c-6 7 -12 -1 -21 -1c-4 1 -6 3 -7 5c-7 2 -3 -5 -9 -4v4
c-26 -13 -53 19 -58 48c-2 7 -4 25 -2 31l5 1c4 24 1 44 8 61c-5 4 -22 0 -25 8c-2 -1 -1 -3 -3 -3c-11 9 -21 18 -37 20c-7 17 -27 22 -39 35c5 8 5 4 0 12c39 6 71 7 101 15c3 0 3 -2 3 -4c10 8 30 3 42 7c1 26 28 39 29 69c-7 -1 -20 2 -22 -3c-30 5 -74 9 -85 42
c5 3 12 0 13 8c18 -13 51 7 64 2c6 9 29 -1 40 10c4 1 2 -3 5 -4c11 3 16 8 23 14c-1 13 13 12 12 27c10 3 13 13 17 21c9 3 15 11 15 21c7 7 15 15 20 27c9 2 14 9 17 20c3 -1 4 1 9 1c3 19 22 21 27 39c21 14 34 45 63 45c2 1 2 3 2 5c8 -6 19 -5 28 -3
c26 -23 80 -73 44 -121c6 -9 -9 -15 -15 -20c0 -19 -8 -26 -20 -32c0 -6 5 -7 0 -10c1 -7 -7 2 -7 -5c32 -6 78 1 109 -3c7 16 12 34 27 42c3 28 24 40 32 63c10 0 10 -2 13 4c21 -5 30 -9 47 -21c12 -14 2 -36 0 -52c-16 -6 -6 -28 -16 -36c17 -10 46 -4 72 -9
c35 -13 90 -14 117 -43c-9 0 -12 -6 -25 -9c-1 2 -2 4 -2 7c-51 16 -129 18 -183 12c0 -6 -2 -10 0 -15c-16 -21 -30 -50 -38 -74c59 -6 112 -2 164 -12c6 4 23 -6 37 -2c0 -6 2 -7 9 -7zM471 400c-30 8 -52 -2 -81 0c-18 -27 -37 -53 -49 -84c18 -4 29 8 39 0
c25 8 47 -1 74 3c11 7 7 20 15 29c1 1 9 1 10 4c3 8 3 8 5 11c0 -1 -4 0 -3 1c3 11 19 26 25 41c-9 -4 -29 1 -35 -5z" />
    <glyph glyph-name="dollar" unicode="$" horiz-adv-x="646" 
d="M0 331c-5 2 6 3 3 -3c7 23 12 40 22 62c78 81 193 113 294 163c17 2 36 4 46 13c9 -1 13 2 23 2c18 14 49 12 68 25h25c21 29 42 59 68 82c13 -2 20 2 32 3c-5 -5 -18 -14 -11 -21c-13 -15 -24 -41 -36 -59c-2 -4 -17 -20 -10 -29c10 -10 26 -17 31 -33
c14 -4 19 -13 23 -25c14 -10 23 -23 14 -51c-8 -2 -16 -6 -26 -10c-27 4 -39 28 -62 39c-6 -2 -16 -2 -23 -2c-21 -29 -32 -57 -53 -84c4 -8 -22 -29 -17 -43c-11 1 -9 -16 -16 -19c17 -6 57 -1 82 -5c66 -12 113 -46 132 -92c-2 -9 -5 -19 -1 -25c-8 -26 -28 -32 -40 -49
c-6 0 -10 -5 -12 -10c-11 2 -8 -8 -19 -7c-8 -10 -38 -21 -54 -27c-19 -8 -42 -19 -69 -26c-7 -3 -14 -7 -22 -9c-2 0 -1 4 -1 4c-11 -3 -22 -14 -36 -16c-5 -1 -9 2 -15 0c-5 -1 -10 -7 -14 -8c-13 -4 -28 5 -42 -7c-7 0 -12 0 -12 4c-5 -6 -13 -10 -15 -21
c-19 -4 -27 -34 -48 -43c1 -9 -8 -10 -9 -19c-2 0 -2 2 -2 4c-8 -15 -21 -31 -20 -49c-10 -2 -2 9 -6 14c-9 0 -9 -13 -18 -11c9 17 19 50 22 66c4 1 15 32 16 45c-18 -2 -19 2 -33 -5c0 2 -5 1 -3 5c-11 -4 -35 -11 -42 0c-5 -6 -8 4 -20 0c-5 8 -7 15 -16 17c0 5 6 3 5 8
c-1 4 -12 1 -19 2c1 10 -2 4 0 14c-8 -10 -11 6 -4 13c-5 1 -22 -1 -31 0c3 5 12 4 16 10c-1 5 -8 3 -13 2c-1 7 9 0 10 5c-3 4 -13 2 -12 8c-11 -4 -18 -6 -27 -7c45 29 110 35 175 47c2 1 0 -3 1 -3c23 3 49 15 71 15c9 14 9 34 18 52c-45 -10 -94 -32 -140 -38
c-5 -1 -3 -5 -6 -7c-8 9 -35 2 -46 10c-5 2 -7 11 -11 15c-5 7 -12 3 -18 12c-1 3 0 9 -2 13c-4 6 -9 10 -8 20c-3 3 -6 4 -10 4c0 2 1 4 1 6c-21 9 -21 34 -34 47c1 4 11 7 6 12zM151 328c63 0 109 6 168 10c21 52 47 85 72 129c-93 -28 -181 -64 -240 -139zM371 264
c-10 -12 -25 -33 -24 -50c25 19 77 19 105 52c-8 3 -30 -2 -34 5c-18 -10 -26 -5 -47 -7z" />
    <glyph glyph-name="percent" unicode="%" horiz-adv-x="624" 
d="M205 598c5 -13 -2 -21 5 -29c14 1 12 -15 25 -16v-6c12 -12 21 -24 32 -37c5 -13 -3 -29 -5 -41c0 -2 3 -8 4 -6c-2 -7 -15 -13 -9 -19c-4 -1 -4 -7 -10 -7c1 -5 -3 -6 -2 -12c-4 1 -4 -3 -8 -2c-12 -16 -28 -26 -37 -46c-5 -1 -14 1 -13 -5c-4 -1 -3 2 -5 2
c-4 -8 -20 -3 -22 -13c-28 1 -53 14 -77 29c-7 15 -27 21 -45 31c-11 14 -23 32 -27 54c1 5 5 5 0 9c5 15 8 34 12 50c25 32 46 67 82 90c3 3 4 6 5 9c6 -7 12 5 19 -3c-1 8 10 4 16 5c20 -13 37 -30 60 -37zM147 470c20 -1 18 24 8 30c-5 -12 -9 -17 -8 -30zM56 69
c8 -1 2 13 10 12c3 -4 -1 -14 9 -13c-5 1 -6 4 -5 9c9 -1 13 1 12 10c8 -9 5 8 13 6c1 20 19 31 18 48c-3 -1 -11 2 -10 -4c-3 3 0 6 -8 4c7 0 4 8 12 7c0 9 1 21 11 24c-1 2 -3 2 -3 5c17 17 18 40 30 51c-8 4 -7 -14 -18 -12c0 6 8 5 7 13c1 0 2 -1 5 -1c-1 1 -4 1 -4 4
c9 1 13 7 23 1c5 6 0 16 10 12c3 6 -7 0 -5 6c-2 -1 -1 -5 -6 -3c-1 7 5 9 6 16c-2 5 -2 -7 -6 -5c0 7 7 5 4 13c11 -4 16 10 26 14c0 5 -3 5 -5 5c6 5 7 16 18 17v6c4 -10 -10 -13 -12 -21c8 2 9 13 21 15c-4 7 -1 6 1 10c1 3 -8 0 -10 1v6c5 2 4 -2 9 -2c1 1 1 2 5 2
c-2 2 -4 3 -5 5c1 1 7 0 10 5c0 5 -3 5 -5 5c7 7 13 17 25 21c-7 10 11 21 18 29c-1 7 2 9 2 15c7 -9 10 4 18 2c2 9 2 10 0 16c9 7 21 13 24 28c2 0 3 -2 5 -2c3 12 19 15 22 30c3 -1 4 1 6 1c21 23 47 42 66 69c9 1 14 9 21 17c20 16 46 34 64 55c3 -5 8 -6 10 -9
c34 1 50 -16 67 -33c-5 -9 -12 -15 -14 -25c-49 -28 -80 -73 -116 -113c9 -5 -8 -13 -14 -18c-2 -2 0 -5 -2 -7c-2 -6 -8 -7 -11 -11c-4 -3 -2 -10 -7 -15s-7 -9 -10 -13c-10 -15 -28 -29 -35 -45c-5 -9 -10 -17 -15 -29c-2 1 -2 4 -4 4c-15 -41 -56 -61 -75 -100
c-14 -7 -14 -27 -31 -33c1 -8 -2 -11 -8 -14c-2 -13 -15 -30 -27 -39c0 -5 2 -4 0 -9c-7 2 -4 -10 -11 -8c2 -16 -16 -23 -19 -32c-1 -2 3 -4 3 -3c-2 -4 -6 -12 -11 -14c2 -3 2 -6 -6 -4c-3 -6 8 -1 6 -7c-8 -2 -13 -5 -13 -12c-3 -3 -8 4 -7 -7c-13 7 -19 2 -32 -2
c1 5 -3 6 -1 13c-9 -3 -11 -5 -12 5c-5 -9 -11 2 -13 6c-3 0 -2 -4 -2 -6c-7 7 -24 -4 -25 6c-2 -2 -7 -4 -12 -3c-11 14 -10 35 10 43c2 -8 -8 -6 -5 -13c7 -2 7 2 7 7c1 -3 5 -5 8 -2c3 -1 -5 -4 -2 -10zM187 277c-2 -5 3 -3 6 -3v4c-3 0 -5 -1 -6 -1zM127 210
c-8 -5 -9 -15 -19 -17c6 5 9 14 19 17zM400 278c6 -5 6 -1 15 -4c2 0 1 3 1 4c27 1 27 -21 52 -20c8 -16 43 -19 59 -25c15 -15 34 -30 47 -49c-1 -2 -3 -1 -5 -1c6 -17 5 -27 11 -39c-6 -7 -7 -21 -16 -26c2 -2 4 -2 3 -9c-15 -2 -11 -22 -24 -25c1 -11 -7 -14 -13 -19
c6 -4 3 -13 -7 -14c0 -4 4 -4 5 -7c-2 -3 -7 -4 -5 -12c-15 -6 -21 -25 -40 -28v-6c-13 4 -28 -3 -35 8c-12 -3 -21 5 -27 13c-27 4 -42 20 -63 32c-7 14 -19 25 -25 42c-1 3 0 6 0 7c-1 2 -5 3 -5 4c-1 2 3 1 3 1c-1 13 -3 29 0 45c1 3 -3 2 -3 3c0 2 4 19 8 22
c-1 2 -4 2 -3 5c10 25 27 42 38 66c12 8 20 20 29 32zM470 151c-5 -19 -12 -36 -22 -53c1 -4 0 -10 5 -14c7 2 5 12 15 9c6 13 22 21 30 32c-2 15 -3 38 -22 42c0 -8 0 -15 -6 -16z" />
    <glyph glyph-name="ampersand" unicode="&#x26;" horiz-adv-x="673" 
d="M99 121c6 1 -2 -11 4 -11c2 8 -1 10 3 12c-2 0 -6 1 -7 -1zM599 615c-7 -1 -16 1 -19 -6c-1 7 -20 1 -18 9c-3 -3 -5 -4 -11 -3c0 3 2 3 3 7c-10 -5 -22 -1 -24 -13c-8 16 -31 -8 -47 -1c-10 -10 -35 -4 -41 -21c-26 -4 -57 -19 -77 -44c-13 3 -18 -9 -25 -18
c-10 3 -12 -6 -20 -14c1 -6 5 -10 9 -14c19 4 36 22 54 20c2 2 4 5 5 8c40 -5 93 2 133 0c20 -1 43 -7 37 -32c-14 -12 -25 -19 -29 -40c-8 -1 -16 -3 -21 -9h-14c-24 -12 -55 -12 -72 -28c-33 -4 -65 -28 -96 -42c-2 0 -3 -3 -4 -5c-62 -23 -109 -66 -148 -123
c-14 -42 -24 -87 -10 -110h-4c10 -12 12 -29 25 -39c56 -12 98 19 142 34c7 14 27 12 33 25c27 6 39 29 63 40c13 27 40 36 50 68c8 -4 3 9 11 7c-3 9 -1 20 -9 25c-46 -12 -68 -54 -111 -70c-2 -2 -4 -7 -5 -11c-39 -15 -66 2 -99 -2c-5 -3 -9 -6 -12 -9c-6 0 -8 3 -16 2
c10 9 12 26 24 29c13 53 76 95 119 132c12 -1 23 5 25 15c14 3 24 7 32 14c12 -1 17 -6 22 -11c18 6 31 2 38 -9c2 0 2 2 3 6c41 -18 84 -35 130 -48c-1 -8 2 -12 10 -13c0 -23 -7 -31 -11 -52c-11 -2 -13 -14 -18 -27c-12 1 -9 -17 -20 -16c-2 -17 -10 -24 -19 -30
c-2 -7 9 -3 5 -9c-9 2 -6 -9 -13 -7c-20 -52 -67 -71 -102 -105c-16 -2 -28 -12 -39 -23c-5 1 -6 -3 -13 -2c-19 -21 -55 -22 -79 -37c-3 -1 -3 1 -3 3c-16 -6 -49 -15 -62 -7c-29 -6 -63 -5 -89 4c-4 1 -6 7 -13 9c-11 5 -28 4 -38 9c-5 2 -4 10 -11 12c-2 2 -8 0 -11 2
c-12 4 -27 13 -35 21c-1 2 0 6 -2 8c-2 1 -7 -2 -9 0c-1 0 -4 9 -10 12c-1 4 -5 3 -7 4c-3 3 -4 11 -9 14c-6 6 -5 8 -9 17c-22 28 -27 105 7 159c40 64 94 111 160 145c0 3 1 6 2 11c-11 10 -32 20 -35 34c-15 2 -8 21 -15 27c5 32 25 64 40 81c17 20 40 30 61 44
c2 2 1 5 3 7c11 10 30 10 40 15c4 6 10 7 13 13c4 -2 3 -5 6 -4c10 13 35 9 45 25c19 2 34 5 48 14c19 -1 35 3 50 13c27 -1 49 5 70 14c-1 -1 -1 -2 -1 -4c2 7 14 3 16 9c40 -8 75 -14 107 -32c1 -2 1 -4 0 -7c32 -2 40 -26 71 -28c8 -19 32 -34 8 -61
c-28 -15 -72 -17 -82 7c-16 -4 -22 5 -32 3c-5 0 5 6 -1 9z" />
    <glyph glyph-name="parenleft" unicode="(" horiz-adv-x="242" 
d="M135 370c4 -1 3 -5 3 -7c-9 1 -8 -4 -14 -7c-1 -4 3 -4 2 -11c-2 1 -1 4 -4 4c0 -6 1 -12 -7 -14c8 -8 -7 -14 0 -21h-10c0 -5 1 -8 8 -7c1 -7 -9 -11 -3 -17c-6 -5 -4 -11 -5 -23c-10 -1 -1 -17 -11 -22c1 -3 5 -3 5 0c9 -25 -8 -52 7 -64c-1 -1 1 -7 -4 -5
c11 -11 14 -26 19 -40c7 4 10 -6 9 -17c9 -6 11 -12 8 -19c1 -2 6 1 9 -2c-9 -43 41 -54 43 -99c-9 -7 -26 -1 -34 -12c-13 5 -24 12 -32 19c-4 -1 -9 -1 -9 -6c-11 7 -10 28 -25 30c-11 19 -32 27 -39 47c-2 3 -5 4 -9 5c-13 37 -37 76 -43 125c-6 44 0 88 9 123
c0 1 -2 1 -3 1c4 17 6 49 11 64c4 22 1 53 17 63c-2 14 6 14 7 31c6 2 7 10 8 21c8 4 6 18 16 24c8 50 51 65 67 106c9 -2 3 7 11 5c-1 12 13 9 13 24c26 12 39 41 63 57c5 8 7 22 22 21c-1 6 1 8 2 12c5 3 14 3 15 12c9 -3 10 2 14 5c10 0 11 -9 23 -5
c26 -18 70 -37 74 -66c1 -5 -4 -3 -3 -9c-23 -13 -37 -31 -59 -45c-2 -21 -30 -14 -32 -35c-4 1 -4 -3 -9 -2c-7 -24 -30 -30 -34 -56c-14 -7 -13 -29 -28 -34c-1 -6 -3 -8 -2 -14c-7 -2 -6 -15 -14 -16c1 -22 -20 -22 -22 -43c-9 3 -9 -5 -14 -6c-3 -5 4 -1 2 -6
c3 2 1 9 10 6c-5 -7 -9 -12 -19 -11v-14c4 0 5 5 11 3c-2 -7 -8 -7 -13 -10c-1 -5 9 -5 5 -7c-1 -1 -7 -6 -7 2c-1 -3 -8 -5 -9 -11c4 -6 7 7 13 2c1 -5 -4 -6 -9 -5v-13c-12 -3 -8 -8 -16 -18c5 -3 14 -2 16 7zM89 165c2 1 2 14 0 15c1 -4 -10 -13 0 -15z" />
    <glyph glyph-name="parenright" unicode=")" horiz-adv-x="360" 
d="M315 345c-3 -20 -9 -32 -19 -44c-2 -5 6 -1 4 -6c-15 -11 -18 -32 -24 -51h-5c-6 -27 -22 -43 -28 -70c-8 -1 -13 -7 -12 -17c-2 -1 -4 -2 -7 -2c-13 -26 -26 -54 -52 -69c-4 -9 -7 -20 -15 -30c-2 -2 -10 -2 -12 -5c-2 -2 -1 -6 -3 -8c-11 -10 -30 -5 -37 -20
c-5 1 -20 3 -20 -5c-12 2 -17 1 -24 -5c1 3 -1 3 -3 3c-11 -12 -29 10 -46 2c-5 -9 -13 -17 -26 -20c-5 0 -1 11 -7 8c3 16 12 26 24 34c2 8 6 15 16 18c14 23 32 43 53 61c23 40 54 79 76 120c-4 10 10 18 14 27c4 10 4 30 15 34c3 7 -2 8 -2 12c14 15 15 43 27 60
c20 78 43 176 29 259c11 17 -5 28 -2 48c-6 8 -5 20 -8 31c-8 6 -20 11 -29 18c0 4 6 3 4 12c5 -2 7 1 8 5c8 -1 11 1 17 1c32 18 64 -9 94 -17c6 -7 12 -15 23 -18c6 -19 16 -32 22 -47c2 -25 -2 -56 5 -77c-7 -27 -3 -63 -5 -91h-5c-2 -20 -3 -43 -12 -55
c6 -8 1 -25 -8 -31c10 -5 -6 -23 -7 -24c4 -12 -8 -23 -8 -41h-5z" />
    <glyph glyph-name="hyphen" unicode="-" horiz-adv-x="420" 
d="M365 317c1 -4 4 -8 0 -14c-19 -31 -71 -34 -104 -41c-54 9 -118 -8 -173 -16c-15 8 -39 3 -55 9c1 9 -9 8 -12 13c-2 11 5 8 5 17c59 11 105 27 164 37c8 2 7 -3 9 -3c32 8 69 -2 96 -5c22 8 46 12 70 3z" />
    <glyph glyph-name="plus" unicode="+" horiz-adv-x="453" 
d="M349 460c0 -15 -7 -30 -9 -51c-7 1 -3 -9 -10 -8c-1 -31 -16 -50 -17 -81c37 -4 75 1 101 -10c-1 -19 -25 -14 -29 -28c-30 -6 -50 -6 -77 -9c-2 -3 -10 -15 -2 -18c-3 -2 -4 -3 -5 -9c-2 -16 4 -45 -5 -70c-10 -9 -13 -22 -16 -35c-17 0 -13 -14 -19 -24
c-6 -5 -9 4 -13 4c-5 0 -1 -4 -5 -7c-8 -2 -17 3 -24 -2c-4 -2 -5 -7 -10 -8c-1 -1 -2 4 -3 3c-8 -5 -9 -13 -17 -12c-11 2 -10 15 -19 22c1 17 -4 30 -10 40c-5 41 -1 81 -1 115c-50 -2 -88 -4 -140 1c-1 10 -8 13 -6 24c29 10 60 17 100 17c4 -1 3 3 5 3c17 1 35 -2 49 2
c8 54 34 110 51 157c28 7 89 18 110 -5c2 2 2 4 5 4c3 -6 8 -12 16 -15z" />
    <glyph glyph-name="equal" unicode="=" horiz-adv-x="451" 
d="M387 396c-3 -9 7 -16 5 -20c-5 -8 -18 -4 -26 -6c-3 -2 -4 -7 -8 -9c-10 -5 -31 -6 -45 -8c-19 -3 -37 -6 -51 -7c-5 -1 -13 4 -20 3h-29c-3 1 -3 -4 -6 -3c-50 8 -109 8 -136 41c9 14 40 11 62 13c11 7 36 1 45 8c52 0 106 20 163 9c16 -11 25 -14 46 -21zM397 294
c-2 -10 4 -13 8 -20c-29 -15 -75 -19 -89 -15c-50 -14 -111 -13 -151 -29c3 5 -14 3 -10 4c-3 -1 -2 -4 -5 -5c-12 -7 -89 -1 -108 1c-11 2 -26 8 -31 15c-6 -4 -6 0 -11 7c4 12 31 16 36 15c35 18 89 18 131 30c85 0 153 21 230 -3z" />
    <glyph glyph-name="question" unicode="?" horiz-adv-x="428" 
d="M103 195c-1 -2 -1 -6 0 -9c-2 2 -6 1 -6 6c3 1 3 3 6 3zM124 76c-3 -2 -5 -9 1 -10c-7 -15 -11 -29 -13 -47c-1 -1 -3 -2 -8 -3c4 -4 0 -5 0 -10c-16 -3 -28 -10 -46 -16c-2 -1 0 -5 -2 -6c-12 9 -19 29 -24 39c0 16 3 30 3 47h4c-1 23 23 32 44 36c14 -7 35 -10 41 -30z
M513 646c1 -3 2 -4 4 -4c2 2 -5 3 1 6c6 -10 4 -18 7 -33c-1 1 -3 1 -5 1c10 -5 -3 -14 0 -24c-6 4 -2 0 -1 -5c-7 -1 -6 -7 -5 -12c-9 -3 -12 -7 -10 -14c-15 -8 -23 -24 -31 -37c-5 -1 -10 3 -7 -6c-5 -3 -2 6 -7 4c0 -11 -16 -15 -11 -23c-16 -9 -29 -22 -48 -22
c-4 0 -5 -2 -4 -5c-6 -1 -14 -4 -16 0c-3 -4 -10 -11 -6 -16c7 3 14 5 15 12c5 2 3 -6 4 -9c-7 -1 -14 -2 -16 -7c-3 -5 4 -2 7 -2c0 -3 -10 -2 -13 -3c0 2 -1 4 -4 5c0 -9 -17 -7 -17 -17c4 0 15 -5 15 1c5 1 3 -5 0 -7c-5 -3 -2 5 -5 3c-1 -4 -13 -4 -9 -10
c-5 -1 -5 0 -6 2c-2 -1 0 -5 -5 -4c0 -3 6 2 5 -3c-7 -1 -8 -7 -11 -10c2 -4 3 2 6 1c-3 -5 -11 -7 -13 -13c-2 3 -7 4 -8 7c-2 -1 -1 -3 -1 -5c-2 7 -11 1 -10 -5c1 -2 3 1 4 1c4 0 -4 -5 -5 -2c0 -2 0 -4 1 -8c-18 -16 -37 -31 -54 -48c-7 -2 -22 0 -17 -12
c-5 1 -4 -1 -9 -2c0 -2 1 -5 1 -7c-20 -12 -26 -30 -47 -41c2 -10 -13 -11 -10 -21c-5 -3 -16 -8 -10 -11c0 -2 -11 -1 -13 -4c0 -2 0 -5 1 -7c-4 -1 -10 -1 -12 -4c-2 -12 -17 -15 -16 -26c-2 1 -4 1 -7 0c-1 3 0 5 3 5c-2 2 -5 2 -6 5c-1 -1 -2 -2 -4 -3
c-3 -3 -7 -4 -5 -9c-1 3 -7 0 -7 5c-20 -4 -30 -15 -25 -36c-3 -1 -9 9 -7 -2c-7 2 -9 13 -16 19c-3 -3 1 -11 1 -18c-5 0 -5 8 -6 12c-2 -1 -1 -3 -4 -3c-7 23 1 36 0 59c11 3 16 11 16 22c2 -1 2 -8 5 -8c1 -2 0 -3 -2 -3c1 -2 4 -1 4 -4c9 5 3 21 15 24c-1 2 -1 4 -2 5
c-3 0 -4 -1 -4 -3c-5 6 2 17 1 25c-7 -9 -7 -24 -11 -35c0 1 -5 9 -5 1c0 5 2 22 10 26c-4 11 6 13 3 26c8 3 9 12 9 18c7 2 6 -2 9 -2c4 9 10 14 15 21c0 -3 1 -5 1 -7c-6 -4 -12 -11 -12 -19c-8 -6 -18 -13 -16 -27c9 7 13 19 24 24c-4 8 3 9 6 15c0 2 -2 2 -4 2
c0 0 22 11 27 19c10 -5 16 12 15 21c-11 0 -18 -14 -22 -10c-3 0 1 -5 0 -9c-9 -1 -8 -8 -16 -10c-2 8 14 6 10 18c15 7 26 19 41 28c2 1 1 4 1 6c8 1 6 6 13 5c2 -5 -7 -3 -12 -6c6 0 7 -4 12 -2c2 3 6 5 5 9c13 10 32 14 33 29c3 0 7 0 10 1v-4c3 0 4 11 6 2
c6 8 8 16 18 20c-9 6 -14 -11 -17 -3c-15 -16 -34 -26 -53 -39c8 11 18 17 26 18c1 8 14 9 17 19c-8 0 -6 -7 -14 -7c3 3 2 8 4 11c19 5 37 23 48 37c24 7 22 28 46 35c7 15 21 26 37 35c-1 3 2 5 0 9c7 3 11 10 15 16c8 2 9 8 15 10c11 28 55 58 22 94c-15 1 -29 2 -42 6
c-41 -13 -80 -25 -100 -50c-4 0 -10 -1 -14 -2c0 -23 -32 -24 -32 -47c-15 -9 -19 -25 -25 -39c-7 0 -5 -7 -7 -13c0 -1 -4 -1 -4 -1c-1 -2 1 -6 0 -9c-3 -7 -17 -10 -10 -25c-22 -21 -45 -6 -71 -7v4c-36 5 -55 26 -82 39c-1 5 5 2 7 5c35 44 83 90 133 122
c24 23 68 35 96 53c23 5 41 15 69 18c8 -7 18 1 28 0c34 0 67 -15 98 -23c1 -3 1 -4 -4 -5c5 -6 7 3 11 2c9 -9 22 -13 33 -17c0 -1 -3 -1 -2 -3c0 -3 5 0 8 0c-1 -2 -4 -2 -3 -5c2 -2 6 -2 12 -1c6 -10 22 -21 19 -29c1 -2 3 -1 7 -1c-1 -7 2 -10 0 -13zM435 503
c1 -2 1 -4 1 -6c3 0 5 1 8 1c1 7 -7 2 -9 5zM364 463c0 -2 0 -4 1 -6c4 0 3 3 7 3c0 4 -4 3 -8 3zM34 569c4 -6 -4 -10 1 -12c1 8 22 20 11 26c-3 -5 -4 -12 -12 -14zM416 484c4 1 8 2 7 6s-4 1 -5 4c2 -6 -1 -8 -2 -10zM332 428c1 -3 0 -6 2 -6c1 2 8 6 2 8
c0 -2 -2 -2 -4 -2zM282 392c2 -5 -8 -11 -2 -14c8 9 22 12 25 22c-12 -5 -6 -5 -23 -8zM269 377c-5 6 8 2 7 6c-6 -2 -4 7 -11 5c1 -7 -4 -9 4 -11zM140 329c9 6 12 13 16 20c1 0 5 0 5 2c-10 -6 -19 -11 -21 -22zM127 334c5 0 8 2 5 6c-4 -1 -7 -2 -5 -6zM130 316
c2 3 10 4 10 9c-11 0 -4 1 -13 -2c0 -3 2 -3 2 -6c0 0 -1 -1 1 -1zM102 299c2 -10 -10 -12 -13 -19c5 4 1 -8 5 -6c3 6 3 7 6 1c2 7 9 10 11 15c-3 0 -8 -2 -9 0c11 2 6 13 17 13c-2 6 2 6 0 10c-8 -2 -3 -14 -17 -14z" />
    <glyph glyph-name="period" unicode="." horiz-adv-x="144" 
d="M86 29c-5 -2 -15 -2 -16 -8c-1 3 -11 -2 -10 5c-6 -6 -17 -7 -26 -4c-1 20 -4 46 3 64c10 0 17 4 17 12c21 2 29 2 37 -12c2 -4 6 -4 6 -5c8 -17 -8 -35 -11 -52z" />
    <glyph glyph-name="comma" unicode="," horiz-adv-x="159" 
d="M63 78c1 0 1 -1 2 -2c11 -3 28 5 47 2c8 -6 9 -21 16 -27c-6 -9 -12 -20 -23 -25c3 -11 -3 -16 -12 -17c-4 -15 -8 -27 -20 -35c0 -23 -16 -27 -22 -44c-8 0 -10 -8 -13 -14c-14 -3 -27 -1 -37 2c-11 55 34 82 43 129c4 1 5 4 7 5c-3 17 9 17 12 26z" />
    <glyph glyph-name="colon" unicode=":" horiz-adv-x="223" 
d="M162 400c-14 -6 -19 -20 -22 -37c-11 -8 -30 4 -37 -6c-23 10 -31 37 -33 68c27 20 95 26 92 -25zM133 139c-14 -6 -19 -20 -22 -37c-11 -8 -30 4 -37 -6c-23 10 -31 37 -33 68c27 20 95 26 92 -25z" />
    <glyph glyph-name="quotesingle" unicode="'" horiz-adv-x="235" 
d="M151 712c14 -6 15 -5 32 -7c3 -16 19 -20 15 -44c-8 -3 -15 -11 -15 -22c-3 0 -3 2 -5 2c2 -11 -8 -12 -7 -25h-5c-9 -23 -23 -38 -35 -59c-10 -2 -17 -7 -22 -17c-14 1 -20 -5 -33 -6c-4 68 23 133 59 172c8 4 14 -4 16 6z" />
    <glyph glyph-name="asciitilde" unicode="~" horiz-adv-x="488" 
d="M414 401c0 -24 28 -38 25 -62c-1 -5 -9 -6 -5 -15c-27 -33 -47 -75 -96 -86c-5 0 -26 1 -24 0c-42 9 -103 21 -109 73c1 12 -1 23 -3 33c-14 -10 -30 -22 -38 -38c-18 -11 -19 -36 -38 -42c1 -18 -12 -19 -20 -26c-32 0 -57 4 -72 19v11c51 34 75 97 136 122c2 1 3 3 3 4
c19 -3 32 12 46 2c6 3 26 -5 42 -3c11 -13 16 -11 23 -22c3 -4 11 -7 12 -10c6 -15 -4 -40 8 -52c24 24 42 52 74 67c11 11 12 28 36 25z" />
    <glyph glyph-name="quotedbl" unicode="&#x22;" horiz-adv-x="321" 
d="M151 712c14 -6 15 -5 32 -7c3 -16 19 -20 15 -44c-8 -3 -15 -11 -15 -22c-3 0 -3 2 -5 2c2 -11 -8 -12 -7 -25h-5c-9 -23 -23 -38 -35 -59c-10 -2 -17 -7 -22 -17c-14 1 -20 -5 -33 -6c-4 68 23 133 59 172c8 4 14 -4 16 6zM278 731c14 -6 15 -5 32 -7
c3 -16 19 -20 15 -44c-8 -3 -15 -11 -15 -22c-3 0 -3 2 -5 2c2 -11 -8 -12 -7 -25h-5c-9 -23 -23 -38 -35 -59c-10 -2 -17 -7 -22 -17c-14 1 -20 -5 -33 -6c-4 68 23 133 59 172c8 4 14 -4 16 6z" />
    <glyph glyph-name="underscore" unicode="_" horiz-adv-x="496" 
d="M411 132c0 -4 4 -8 0 -13c-22 -31 -81 -34 -118 -40c-61 8 -133 -8 -196 -16c-17 8 -44 3 -62 9c1 9 -11 8 -13 12c-3 11 5 8 5 17c67 11 118 26 185 36c10 2 8 -3 11 -3c36 8 78 -2 108 -5c25 8 52 12 80 3z" />
    <glyph glyph-name="semicolon" unicode=";" horiz-adv-x="237" 
d="M176 400c-14 -6 -19 -20 -22 -37c-11 -8 -30 4 -37 -6c-23 10 -31 37 -33 68c27 20 95 26 92 -25zM102 86c-11 2 -21 -14 -35 -15c-3 5 -19 3 -22 -5c-3 5 -13 22 -6 25c-15 37 8 67 14 106c12 0 11 3 12 8c35 12 90 6 84 -35c0 -5 -2 1 -5 -5c-3 -7 -4 -18 -6 -23
c-5 -6 -10 -11 -12 -17c-5 -13 -1 -25 -9 -30h-11c-4 -1 -4 -5 -4 -9z" />
    <glyph glyph-name="B" unicode="B" horiz-adv-x="607" 
d="M484 440c-5 0 -9 0 -10 -2c-11 -17 -36 -12 -45 -32c-8 -2 -8 -1 -17 -3c18 -11 45 -12 60 -27c4 -2 4 3 9 2c36 -29 77 -51 92 -103c2 -6 -3 -5 -4 -8c11 -18 -6 -31 -7 -48c-11 -3 -9 -18 -15 -25c-8 -1 -15 -4 -14 -14c-18 -3 -21 -23 -41 -23c2 -9 -6 -6 -4 -13
c-18 -4 -28 -17 -49 -18c-2 -2 -2 -7 -3 -10c-32 -6 -52 -26 -80 -38c-14 5 -25 -9 -41 -4c-4 -3 -6 -5 -6 -13c-21 -4 -34 5 -46 -12c-9 0 -14 4 -24 3c1 -4 7 -2 6 -8c-8 1 -7 -6 -11 -8c-8 2 -20 -2 -20 8c-2 0 -6 -6 -1 -6c-5 -3 -15 -3 -19 -2c-2 -1 -3 -2 -3 -6
c-31 7 -51 -23 -76 -9c-1 -2 -8 -9 -7 0c-14 -12 -28 6 -45 2c-3 7 5 3 3 9c-2 4 -12 5 -15 -2c-3 1 -4 5 -8 6c-2 0 -1 -4 -1 -6h-15c3 9 -6 6 -11 6c-1 4 0 6 4 6c-5 8 -23 -7 -20 6c-3 -5 -13 -4 -13 -12c-3 1 -12 -2 -13 2c-2 7 9 2 7 8c-12 4 -28 8 -39 15
c-12 -6 -25 -12 -36 -12c-6 -5 -4 -17 -18 -13c14 25 44 39 67 47v7c20 6 38 13 54 24c3 53 18 97 38 138c-1 2 -4 2 -4 5h5c15 52 44 86 54 141c16 8 9 27 24 36c0 17 7 26 14 37c1 5 -3 4 -2 10c2 0 2 -3 2 -4c13 18 21 42 34 60c-10 9 -24 -7 -36 -10
c-40 -6 -58 30 -72 51c25 36 61 58 96 83c10 1 17 5 19 14c7 -2 11 1 17 1c43 27 89 51 151 57c2 1 1 4 4 4c51 5 102 2 150 -7c38 -39 126 -65 104 -158c-1 -5 -7 -6 -6 -16c-1 -1 -4 -2 -6 -2c0 -7 -4 -7 -3 -13c-21 -19 -36 -45 -63 -59c-5 -13 -22 -14 -26 -29
c-3 0 -6 0 -6 3c-1 -9 -13 -7 -13 -16zM342 560c-13 -9 -17 -26 -31 -34c-8 -34 -32 -51 -44 -80c10 10 20 19 35 23c-1 7 3 8 6 12c55 25 88 75 131 114c18 14 35 29 45 51c-23 -5 -25 1 -39 -4c-4 11 -41 -11 -53 -3c0 -8 -11 -11 -16 -7c-10 -13 -29 -17 -38 -31
c4 -1 4 -10 8 -12c-6 -4 -2 -17 -4 -29zM251 292c-13 3 -41 -5 -51 -13c0 8 -2 0 -4 0c-2 6 -15 2 -18 8c-6 -6 -1 -22 -13 -22c-5 -29 -23 -52 -30 -75c0 1 0 -21 -7 -18c-2 -7 5 -2 3 -7c-8 2 -2 -10 -10 -7c1 -10 -3 -14 -6 -21c11 3 18 -1 18 7c62 10 126 52 189 79
c0 12 16 18 20 13c8 18 31 18 42 33c18 7 28 24 46 31c-4 8 3 10 6 16c-65 8 -130 -5 -185 -24zM36 42c7 -2 7 7 12 7c-5 -1 -13 2 -12 -7z" />
    <glyph glyph-name="C" unicode="C" horiz-adv-x="609" 
d="M336 89c5 -12 -9 -7 -7 -20c-19 -1 -18 -24 -36 -25c-3 -2 -3 -4 -4 -8c-4 0 -8 0 -7 -6c-23 -10 -46 -21 -72 -26c-2 0 -1 4 -3 4c-24 -1 -46 -15 -67 -4c0 0 -11 16 -9 6c-21 12 -40 34 -65 47v10c-17 2 -28 26 -38 41h5c3 10 -6 7 -5 16c-5 -2 0 -8 0 -12
c-4 11 -23 43 -11 61c-18 33 -18 83 -10 123c-8 -6 -8 -18 -9 -30c-7 1 -5 10 -6 16h6c0 2 -3 1 -4 2c18 75 64 120 97 177c27 24 50 50 72 79c11 -1 15 15 22 22c5 5 13 6 18 10c4 3 5 11 8 13c3 3 8 2 10 3c11 5 14 12 25 19s30 24 43 32c-1 5 3 5 1 9c4 2 4 -1 4 -3
c8 13 29 11 33 27c18 -3 34 16 50 20c4 1 5 4 5 8c14 1 27 5 33 16c37 7 85 30 123 21c10 -22 31 -34 48 -49c3 -10 9 -14 19 -16c-1 -22 20 -26 13 -50c-8 -23 -41 -8 -64 -13c-29 -4 -55 -3 -64 -21c-14 0 -26 -3 -29 -15c-8 -1 -12 0 -17 -3c-4 -2 -7 -11 -9 -12
s-1 4 -2 4c-8 1 -22 -10 -27 -20c-24 -3 -37 -19 -52 -33c-24 -8 -32 -30 -54 -40c-1 -7 -10 -5 -10 -13c-5 -2 -12 -4 -12 -13c-9 0 -10 -8 -17 -9c-5 -11 -13 -18 -24 -22c5 -13 -10 -11 -9 -26c-21 -12 -33 -34 -46 -55c-9 -8 -16 -19 -19 -33c-10 0 -10 -13 -14 -20
c0 -1 -5 1 -5 0c-2 -1 1 -6 0 -8c-4 -5 -10 -5 -12 -10s2 -10 -1 -20c0 0 -11 -14 -11 -19c0 -2 4 -2 4 -2c-4 -14 -11 -21 -11 -33c-1 -12 1 -20 3 -36c2 -7 0 -16 2 -23c17 1 33 -6 45 3c27 2 44 16 65 24c76 50 154 98 220 160c2 0 1 3 1 5c31 22 56 50 92 66v8
c13 -4 17 3 28 3c0 -10 -12 -7 -9 -19c0 -8 7 4 7 -3c0 -4 -3 -3 -6 -3c7 -4 4 -19 8 -28c-2 -3 -7 0 -8 -4c5 -9 11 -23 3 -33c4 -2 4 -8 10 -7c-12 -5 -13 -14 -17 -29c-20 -9 -22 -18 -38 -35c-14 0 -23 -8 -26 -22c-10 -1 -16 -7 -20 -16c-3 -1 -4 1 -4 4
c-10 -18 -36 -19 -43 -41c-8 5 -15 -16 -18 -8c-13 -20 -42 -32 -50 -49c-8 2 -13 -12 -22 -14z" />
    </font>
</defs>
</svg>
